<?xml version="1.0" standalone="no"?>
<!DOCTYPE svg PUBLIC "-//W3C//DTD SVG 1.1//EN" "http://www.w3.org/Graphics/SVG/1.1/DTD/svg11.dtd" >
<svg xmlns="http://www.w3.org/2000/svg" xmlns:xlink="http://www.w3.org/1999/xlink" version="1.1">
<metadata>
Created by FontForge 20170731 at Fri Jul  3 15:56:42 2020
 By Aleksey,,,
Copyright 2011 The Questrial Project Authors (https://github.com/googlefonts/questrial)
</metadata>
<defs>
<font id="Questrial-Regular" horiz-adv-x="0" >
  <font-face 
    font-family="Questrial"
    font-weight="400"
    font-stretch="normal"
    units-per-em="1000"
    panose-1="0 0 0 0 0 0 0 0 0 0"
    ascent="800"
    descent="-200"
    x-height="500"
    cap-height="662"
    bbox="-279.499 -439 1245 1028"
    underline-thickness="50"
    underline-position="-175"
    unicode-range="U+000D-FB04"
  />
<missing-glyph horiz-adv-x="524" 
d="M33 0v662h460v-662h-460zM263 370l171 247h-343zM78 104l157 227l-157 227v-454zM448 104v454l-158 -227zM91 45h343l-171 247z" />
    <glyph glyph-name="f_f" unicode="ff" horiz-adv-x="604" 
d="M99 0v434h-86v66h86v44q0 82 49.5 123t135.5 41h6v-71h-10q-52 0 -79 -23.5t-27 -75.5v-38h222v44q0 82 49.5 123t135.5 41h6v-71h-10q-52 0 -79 -23.5t-27 -75.5v-38h116v-66h-116v-434h-75v434h-222v-434h-75z" />
    <glyph glyph-name="fi" unicode="fi" horiz-adv-x="496" 
d="M99 0v434h-86v66h86v44q0 82 49.5 123t135.5 41h6v-71h-10q-52 0 -79 -23.5t-27 -75.5v-38h257l-2 -2v-498h-75v434h-180v-434h-75zM351 584v98h81v-98h-81z" />
    <glyph glyph-name="fl" unicode="fl" horiz-adv-x="512" 
d="M99 0v434h-86v66h86v44q0 82 49.5 123t135.5 41h6v-71h-10q-52 0 -79 -23.5t-27 -75.5v-38h116v-66h-116v-434h-75zM372 0v700h75v-700h-75z" />
    <glyph glyph-name="f_f_i" unicode="ffi" horiz-adv-x="793" 
d="M99 0v434h-86v66h86v44q0 82 49.5 123t135.5 41h6v-71h-10q-52 0 -79 -23.5t-27 -75.5v-38h222v44q0 82 49.5 123t135.5 41h6v-71h-10q-52 0 -79 -23.5t-27 -75.5v-38h257v-500h-75v434h-182v-434h-75v434h-222v-434h-75zM650 584v98h81v-98h-81z" />
    <glyph glyph-name="f_f_l" unicode="ffl" horiz-adv-x="793" 
d="M99 0v434h-86v66h86v44q0 82 49.5 123t135.5 41h6v-71h-10q-52 0 -79 -23.5t-27 -75.5v-38h222v44q0 82 49.5 123t135.5 41h6v-71h-10q-52 0 -79 -23.5t-27 -75.5v-38h116v-66h-116v-434h-75v434h-222v-434h-75zM653 0v700h75v-700h-75z" />
    <glyph glyph-name=".notdef" horiz-adv-x="524" 
d="M33 0v662h460v-662h-460zM263 370l171 247h-343zM78 104l157 227l-157 227v-454zM448 104v454l-158 -227zM91 45h343l-171 247z" />
    <glyph glyph-name=".null" 
 />
    <glyph glyph-name="nonmarkingreturn" horiz-adv-x="333" 
 />
    <glyph glyph-name="CR" unicode="&#xd;" horiz-adv-x="600" 
 />
    <glyph glyph-name="space" unicode=" " horiz-adv-x="213" 
 />
    <glyph glyph-name="exclam" unicode="!" horiz-adv-x="221" 
d="M83 183l-19 479h93l-19 -479h-55zM62 0v102h97v-102h-97z" />
    <glyph glyph-name="quotedbl" unicode="&#x22;" horiz-adv-x="317" 
d="M66 443l-19 219h89l-19 -219h-51zM200 443l-19 219h89l-19 -219h-51z" />
    <glyph glyph-name="numbersign" unicode="#" horiz-adv-x="581" 
d="M128 25l20 143h-103v65h112l20 144h-102v65h111l21 143h65l-21 -143h116l21 143h65l-21 -143h104v-65h-113l-20 -144h103v-65h-112l-20 -143h-65l20 143h-116l-20 -143h-65zM222 233h116l20 144h-116z" />
    <glyph glyph-name="dollar" unicode="$" horiz-adv-x="615" 
d="M279 746h66v-78q73 -7 120 -34.5t71 -67.5t27 -85h-77q-5 43 -39 75.5t-102 40.5v-231q44 -10 85.5 -24t75.5 -34t54 -50.5t20 -74.5q0 -87 -62.5 -136t-172.5 -54v-80h-66v80q-84 6 -137 33.5t-79 72t-31 99.5h78q3 -63 51 -94.5t118 -38.5v244q-43 11 -83.5 24t-73 33
t-51.5 49t-19 72q0 77 56.5 127.5t170.5 55.5v76zM125 488q0 -30 21 -49.5t56 -32.5t77 -24v217q-65 -3 -98 -22t-44.5 -43.5t-11.5 -45.5zM505 180q0 32 -22 53t-58 35t-80 25v-229q74 3 117 32t43 84z" />
    <glyph glyph-name="percent" unicode="%" horiz-adv-x="845" 
d="M161 -12l459 682h63l-459 -682h-63zM192 288q-70 0 -110 48.5t-40 140.5q0 93 40 141.5t110 48.5q54 -1 87 -28t48 -70t15 -92q0 -92 -40.5 -140.5t-109.5 -48.5zM192 345q34 1 53 21t27 50.5t8 60.5q0 66 -23.5 99t-64.5 33q-42 0 -65.5 -33t-23.5 -99t23.5 -99
t65.5 -33zM653 -8q-70 0 -110 48.5t-40 140.5q0 93 40 141.5t110 48.5q54 -1 87 -28t48 -70t15 -92q0 -92 -40.5 -140.5t-109.5 -48.5zM653 49q34 1 53 21t27 50.5t8 60.5q0 66 -23.5 99t-64.5 33q-42 0 -65.5 -33t-23.5 -99t23.5 -99t65.5 -33z" />
    <glyph glyph-name="ampersand" unicode="&#x26;" horiz-adv-x="580" 
d="M269 -8q-62 0 -115 25t-85 69.5t-32 103.5q0 53 32 95.5t90 64.5q-22 7 -45.5 27.5t-39 49.5t-15.5 62q0 77 56 129t164 52q68 0 112 -20.5t67.5 -52t30.5 -65.5h-79q-7 24 -40.5 47t-92.5 23q-74 0 -108.5 -33.5t-34.5 -80.5q0 -56 39 -83t91 -27h161v44h70v-44h65v-67
h-65v-127q0 -85 -60 -138.5t-166 -53.5zM269 59q79 0 117.5 36.5t38.5 82.5v133h-170q-42 0 -74.5 -17t-50.5 -44.5t-18 -61.5t19.5 -63.5t55 -47.5t82.5 -18z" />
    <glyph glyph-name="quotesingle" unicode="'" horiz-adv-x="183" 
d="M66 443l-19 219h89l-19 -219h-51z" />
    <glyph glyph-name="parenleft" unicode="(" horiz-adv-x="245" 
d="M163 -138q-63 98 -95.5 202.5t-32.5 216.5q0 111 32.5 216.5t95.5 202.5h68q-57 -91 -88.5 -197.5t-31.5 -221.5t31.5 -221.5t88.5 -197.5h-68z" />
    <glyph glyph-name="parenright" unicode=")" horiz-adv-x="245" 
d="M14 -138q57 91 88.5 197.5t31.5 221.5t-31.5 221.5t-88.5 197.5h68q63 -97 95.5 -202.5t32.5 -216.5q0 -112 -32.5 -216.5t-95.5 -202.5h-68z" />
    <glyph glyph-name="asterisk" unicode="*" horiz-adv-x="373" 
d="M132 397l-51 37l74 81l-107 23l19 60l100 -45l-12 109h63l-12 -109l100 45l19 -60l-107 -22l74 -82l-51 -37l-54 95z" />
    <glyph glyph-name="plus" unicode="+" horiz-adv-x="550" 
d="M242 0v203h-192v65h192v203h65v-203h193v-65h-193v-203h-65z" />
    <glyph glyph-name="comma" unicode="," horiz-adv-x="220" 
d="M11 -111l58 213h98l-88 -213h-68z" />
    <glyph glyph-name="hyphen" unicode="-" horiz-adv-x="360" 
d="M55 259v73h250v-73h-250z" />
    <glyph glyph-name="period" unicode="." horiz-adv-x="203" 
d="M53 0v102h97v-102h-97z" />
    <glyph glyph-name="slash" unicode="/" horiz-adv-x="371" 
d="M36 -32l229 712h70l-229 -712h-70z" />
    <glyph glyph-name="zero" unicode="0" horiz-adv-x="550" 
d="M275 -8q-117 0 -174.5 86.5t-57.5 252.5t57.5 252.5t174.5 86.5q68 -1 113 -29.5t71 -76.5t37 -108t11 -125q0 -166 -57.5 -252.5t-174.5 -86.5zM275 65q51 1 82 25t47.5 63t22 85.5t5.5 92.5q0 133 -37 199.5t-120 66.5q-82 0 -119.5 -66.5t-37.5 -199.5t37.5 -199.5
t119.5 -66.5z" />
    <glyph glyph-name="one" unicode="1" horiz-adv-x="550" 
d="M275 0v590h-140v72h215v-662h-75z" />
    <glyph glyph-name="two" unicode="2" horiz-adv-x="550" 
d="M52 0v41q0 49 27 89.5t69 75.5t90 67.5t90 63.5t69 64.5t27 71.5q0 58 -38.5 91t-110.5 33q-66 0 -107.5 -29.5t-49.5 -85.5h-75q6 57 37.5 99.5t81.5 65.5t111 23q72 0 122.5 -26t77 -70t26.5 -99q0 -46 -25 -86t-65 -75t-84.5 -66t-85.5 -60.5t-68 -58t-30 -57.5h356
v-72h-445z" />
    <glyph glyph-name="three" unicode="3" horiz-adv-x="550" 
d="M277 -8q-62 0 -113.5 24.5t-84.5 65.5t-38 93h76q5 -31 28 -56t57.5 -39.5t74.5 -14.5q71 0 110.5 36t39.5 87q0 34 -18.5 62.5t-50.5 46t-74 17.5h-76v69h67q35 0 64.5 13.5t47.5 38t18 56.5q0 47 -33.5 76.5t-98.5 29.5q-61 0 -97.5 -28t-43.5 -66h-73q5 41 30.5 79
t71.5 63t110 25q98 0 153.5 -49.5t55.5 -126.5q0 -33 -15.5 -62.5t-38.5 -50.5t-46 -28q58 -22 90 -66t32 -97q0 -59 -30 -103.5t-81 -69.5t-114 -25z" />
    <glyph glyph-name="four" unicode="4" horiz-adv-x="550" 
d="M347 0v169h-316v73l278 420h113v-426h89v-67h-89v-169h-75zM101 236h246v362z" />
    <glyph glyph-name="five" unicode="5" horiz-adv-x="550" 
d="M280 -8q-64 0 -107.5 17.5t-70 44.5t-41 57t-19.5 55h77q8 -24 26 -47.5t50.5 -38.5t81.5 -15q45 0 78.5 19.5t52.5 53t19 74.5q0 66 -41.5 106.5t-106.5 40.5q-44 0 -79 -16.5t-52 -36.5l-69 42l45 314h345v-72h-277l-30 -192q23 14 55 22.5t62 8.5q67 0 117 -28
t78 -76.5t28 -112.5q0 -61 -29.5 -111t-79.5 -79.5t-113 -29.5z" />
    <glyph glyph-name="six" unicode="6" horiz-adv-x="550" 
d="M288 -8q-121 0 -183 88t-62 251q0 157 63 248t188 91q64 0 105.5 -24t65.5 -61t32 -77h-84q-7 22 -20.5 42t-37 33.5t-61.5 13.5q-61 0 -100 -36t-57.5 -97t-18.5 -136q24 41 71 67.5t102 26.5q63 0 114 -27.5t81 -76t30 -111.5q0 -62 -31 -110.5t-82.5 -76.5t-114.5 -28
zM288 65q42 0 77 18t55.5 50.5t20.5 73.5t-20.5 73.5t-55.5 51.5t-77 19t-76.5 -17.5t-55.5 -49t-21 -72.5q0 -44 20.5 -77t55 -51.5t77.5 -18.5z" />
    <glyph glyph-name="seven" unicode="7" horiz-adv-x="550" 
d="M143 0l286 590h-382v72h459v-85l-276 -577h-87z" />
    <glyph glyph-name="eight" unicode="8" horiz-adv-x="550" 
d="M275 -8q-113 0 -175 55t-62 143q0 57 34.5 104.5t92.5 69.5q-22 8 -45.5 25.5t-39.5 46t-16 67.5q0 74 54.5 120.5t156.5 46.5t156.5 -46.5t54.5 -120.5q0 -39 -16 -67.5t-39.5 -46t-45.5 -25.5q59 -22 93 -69.5t34 -104.5q0 -88 -62 -143t-175 -55zM275 396
q31 0 62.5 10.5t52.5 33.5t21 59q0 47 -38 73t-98 26t-98 -26t-38 -73q0 -36 21 -59t52.5 -33.5t62.5 -10.5zM275 64q74 0 118 34.5t44 92.5q0 43 -22 73.5t-58.5 46.5t-81.5 16q-44 0 -81 -16t-59 -46.5t-22 -73.5q0 -58 44 -92.5t118 -34.5z" />
    <glyph glyph-name="nine" unicode="9" horiz-adv-x="550" 
d="M256 -8q-63 0 -105 24t-65.5 61.5t-32.5 76.5h84q7 -21 20.5 -41.5t37.5 -34t61 -13.5q62 0 100.5 36t57 97t18.5 136q-24 -41 -70.5 -67.5t-102.5 -26.5q-62 0 -113.5 27.5t-81.5 76t-30 111.5q0 62 31 110.5t83 76.5t114 28q121 0 183 -88t62 -251q0 -157 -63 -248
t-188 -91zM262 311q42 0 77 17.5t55.5 49t20.5 72.5q0 44 -20.5 77t-55 51.5t-77.5 18.5q-42 0 -76.5 -18t-55.5 -50t-21 -74q0 -41 21 -73.5t55.5 -51.5t76.5 -19z" />
    <glyph glyph-name="colon" unicode=":" horiz-adv-x="203" 
d="M53 398v102h97v-102h-97zM53 0v102h97v-102h-97z" />
    <glyph glyph-name="semicolon" unicode=";" horiz-adv-x="245" 
d="M80 398v102h97v-102h-97zM25 -133l58 213h98l-88 -213h-68z" />
    <glyph glyph-name="less" unicode="&#x3c;" horiz-adv-x="550" 
d="M507 8l-481 212v63l481 213v-78l-405 -166l405 -166v-78z" />
    <glyph glyph-name="equal" unicode="=" horiz-adv-x="550" 
d="M57 301v67h436v-67h-436zM57 103v67h436v-67h-436z" />
    <glyph glyph-name="greater" unicode="&#x3e;" horiz-adv-x="550" 
d="M42 8v78l405 166l-405 166v78l481 -213v-63z" />
    <glyph glyph-name="question" unicode="?" horiz-adv-x="510" 
d="M227 183q0 49 17 83.5t42 60t49.5 49t41.5 50t17 63.5q0 25 -11.5 51t-39.5 43.5t-77 17.5t-82.5 -19t-52 -50t-21.5 -66h-71q3 55 30.5 101.5t76 74.5t114.5 28q72 0 117.5 -26.5t66.5 -68t21 -86.5q0 -47 -16.5 -78.5t-41 -56t-49.5 -47.5t-41.5 -52.5t-16.5 -71.5h-73
zM215 0v102h97v-102h-97z" />
    <glyph glyph-name="at" unicode="@" horiz-adv-x="852" 
d="M392 -100q-75 0 -137.5 27t-108.5 73.5t-71 108t-25 130.5q0 82 33.5 157t91.5 133.5t133.5 92.5t159.5 34q68 0 129.5 -25.5t109.5 -71.5t75.5 -107.5t27.5 -133.5q0 -85 -27 -139t-69.5 -80t-89.5 -26q-34 0 -53 10.5t-27.5 24.5t-10.5 24.5l-2 10.5q-26 -32 -61 -51
t-84 -19q-85 0 -127.5 48t-42.5 118q0 73 30.5 127.5t82 85t114.5 30.5q50 0 82 -19t49 -51l10 64h60l-47 -292l-0.5 -3.5t-0.5 -9.5q0 -9 3.5 -21.5t15 -22t34.5 -9.5q56 0 90 47t34 149q0 65 -23.5 120.5t-65.5 97t-97 64.5t-119 23q-75 0 -143.5 -30t-122 -83
t-84.5 -121.5t-31 -145.5q0 -64 23.5 -119.5t65.5 -96t97 -63.5t119 -23q69 0 121.5 18.5t98.5 55.5l22 -30q-52 -42 -115 -61.5t-127 -19.5zM402 127q49 0 84 25.5t53.5 67t18.5 88.5q0 50 -29 85.5t-86 35.5q-73 0 -120 -50.5t-47 -133.5q0 -51 31 -84.5t95 -33.5z" />
    <glyph glyph-name="A" unicode="A" horiz-adv-x="662" 
d="M3 0l281 662h94l281 -662h-83l-81 192h-328l-81 -192h-83zM196 261h270l-135 323z" />
    <glyph glyph-name="B" unicode="B" horiz-adv-x="662" 
d="M81 0v662h297q78 0 123.5 -27t65.5 -67.5t20 -80.5q0 -64 -27 -98.5t-62 -50.5q28 -9 56.5 -28.5t47.5 -52.5t19 -83q0 -74 -56.5 -124t-169.5 -50h-314zM156 366h222q35 0 65.5 12t49.5 37.5t19 65.5q0 28 -12.5 53t-40 41t-73.5 16h-230v-225zM156 71h247
q68 0 105.5 28.5t37.5 80.5q0 47 -36 82.5t-115 35.5h-239v-227z" />
    <glyph glyph-name="C" unicode="C" horiz-adv-x="690" 
d="M359 -8q-99 0 -171 45.5t-110.5 122.5t-38.5 171t38.5 171t110.5 122.5t171 45.5q75 0 135 -26.5t102 -72.5t63 -107h-79q-25 61 -79 97t-136 36q-80 0 -136.5 -35.5t-85.5 -95.5t-29 -135q0 -74 29 -134.5t85.5 -96t136.5 -35.5q82 0 136 36t79 97h79
q-21 -60 -63 -106.5t-102 -73t-135 -26.5z" />
    <glyph glyph-name="D" unicode="D" horiz-adv-x="703" 
d="M81 0v662h279q59 0 113.5 -22.5t97.5 -65.5t68 -104t25 -139t-25 -139t-68 -104t-97.5 -65.5t-113.5 -22.5h-279zM156 71h201q71 0 123 36t80.5 95t28.5 129q0 71 -28.5 130t-80.5 94.5t-123 35.5h-201v-520z" />
    <glyph glyph-name="E" unicode="E" horiz-adv-x="608" 
d="M81 0v662h487v-72h-412v-222h368v-73h-368v-223h412v-72h-487z" />
    <glyph glyph-name="F" unicode="F" horiz-adv-x="583" 
d="M81 0v662h478v-72h-403v-230h359v-73h-359v-287h-75z" />
    <glyph glyph-name="G" unicode="G" horiz-adv-x="723" 
d="M363 -8q-101 0 -173.5 45.5t-111.5 122.5t-39 171t40 171t113.5 122.5t172.5 45.5q107 0 185.5 -52.5t115.5 -135.5h-82q-30 53 -83.5 84t-129.5 31q-80 0 -138 -35.5t-88.5 -95.5t-30.5 -135q0 -74 30 -134.5t87.5 -96t137.5 -35.5q60 0 113.5 26t87 75t33.5 118h-242
v68h311v-352h-69v117q-21 -32 -54 -60.5t-79.5 -46.5t-106.5 -18z" />
    <glyph glyph-name="H" unicode="H" horiz-adv-x="697" 
d="M81 0v662h75v-294h385v294h75v-662h-75v295h-385v-295h-75z" />
    <glyph glyph-name="I" unicode="I" horiz-adv-x="237" 
d="M81 0v662h75v-662h-75z" />
    <glyph glyph-name="J" unicode="J" horiz-adv-x="527" 
d="M236 -8q-71 0 -118.5 27.5t-72.5 70t-30 87.5h78q4 -26 21 -52t48 -43t78 -17q45 0 72.5 14.5t41 38.5t18.5 51.5t5 52.5v440h75v-443q0 -58 -20.5 -110t-68 -84.5t-127.5 -32.5z" />
    <glyph glyph-name="K" unicode="K" horiz-adv-x="641" 
d="M81 0v662h75v-345l368 345h106l-282 -266l298 -396h-94l-259 345l-137 -128v-217h-75z" />
    <glyph glyph-name="L" unicode="L" horiz-adv-x="533" 
d="M81 0v662h75v-590h361v-72h-436z" />
    <glyph glyph-name="M" unicode="M" horiz-adv-x="806" 
d="M81 0v662h87l237 -314l233 314h87v-662h-75v548l-245 -315l-249 315v-548h-75z" />
    <glyph glyph-name="N" unicode="N" horiz-adv-x="733" 
d="M81 0v662h87l409 -557v557h75v-662h-87l-409 559v-559h-75z" />
    <glyph glyph-name="O" unicode="O" horiz-adv-x="750" 
d="M375 -8q-75 0 -137 26t-106.5 73t-68.5 108.5t-24 131.5q0 71 24 132t68.5 108t106.5 73t137 26t137 -26t106.5 -73t68.5 -108t24 -132q0 -70 -24 -131.5t-68.5 -108.5t-106.5 -73t-137 -26zM375 65q81 0 139.5 35.5t90 96t31.5 134.5q0 75 -31.5 135t-90 95.5
t-139.5 35.5q-80 0 -139 -35.5t-90.5 -95.5t-31.5 -135q0 -74 31.5 -134.5t90.5 -96t139 -35.5z" />
    <glyph glyph-name="P" unicode="P" horiz-adv-x="628" 
d="M81 0v662h298q106 0 167 -57.5t61 -155.5t-61 -155.5t-167 -57.5h-223v-236h-75zM156 306h218q78 0 118 38t40 105q0 66 -40 104t-118 38h-218v-285z" />
    <glyph glyph-name="Q" unicode="Q" horiz-adv-x="750" 
d="M596 -157q-49 0 -95 19t-82 53t-58 78q-96 3 -168.5 49t-113 121.5t-40.5 167.5q0 71 24 132t68.5 108t106.5 73t137 26t137 -26t106.5 -73t68.5 -108t24 -132q0 -84 -34.5 -154.5t-96 -117.5t-143.5 -61q10 -18 30 -39.5t52 -36.5t78 -15q36 0 65.5 12t55.5 33l40 -54
q-35 -28 -74.5 -41.5t-87.5 -13.5zM375 65q81 0 139.5 35.5t90 96t31.5 134.5q0 75 -31.5 135t-90 95.5t-139.5 35.5q-80 0 -139 -35.5t-90.5 -95.5t-31.5 -135q0 -74 31.5 -134.5t90.5 -96t139 -35.5z" />
    <glyph glyph-name="R" unicode="R" horiz-adv-x="669" 
d="M81 0v662h317q102 0 162.5 -56t60.5 -151q0 -64 -24.5 -102t-61.5 -57.5t-74 -28.5l174 -267h-89l-160 254h-230v-254h-75zM156 325h229q36 0 73 11t62.5 39.5t25.5 79.5q0 63 -43 99.5t-114 36.5h-233v-266z" />
    <glyph glyph-name="S" unicode="S" horiz-adv-x="615" 
d="M318 -8q-98 0 -159 26.5t-91.5 73.5t-35.5 106h78q3 -48 32 -77.5t76.5 -43.5t104.5 -14q84 0 133 29.5t49 87.5q0 35 -24.5 56.5t-65 35.5t-88.5 25.5t-96.5 24.5t-89 33t-65 51.5t-24.5 80.5q0 81 62.5 132t186.5 51q88 0 145 -26.5t85.5 -69.5t31.5 -93h-77
q-6 50 -50 84.5t-135 34.5q-56 0 -91 -11t-53.5 -28.5t-25 -36.5t-6.5 -36q0 -33 24.5 -53.5t65 -34t89.5 -24.5t97.5 -24.5t89 -34t65 -52.5t24.5 -82q0 -92 -70 -141.5t-192 -49.5z" />
    <glyph glyph-name="T" unicode="T" horiz-adv-x="565" 
d="M245 0v591h-231v71h537v-71h-231v-591h-75z" />
    <glyph glyph-name="U" unicode="U" horiz-adv-x="709" 
d="M354 -8q-82 0 -145.5 36.5t-99.5 102.5t-36 154v377h75v-379q0 -77 29.5 -125t77 -70.5t99.5 -22.5q53 0 100 22.5t77 70.5t30 125v379h75v-377q0 -87 -36 -153t-99.5 -103t-146.5 -37z" />
    <glyph glyph-name="V" unicode="V" horiz-adv-x="628" 
d="M271 0l-268 662h82l229 -577l229 577h82l-268 -662h-86z" />
    <glyph glyph-name="W" unicode="W" horiz-adv-x="958" 
d="M215 0l-206 662h79l170 -556l178 556h86l178 -556l170 556h79l-206 -662h-85l-179 556l-179 -556h-85z" />
    <glyph glyph-name="X" unicode="X" horiz-adv-x="613" 
d="M-3 0l264 342l-246 320h95l196 -260l197 260h95l-246 -320l264 -342h-95l-215 284l-214 -284h-95z" />
    <glyph glyph-name="Y" unicode="Y" horiz-adv-x="636" 
d="M281 0v262l-278 400h91l224 -322l224 322h91l-277 -400v-262h-75z" />
    <glyph glyph-name="Z" unicode="Z" horiz-adv-x="584" 
d="M29 0v71l432 521h-426v70h518v-72l-432 -520h432v-70h-524z" />
    <glyph glyph-name="bracketleft" unicode="[" horiz-adv-x="280" 
d="M66 -133v812h187v-62h-121v-688h121v-62h-187z" />
    <glyph glyph-name="backslash" unicode="\" horiz-adv-x="371" 
d="M265 -32l-229 712h70l229 -712h-70z" />
    <glyph glyph-name="bracketright" unicode="]" horiz-adv-x="280" 
d="M27 -133v62h121v688h-121v62h187v-812h-187z" />
    <glyph glyph-name="asciicircum" unicode="^" horiz-adv-x="509" 
d="M75 355l149 313h61l149 -313h-70l-109 215l-110 -215h-70z" />
    <glyph glyph-name="underscore" unicode="_" horiz-adv-x="600" 
d="M50 -128v55h500v-55h-500z" />
    <glyph glyph-name="grave" unicode="`" horiz-adv-x="340" 
d="M200 570l-107 105h107l61 -105h-61z" />
    <glyph glyph-name="a" unicode="a" horiz-adv-x="595" 
d="M276 -8q-73 0 -127.5 34.5t-84.5 93.5t-30 130q0 72 30 130.5t84.5 93t127.5 34.5q62 0 106.5 -24t72.5 -65v81h75v-500h-75v80q-28 -40 -72.5 -64t-106.5 -24zM286 60q56 0 94.5 26t58.5 69.5t20 94.5q0 52 -20 95t-58.5 69t-94.5 26q-55 0 -95 -26t-61 -69t-21 -95
q0 -51 21 -94.5t61 -69.5t95 -26z" />
    <glyph glyph-name="b" unicode="b" horiz-adv-x="595" 
d="M319 -8q-62 0 -106.5 24t-72.5 64v-80h-75v700h75v-281q28 41 72.5 65t106.5 24q73 0 127.5 -34.5t84.5 -93t30 -130.5q0 -71 -30 -130t-84.5 -93.5t-127.5 -34.5zM309 60q56 0 95.5 26t60.5 69.5t21 94.5q0 52 -21 95t-60.5 69t-95.5 26q-55 0 -94 -26t-59 -69t-20 -95
q0 -51 20 -94.5t59 -69.5t94 -26z" />
    <glyph glyph-name="c" unicode="c" horiz-adv-x="544" 
d="M280 -8q-75 0 -130 34.5t-85.5 93.5t-30.5 130q0 72 30.5 130.5t85.5 93t130 34.5q89 0 151.5 -46t84.5 -119h-81q-17 43 -54.5 70t-90.5 27q-55 0 -96 -26t-63 -69t-22 -95q0 -51 22 -94.5t63 -69.5t96 -26q53 0 90.5 27t54.5 70h81q-22 -73 -84.5 -119t-151.5 -46z" />
    <glyph glyph-name="d" unicode="d" horiz-adv-x="595" 
d="M276 -8q-73 0 -127.5 34.5t-84.5 93.5t-30 130q0 72 30 130.5t84.5 93t127.5 34.5q62 0 106.5 -24t72.5 -65v281h75v-700h-75v80q-28 -40 -72.5 -64t-106.5 -24zM286 60q56 0 94.5 26t58.5 69.5t20 94.5q0 52 -20 95t-58.5 69t-94.5 26q-55 0 -95 -26t-61 -69t-21 -95
q0 -51 21 -94.5t61 -69.5t95 -26z" />
    <glyph glyph-name="e" unicode="e" horiz-adv-x="557" 
d="M287 -8q-76 0 -133 34.5t-88.5 93.5t-31.5 130q0 72 30 130.5t86 93t132 34.5q77 0 132.5 -34.5t85.5 -93t30 -130.5v-30h-419q6 -44 28.5 -80.5t60.5 -58t88 -21.5q53 0 89 23.5t56 60.5h82q-26 -67 -82.5 -109.5t-145.5 -42.5zM112 290h340q-10 64 -54 107t-116 43
t-115.5 -43t-54.5 -107z" />
    <glyph glyph-name="f" unicode="f" horiz-adv-x="307" 
d="M99 0v434h-86v66h86v44q0 82 49.5 123t135.5 41h6v-71h-10q-52 0 -79 -23.5t-27 -75.5v-38h116v-66h-116v-434h-75z" />
    <glyph glyph-name="g" unicode="g" horiz-adv-x="595" 
d="M294 -206q-94 0 -153 40.5t-80 105.5h83q15 -37 52 -57.5t94 -20.5q86 0 125.5 40.5t39.5 117.5v69q-28 -40 -72.5 -64.5t-106.5 -24.5q-73 0 -127.5 33.5t-84.5 91.5t-30 129q0 72 30 129.5t84.5 91t127.5 33.5q62 0 106.5 -23.5t72.5 -64.5v80h75v-485
q0 -107 -61.5 -164t-174.5 -57zM286 68q55 0 93.5 25t59 67.5t20.5 93.5q0 52 -20.5 94t-59 67t-93.5 25t-95 -25t-61 -67t-21 -94q0 -51 21 -93.5t61 -67.5t95 -25z" />
    <glyph glyph-name="h" unicode="h" horiz-adv-x="566" 
d="M65 0v700h75v-278q27 36 66 61t100 25q52 0 97.5 -24.5t74 -73t28.5 -119.5v-291h-75v289q0 68 -39 109.5t-101 41.5q-42 0 -76 -19t-54.5 -53.5t-20.5 -79.5v-288h-75z" />
    <glyph glyph-name="i" unicode="i" horiz-adv-x="205" 
d="M62 584v98h81v-98h-81zM65 0v500h75v-500h-75z" />
    <glyph glyph-name="j" unicode="j" horiz-adv-x="205" 
d="M62 584v98h81v-98h-81zM65 -198v698h75v-698h-75z" />
    <glyph glyph-name="k" unicode="k" horiz-adv-x="502" 
d="M65 0v700h75v-448l241 248h105l-201 -197l216 -303h-92l-175 251l-94 -93v-158h-75z" />
    <glyph glyph-name="l" unicode="l" horiz-adv-x="205" 
d="M65 0v700h75v-700h-75z" />
    <glyph glyph-name="m" unicode="m" horiz-adv-x="868" 
d="M65 0v500h75v-76q17 30 54 57t98 27q50 0 92.5 -26.5t66.5 -74.5q10 17 31.5 41t56.5 42t84 18q48 0 90 -25t68.5 -71.5t26.5 -109.5v-302h-75v300q0 63 -35.5 101.5t-88.5 38.5q-55 0 -95 -37t-40 -104v-299h-75v300q0 63 -35.5 101.5t-88.5 38.5q-55 0 -95 -37
t-40 -104v-299h-75z" />
    <glyph glyph-name="n" unicode="n" horiz-adv-x="566" 
d="M65 0v500h75v-78q27 36 66 61t100 25q52 0 97.5 -24.5t74 -73t28.5 -119.5v-291h-75v289q0 68 -39 109.5t-101 41.5q-42 0 -76 -19t-54.5 -53.5t-20.5 -79.5v-288h-75z" />
    <glyph glyph-name="o" unicode="o" horiz-adv-x="564" 
d="M282 -8q-76 0 -132 34.5t-86 93.5t-30 130q0 72 30 130.5t86 93t132 34.5q77 0 132.5 -34.5t85.5 -93t30 -130.5q0 -71 -30 -130t-85.5 -93.5t-132.5 -34.5zM282 60q56 0 94.5 26t58.5 69.5t20 94.5q0 52 -20 95t-58.5 69t-94.5 26q-55 0 -94 -26t-59 -69t-20 -95
q0 -51 20 -94.5t59 -69.5t94 -26z" />
    <glyph glyph-name="p" unicode="p" horiz-adv-x="595" 
d="M65 -198v698h75v-80q28 41 72.5 64.5t106.5 23.5q73 0 127.5 -34.5t84.5 -93t30 -130.5q0 -71 -30 -130t-84.5 -93.5t-127.5 -34.5q-62 0 -106.5 24.5t-72.5 64.5v-279h-75zM309 60q56 0 95.5 26t60.5 69.5t21 94.5q0 52 -21 95t-60.5 69t-95.5 26q-55 0 -94 -26t-59 -69
t-20 -95q0 -51 20 -94.5t59 -69.5t94 -26z" />
    <glyph glyph-name="q" unicode="q" horiz-adv-x="595" 
d="M455 -198v279q-28 -40 -72.5 -64.5t-106.5 -24.5q-73 0 -127.5 34.5t-84.5 93.5t-30 130q0 72 30 130.5t84.5 93t127.5 34.5q62 0 106.5 -23.5t72.5 -64.5v80h75v-698h-75zM286 60q56 0 94.5 26t58.5 69.5t20 94.5q0 52 -20 95t-58.5 69t-94.5 26q-55 0 -95 -26t-61 -69
t-21 -95q0 -51 21 -94.5t61 -69.5t95 -26z" />
    <glyph glyph-name="r" unicode="r" horiz-adv-x="345" 
d="M65 0v500h75v-123q4 13 15.5 34.5t33.5 43.5t55.5 37.5t79.5 15.5h5v-75h-9q-56 0 -96.5 -30.5t-62 -79t-21.5 -103.5v-220h-75z" />
    <glyph glyph-name="s" unicode="s" horiz-adv-x="482" 
d="M247 -8q-69 0 -116.5 23t-72.5 60.5t-28 81.5h78q3 -25 17.5 -48.5t44.5 -38t78 -14.5q15 0 37 3t42.5 11t34.5 24t14 41q0 31 -24 48t-62 26.5t-80.5 18.5t-80.5 23.5t-62 41t-24 72.5q0 68 49.5 105.5t146.5 37.5q66 0 107.5 -20.5t63 -52.5t25.5 -69h-76
q-4 32 -31.5 55t-90.5 23q-119 0 -119 -72q0 -30 24 -46t62 -25.5t80.5 -18t80.5 -23.5t62 -42.5t24 -74.5q0 -73 -55.5 -111.5t-148.5 -38.5z" />
    <glyph glyph-name="t" unicode="t" horiz-adv-x="326" 
d="M119 0v434h-102v66h102v179h75v-179h115v-66h-115v-434h-75z" />
    <glyph glyph-name="u" unicode="u" horiz-adv-x="566" 
d="M260 -8q-51 0 -97 24.5t-74.5 73t-28.5 119.5v291h75v-289q0 -68 39.5 -109.5t100.5 -41.5q42 0 76 19.5t54.5 53.5t20.5 79v288h75v-500h-75v78q-27 -36 -66 -61t-100 -25z" />
    <glyph glyph-name="v" unicode="v" horiz-adv-x="489" 
d="M201 0l-196 500h82l158 -420l157 420h82l-195 -500h-88z" />
    <glyph glyph-name="w" unicode="w" horiz-adv-x="746" 
d="M162 0l-157 500h80l120 -407l127 407h82l127 -407l120 407h80l-157 -500h-86l-125 399l-125 -399h-86z" />
    <glyph glyph-name="x" unicode="x" horiz-adv-x="482" 
d="M4 0l193 258l-181 242h96l129 -189l128 189h96l-181 -242l194 -258h-96l-141 204l-142 -204h-95z" />
    <glyph glyph-name="y" unicode="y" horiz-adv-x="497" 
d="M117 -198l91 205l-204 493h83l161 -410l164 410h82l-296 -698h-81z" />
    <glyph glyph-name="z" unicode="z" horiz-adv-x="458" 
d="M31 0v71l299 360h-295v69h390v-70l-300 -360h300v-70h-394z" />
    <glyph glyph-name="braceleft" unicode="{" horiz-adv-x="294" 
d="M269 -133q-36 0 -66.5 4t-53.5 17.5t-36 42.5t-13 80v144q0 33 -13.5 54t-31.5 31t-34 10v46q16 0 34 10t31.5 31t13.5 54v144q0 51 13 80t36 42.5t53.5 17.5t66.5 4v-54q-60 -1 -81.5 -19.5t-21.5 -71.5v-132q0 -56 -21 -85.5t-49 -43.5q28 -13 49 -43t21 -86v-132
q0 -52 21.5 -71t81.5 -20v-54z" />
    <glyph glyph-name="bar" unicode="|" horiz-adv-x="191" 
d="M65 -179v927h61v-927h-61z" />
    <glyph glyph-name="braceright" unicode="}" horiz-adv-x="294" 
d="M25 -133v54q60 1 81.5 20t21.5 71v132q0 56 21 86t49 43q-28 14 -49 43.5t-21 85.5v132q0 53 -21.5 71.5t-81.5 19.5v54q36 0 66.5 -4t53.5 -17.5t36 -42.5t13 -80v-144q0 -33 13.5 -54t32 -31t33.5 -10v-46q-15 0 -33.5 -10t-32 -31t-13.5 -54v-144q0 -51 -13 -80
t-36 -42.5t-53.5 -17.5t-66.5 -4z" />
    <glyph glyph-name="asciitilde" unicode="~" horiz-adv-x="524" 
d="M48 215q2 18 7.5 41t17.5 44.5t33 35t54 13.5q26 0 55.5 -9t58.5 -21.5t54.5 -21.5t42.5 -9q30 0 45 14.5t21.5 32t8.5 25.5h32q-3 -18 -8.5 -41t-17 -44.5t-32 -35t-53.5 -13.5q-26 0 -56 9t-59 21t-54.5 21t-42.5 9q-31 0 -46 -14t-21 -31t-9 -26h-31z" />
    <glyph glyph-name="uni00A0" unicode="&#xa0;" horiz-adv-x="213" 
 />
    <glyph glyph-name="exclamdown" unicode="&#xa1;" horiz-adv-x="207" 
d="M76 317l-19 -479h93l-19 479h-55zM55 500v-102h97v102h-97z" />
    <glyph glyph-name="cent" unicode="&#xa2;" horiz-adv-x="574" 
d="M280 -101v93q-71 4 -123 39t-80.5 92.5t-28.5 126.5t28.5 126.5t80.5 93t123 38.5v87h36v-88q80 -6 137 -51t77 -113h-81q-16 41 -50 67t-83 30v-380q49 4 83 30.5t50 66.5h81q-20 -68 -77 -113t-137 -51v-94h-36zM280 61v378q-48 -6 -83.5 -33t-54.5 -67.5t-19 -88.5
q0 -47 19 -88t54.5 -68t83.5 -33z" />
    <glyph glyph-name="sterling" unicode="&#xa3;" horiz-adv-x="575" 
d="M48 0v61l80 9v249h-71v58h71v72q0 58 20 108.5t65 81.5t120 31q63 0 103.5 -21.5t63.5 -56t31 -74.5h-71q-10 32 -39 56.5t-85 24.5q-45 0 -72 -14t-40.5 -37t-18 -49.5t-4.5 -52.5v-69h148v-58h-148v-249h303v-70h-456z" />
    <glyph glyph-name="currency" unicode="&#xa4;" horiz-adv-x="567" 
d="M93 88l-45 45l64 64q-19 27 -30 59t-11 68q0 71 41 126l-64 65l45 45l64 -65q27 20 59 30.5t68 10.5q71 0 126 -41l65 65l44 -45l-64 -65q41 -55 41 -126q0 -36 -10.5 -68t-30.5 -59l64 -64l-44 -45l-65 65q-54 -42 -126 -42q-71 0 -127 42zM284 172q42 0 76.5 20.5
t55 55t20.5 76.5t-20.5 76.5t-55 55t-76.5 20.5t-76.5 -20.5t-55 -55t-20.5 -76.5t20.5 -76.5t55 -55t76.5 -20.5z" />
    <glyph glyph-name="yen" unicode="&#xa5;" horiz-adv-x="657" 
d="M291 0v125h-193v65h193v72l-17 27h-176v65h134l-195 308h91l200 -322l201 322h91l-196 -308h135v-65h-176l-17 -27v-72h193v-65h-193v-125h-75z" />
    <glyph glyph-name="brokenbar" unicode="&#xa6;" horiz-adv-x="191" 
d="M65 393v355h61v-355h-61zM126 177v-356h-61v356h61z" />
    <glyph glyph-name="section" unicode="&#xa7;" horiz-adv-x="519" 
d="M250 -178q-55 0 -98 22t-69 58t-30 79h69q6 -34 41 -63t90 -29q46 0 77.5 20t31.5 58q0 32 -23 57.5t-58.5 49t-76 46.5t-76.5 49t-58.5 57.5t-22.5 71.5q0 45 20 74t57 44q-17 21 -27.5 45.5t-10.5 54.5q0 47 18 77t45.5 46.5t59 23t58.5 6.5q55 0 97 -22t67 -58t29 -79
h-69q-6 35 -38.5 63.5t-88.5 28.5q-46 0 -75.5 -20t-29.5 -58q0 -31 22.5 -57t58.5 -49.5t76.5 -46.5t76 -49t58.5 -57.5t23 -71.5q0 -46 -20 -75t-58 -44q18 -20 28.5 -44.5t10.5 -54.5q0 -47 -18.5 -77t-47 -46.5t-60.5 -23t-59 -6.5zM360 109q19 9 30 25t11 41
q0 35 -24 61.5t-61 49t-78.5 45.5t-76.5 51q-19 -10 -30 -26t-11 -40q0 -35 24 -61.5t61 -49.5t78.5 -45.5t76.5 -50.5z" />
    <glyph glyph-name="dieresis" unicode="&#xa8;" horiz-adv-x="246" 
d="M0 579v83h89v-83h-89zM157 579v83h89v-83h-89z" />
    <glyph glyph-name="copyright" unicode="&#xa9;" horiz-adv-x="779" 
d="M389 -13q-71 0 -133 26.5t-109 73.5t-73.5 109t-26.5 133t26.5 133.5t73.5 109.5t109 73.5t133 26.5t133 -26.5t109.5 -73.5t74 -109.5t26.5 -133.5t-26.5 -133t-74 -109t-109.5 -73.5t-133 -26.5zM389 36q61 0 114 23t93.5 63.5t63.5 93.5t23 113q0 61 -23 114
t-63.5 93.5t-93.5 63.5t-114 23t-114 -23t-93.5 -63.5t-63 -93.5t-22.5 -114q0 -60 22.5 -113t63 -93.5t93.5 -63.5t114 -23zM389 133q-58 0 -100 25.5t-64.5 70t-22.5 100.5q0 57 22.5 101t64.5 69t100 25q68 0 118.5 -35t61.5 -107h-67q-7 37 -35.5 58t-72.5 21
q-58 0 -91 -36.5t-33 -95.5q0 -58 33 -95t91 -37q44 0 72.5 21t35.5 58h67q-11 -73 -61.5 -108t-118.5 -35z" />
    <glyph glyph-name="ordfeminine" unicode="&#xaa;" horiz-adv-x="371" 
d="M167 392q-60 0 -95 40t-35 97t35 97t95 40q33 0 56.5 -13t38.5 -34v43h52v-266h-52v43q-15 -22 -38.5 -34.5t-56.5 -12.5zM177 440q40 0 63 25.5t23 63.5t-23 63.5t-63 25.5q-43 0 -65.5 -25.5t-22.5 -63.5q0 -39 22.5 -64t65.5 -25z" />
    <glyph glyph-name="guillemotleft" unicode="&#xab;" horiz-adv-x="487" 
d="M169 57l-130 202l130 202h89l-137 -202l137 -202h-89zM353 57l-130 202l130 202h89l-137 -202l137 -202h-89z" />
    <glyph glyph-name="logicalnot" unicode="&#xac;" horiz-adv-x="593" 
d="M457 186v135h-395v68h467v-203h-72z" />
    <glyph glyph-name="uni00AD" unicode="&#xad;" horiz-adv-x="356" 
d="M55 259v73h250v-73h-250z" />
    <glyph glyph-name="registered" unicode="&#xae;" horiz-adv-x="779" 
d="M389 -13q-71 0 -133 26.5t-109 73.5t-73.5 109t-26.5 133t26.5 133.5t73.5 109.5t109 73.5t133 26.5t133 -26.5t109.5 -73.5t74 -109.5t26.5 -133.5t-26.5 -133t-74 -109t-109.5 -73.5t-133 -26.5zM389 36q61 0 114 23t93.5 63.5t63.5 93.5t23 113q0 61 -23 114
t-63.5 93.5t-93.5 63.5t-114 23t-114 -23t-93.5 -63.5t-63 -93.5t-22.5 -114q0 -60 22.5 -113t63 -93.5t93.5 -63.5t114 -23zM240 138v382h162q81 0 118.5 -31.5t37.5 -81.5q0 -34 -20 -60.5t-55 -37.5q29 -8 44 -30t20.5 -48t5.5 -46v-47h-69v38q0 19 -3.5 42.5t-19.5 41.5
t-54 18h-97v-140h-70zM310 338h87q41 0 66.5 16t25.5 46q0 28 -20.5 44.5t-73.5 16.5h-85v-123z" />
    <glyph glyph-name="macron" unicode="&#xaf;" horiz-adv-x="382" 
d="M57 582v60h264v-60h-264z" />
    <glyph glyph-name="degree" unicode="&#xb0;" horiz-adv-x="333" 
d="M166 406q-36 0 -65.5 17.5t-47 47t-17.5 65.5t17.5 66t47 47.5t65.5 17.5t66 -17.5t47.5 -47.5t17.5 -66t-17.5 -65.5t-47.5 -47t-66 -17.5zM166 463q31 0 52.5 21.5t21.5 51.5q0 31 -21.5 52.5t-52.5 21.5q-30 0 -51.5 -21.5t-21.5 -52.5q0 -30 21.5 -51.5t51.5 -21.5z
" />
    <glyph glyph-name="plusminus" unicode="&#xb1;" horiz-adv-x="550" 
d="M242 122v154h-192v65h192v154h65v-154h193v-65h-193v-154h-65zM50 0v62h450v-62h-450z" />
    <glyph glyph-name="uni00B2" unicode="&#xb2;" horiz-adv-x="357" 
d="M50 449v33q0 41 28.5 73.5t95.5 76.5q29 22 48 46t19 49q0 26 -16.5 40.5t-46.5 14.5q-28 0 -50 -19t-22 -51h-63q0 42 20.5 70t52 42.5t62.5 14.5q50 0 88 -27.5t38 -83.5q0 -49 -32 -84.5t-78 -67.5q-28 -18 -51.5 -34t-30.5 -33h194v-60h-256z" />
    <glyph glyph-name="uni00B3" unicode="&#xb3;" horiz-adv-x="366" 
d="M184 443q-40 0 -72.5 16t-51.5 43t-19 60h62q0 -29 25 -44.5t55 -15.5q28 0 51 14.5t23 44.5q0 26 -20.5 43.5t-43.5 17.5h-54v60h48q21 0 38.5 13.5t17.5 35.5q0 24 -16.5 37t-44.5 13q-31 0 -50.5 -14.5t-19.5 -37.5h-60q0 47 37 78.5t92 31.5t90 -29t35 -77
q0 -22 -13 -44t-33 -35q58 -30 58 -92q0 -33 -18 -60t-48 -43t-68 -16z" />
    <glyph glyph-name="acute" unicode="&#xb4;" horiz-adv-x="349" 
d="M86 570l61 105h107l-107 -105h-61z" />
    <glyph glyph-name="uni00B5" unicode="&#xb5;" horiz-adv-x="564" 
d="M72 -198v698h75v-289q0 -68 39.5 -109.5t100.5 -41.5q42 0 76 19.5t54.5 53.5t20.5 79v288h75v-500h-75v78q-27 -36 -64 -61t-98 -25q-79 0 -129 54v-244h-75z" />
    <glyph glyph-name="paragraph" unicode="&#xb6;" horiz-adv-x="565" 
d="M276 -141v476h-73q-46 0 -84 22.5t-60.5 60.5t-22.5 84q0 47 22.5 85t60.5 60.5t84 22.5h306v-54h-43v-757h-59v757h-72v-757h-59z" />
    <glyph glyph-name="periodcentered" unicode="&#xb7;" horiz-adv-x="203" 
d="M53 242v102h97v-102h-97z" />
    <glyph glyph-name="cedilla" unicode="&#xb8;" horiz-adv-x="300" 
d="M151 -206q-38 0 -68.5 12.5t-49.5 28.5l19 33q16 -11 37 -20.5t48 -9.5q23 0 39 8t16 28q0 15 -16 24t-37 9q-18 0 -35 -5l-21 17l69 108h43l-44 -77q12 2 22 2q38 0 65 -20.5t27 -56.5q0 -42 -34 -61.5t-80 -19.5z" />
    <glyph glyph-name="uni00B9" unicode="&#xb9;" horiz-adv-x="319" 
d="M137 449v326h-82v60h144v-386h-62z" />
    <glyph glyph-name="ordmasculine" unicode="&#xba;" horiz-adv-x="342" 
d="M171 392q-61 0 -97.5 39.5t-36.5 97.5q0 59 36.5 98t97.5 39t97.5 -39t36.5 -98q0 -58 -36.5 -97.5t-97.5 -39.5zM171 452q33 0 52 22.5t19 54.5q0 31 -18 54t-53 23t-53 -23t-18 -54t18 -54t53 -23z" />
    <glyph glyph-name="guillemotright" unicode="&#xbb;" horiz-adv-x="487" 
d="M45 57l137 202l-137 202h89l130 -202l-130 -202h-89zM229 57l137 202l-137 202h89l130 -202l-130 -202h-89z" />
    <glyph glyph-name="onequarter" unicode="&#xbc;" horiz-adv-x="729" 
d="M137 276v326h-82v60h144v-386h-62zM111 -14l420 688h64l-420 -688h-64zM633 151h52v-58h-52v-98h-62v98h-184v55l166 233h80v-230zM449 151h122v171z" />
    <glyph glyph-name="onehalf" unicode="&#xbd;" horiz-adv-x="753" 
d="M457 0v33q0 41 28.5 73.5t95.5 76.5q29 22 48 46t19 49q0 26 -16.5 40.5t-46.5 14.5q-28 0 -50 -19t-22 -51h-63q0 42 20.5 70t52 42.5t62.5 14.5q50 0 88 -27.5t38 -83.5q0 -49 -32 -84.5t-78 -67.5q-28 -18 -51.5 -34t-30.5 -33h194v-60h-256zM137 276v326h-82v60h144
v-386h-62zM111 -14l420 688h64l-420 -688h-64z" />
    <glyph glyph-name="threequarters" unicode="&#xbe;" horiz-adv-x="792" 
d="M185 270q-40 0 -72.5 16t-51.5 43t-19 60h62q0 -29 25 -44.5t55 -15.5q28 0 51 14.5t23 44.5q0 26 -20.5 43.5t-43.5 17.5h-54v60h48q21 0 38.5 13.5t17.5 35.5q0 24 -16.5 37t-44.5 13q-31 0 -50.5 -14.5t-19.5 -37.5h-60q0 47 37 78.5t92 31.5t90 -29t35 -77
q0 -22 -13 -44t-33 -35q58 -30 58 -92q0 -33 -18 -60t-48 -43t-68 -16zM174 -14l420 688h64l-420 -688h-64zM696 156h52v-58h-52v-98h-62v98h-184v55l166 233h80v-230zM512 156h122v171z" />
    <glyph glyph-name="questiondown" unicode="&#xbf;" horiz-adv-x="510" 
d="M283 317q0 -49 -17 -83.5t-42 -60t-49.5 -49t-41.5 -50t-17 -63.5q0 -25 11.5 -51t39.5 -43.5t77 -17.5t82.5 19t52 50t21.5 66h71q-3 -55 -30.5 -101.5t-76 -74.5t-114.5 -28q-72 0 -117.5 26.5t-66.5 68t-21 86.5q0 47 16.5 78.5t41 56t49.5 47.5t41.5 52.5t16.5 71.5
h73zM295 500v-102h-97v102h97z" />
    <glyph glyph-name="Agrave" unicode="&#xc0;" horiz-adv-x="662" 
d="M3 0l281 662h94l281 -662h-83l-81 192h-328l-81 -192h-83zM196 261h270l-135 323zM304 725l-107 105h107l61 -105h-61z" />
    <glyph glyph-name="Aacute" unicode="&#xc1;" horiz-adv-x="662" 
d="M3 0l281 662h94l281 -662h-83l-81 192h-328l-81 -192h-83zM196 261h270l-135 323zM297 725l61 105h107l-107 -105h-61z" />
    <glyph glyph-name="Acircumflex" unicode="&#xc2;" horiz-adv-x="662" 
d="M3 0l281 662h94l281 -662h-83l-81 192h-328l-81 -192h-83zM196 261h270l-135 323zM190 725l98 105h87l97 -105h-82l-59 54l-59 -54h-82z" />
    <glyph glyph-name="Atilde" unicode="&#xc3;" horiz-adv-x="662" 
d="M3 0l281 662h94l281 -662h-83l-81 192h-328l-81 -192h-83zM196 261h270l-135 323zM401 723q-33 0 -54.5 10t-40 20t-41.5 10t-34 -13t-16 -26h-31q5 37 26.5 67.5t70.5 30.5q32 0 53.5 -10t40 -20.5t41.5 -10.5q22 0 33.5 13.5t15.5 26.5h32q-5 -37 -26.5 -67.5
t-69.5 -30.5z" />
    <glyph glyph-name="Adieresis" unicode="&#xc4;" horiz-adv-x="662" 
d="M3 0l281 662h94l281 -662h-83l-81 192h-328l-81 -192h-83zM196 261h270l-135 323zM208 730v83h89v-83h-89zM365 730v83h89v-83h-89z" />
    <glyph glyph-name="Aring" unicode="&#xc5;" horiz-adv-x="662" 
d="M3 0l281 662h94l281 -662h-83l-81 192h-328l-81 -192h-83zM196 261h270l-135 323zM330 635q-37 0 -63 26t-26 63q0 38 26 64t63 26q38 0 64.5 -26t26.5 -64q0 -37 -26.5 -63t-64.5 -26zM330 680q19 0 32 13t13 31q0 19 -13 32t-32 13q-17 0 -30 -13t-13 -32q0 -18 13 -31
t30 -13z" />
    <glyph glyph-name="AE" unicode="&#xc6;" horiz-adv-x="1022" 
d="M-3 0l453 662h533v-72h-387v-222h343v-73h-343v-223h387v-72h-462v185h-309l-125 -185h-90zM259 254h262v336h-34z" />
    <glyph glyph-name="Ccedilla" unicode="&#xc7;" horiz-adv-x="690" 
d="M365 65q82 0 136 36t79 97h79q-31 -88 -105.5 -145t-181.5 -61l-24 -42q12 2 22 2q38 0 65 -20.5t27 -56.5q0 -42 -34 -61.5t-80 -19.5q-38 0 -68.5 12.5t-49.5 28.5l19 33q16 -11 37 -20.5t48 -9.5q23 0 39 8t16 28q0 15 -16 24t-37 9q-18 0 -35 -5l-21 17l47 74
q-90 8 -154.5 54.5t-99 120.5t-34.5 163q0 94 38.5 171t110.5 122.5t171 45.5q75 0 135 -26.5t102 -72.5t63 -107h-79q-25 61 -79 97t-136 36q-80 0 -136.5 -35.5t-85.5 -95.5t-29 -135q0 -74 29 -134.5t85.5 -96t136.5 -35.5z" />
    <glyph glyph-name="Egrave" unicode="&#xc8;" horiz-adv-x="608" 
d="M81 0v662h487v-72h-412v-222h368v-73h-368v-223h412v-72h-487zM307 725l-107 105h107l61 -105h-61z" />
    <glyph glyph-name="Eacute" unicode="&#xc9;" horiz-adv-x="608" 
d="M81 0v662h487v-72h-412v-222h368v-73h-368v-223h412v-72h-487zM300 725l61 105h107l-107 -105h-61z" />
    <glyph glyph-name="Ecircumflex" unicode="&#xca;" horiz-adv-x="608" 
d="M81 0v662h487v-72h-412v-222h368v-73h-368v-223h412v-72h-487zM193 725l98 105h87l97 -105h-82l-59 54l-59 -54h-82z" />
    <glyph glyph-name="Edieresis" unicode="&#xcb;" horiz-adv-x="608" 
d="M81 0v662h487v-72h-412v-222h368v-73h-368v-223h412v-72h-487zM211 730v83h89v-83h-89zM368 730v83h89v-83h-89z" />
    <glyph glyph-name="Igrave" unicode="&#xcc;" horiz-adv-x="237" 
d="M81 0v662h75v-662h-75zM92 725l-107 105h107l61 -105h-61z" />
    <glyph glyph-name="Iacute" unicode="&#xcd;" horiz-adv-x="237" 
d="M81 0v662h75v-662h-75zM85 725l61 105h107l-107 -105h-61z" />
    <glyph glyph-name="Icircumflex" unicode="&#xce;" horiz-adv-x="237" 
d="M81 0v662h75v-662h-75zM-22 725l98 105h87l97 -105h-82l-59 54l-59 -54h-82z" />
    <glyph glyph-name="Idieresis" unicode="&#xcf;" horiz-adv-x="237" 
d="M81 0v662h75v-662h-75zM-4 730v83h89v-83h-89zM153 730v83h89v-83h-89z" />
    <glyph glyph-name="Eth" unicode="&#xd0;" horiz-adv-x="703" 
d="M81 0v298h-74v65h74v299h279q59 0 113.5 -22.5t97.5 -65.5t68 -104t25 -139t-25 -139t-68 -104t-97.5 -65.5t-113.5 -22.5h-279zM156 71h201q71 0 123 36t80.5 95t28.5 129q0 71 -28.5 130t-80.5 94.5t-123 35.5h-201v-228h199v-65h-199v-227z" />
    <glyph glyph-name="Ntilde" unicode="&#xd1;" horiz-adv-x="733" 
d="M81 0v662h87l409 -557v557h75v-662h-87l-409 559v-559h-75zM437 723q-33 0 -54.5 10t-40 20t-41.5 10t-34 -13t-16 -26h-31q5 37 26.5 67.5t70.5 30.5q32 0 53.5 -10t40 -20.5t41.5 -10.5q22 0 33.5 13.5t15.5 26.5h32q-5 -37 -26.5 -67.5t-69.5 -30.5z" />
    <glyph glyph-name="Ograve" unicode="&#xd2;" horiz-adv-x="750" 
d="M375 -8q-75 0 -137 26t-106.5 73t-68.5 108.5t-24 131.5q0 71 24 132t68.5 108t106.5 73t137 26t137 -26t106.5 -73t68.5 -108t24 -132q0 -70 -24 -131.5t-68.5 -108.5t-106.5 -73t-137 -26zM375 65q81 0 139.5 35.5t90 96t31.5 134.5q0 75 -31.5 135t-90 95.5
t-139.5 35.5q-80 0 -139 -35.5t-90.5 -95.5t-31.5 -135q0 -74 31.5 -134.5t90.5 -96t139 -35.5zM348 725l-107 105h107l61 -105h-61z" />
    <glyph glyph-name="Oacute" unicode="&#xd3;" horiz-adv-x="750" 
d="M375 -8q-75 0 -137 26t-106.5 73t-68.5 108.5t-24 131.5q0 71 24 132t68.5 108t106.5 73t137 26t137 -26t106.5 -73t68.5 -108t24 -132q0 -70 -24 -131.5t-68.5 -108.5t-106.5 -73t-137 -26zM375 65q81 0 139.5 35.5t90 96t31.5 134.5q0 75 -31.5 135t-90 95.5
t-139.5 35.5q-80 0 -139 -35.5t-90.5 -95.5t-31.5 -135q0 -74 31.5 -134.5t90.5 -96t139 -35.5zM341 725l61 105h107l-107 -105h-61z" />
    <glyph glyph-name="Ocircumflex" unicode="&#xd4;" horiz-adv-x="750" 
d="M375 -8q-75 0 -137 26t-106.5 73t-68.5 108.5t-24 131.5q0 71 24 132t68.5 108t106.5 73t137 26t137 -26t106.5 -73t68.5 -108t24 -132q0 -70 -24 -131.5t-68.5 -108.5t-106.5 -73t-137 -26zM375 65q81 0 139.5 35.5t90 96t31.5 134.5q0 75 -31.5 135t-90 95.5
t-139.5 35.5q-80 0 -139 -35.5t-90.5 -95.5t-31.5 -135q0 -74 31.5 -134.5t90.5 -96t139 -35.5zM234 725l98 105h87l97 -105h-82l-59 54l-59 -54h-82z" />
    <glyph glyph-name="Otilde" unicode="&#xd5;" horiz-adv-x="750" 
d="M375 -8q-75 0 -137 26t-106.5 73t-68.5 108.5t-24 131.5q0 71 24 132t68.5 108t106.5 73t137 26t137 -26t106.5 -73t68.5 -108t24 -132q0 -70 -24 -131.5t-68.5 -108.5t-106.5 -73t-137 -26zM375 65q81 0 139.5 35.5t90 96t31.5 134.5q0 75 -31.5 135t-90 95.5
t-139.5 35.5q-80 0 -139 -35.5t-90.5 -95.5t-31.5 -135q0 -74 31.5 -134.5t90.5 -96t139 -35.5zM445 723q-33 0 -54.5 10t-40 20t-41.5 10t-34 -13t-16 -26h-31q5 37 26.5 67.5t70.5 30.5q32 0 53.5 -10t40 -20.5t41.5 -10.5q22 0 33.5 13.5t15.5 26.5h32
q-5 -37 -26.5 -67.5t-69.5 -30.5z" />
    <glyph glyph-name="Odieresis" unicode="&#xd6;" horiz-adv-x="750" 
d="M375 -8q-75 0 -137 26t-106.5 73t-68.5 108.5t-24 131.5q0 71 24 132t68.5 108t106.5 73t137 26t137 -26t106.5 -73t68.5 -108t24 -132q0 -70 -24 -131.5t-68.5 -108.5t-106.5 -73t-137 -26zM375 65q81 0 139.5 35.5t90 96t31.5 134.5q0 75 -31.5 135t-90 95.5
t-139.5 35.5q-80 0 -139 -35.5t-90.5 -95.5t-31.5 -135q0 -74 31.5 -134.5t90.5 -96t139 -35.5zM252 730v83h89v-83h-89zM409 730v83h89v-83h-89z" />
    <glyph glyph-name="multiply" unicode="&#xd7;" horiz-adv-x="550" 
d="M122 54l-50 50l154 153l-154 154l50 49l153 -153l154 153l49 -49l-153 -154l153 -153l-49 -50l-154 154z" />
    <glyph glyph-name="Oslash" unicode="&#xd8;" horiz-adv-x="750" 
d="M122 -40l54 93q-65 46 -101 118.5t-36 159.5q0 71 24 132t68.5 108t106.5 73t137 26q38 0 73.5 -7t66.5 -21l33 58h74l-51 -89q66 -45 103 -118.5t37 -161.5q0 -70 -24 -131.5t-68.5 -108.5t-106.5 -73t-137 -26q-40 0 -76 7.5t-68 21.5l-35 -61h-74zM114 331
q0 -67 25.5 -122.5t72.5 -91.5l266 462q-47 18 -103 18q-80 0 -139 -35.5t-90.5 -95.5t-31.5 -135zM375 65q81 0 139.5 35.5t90 96t31.5 134.5q0 68 -26.5 124.5t-75.5 92.5l-266 -463q49 -20 107 -20z" />
    <glyph glyph-name="Ugrave" unicode="&#xd9;" horiz-adv-x="709" 
d="M354 -8q-82 0 -145.5 36.5t-99.5 102.5t-36 154v377h75v-379q0 -77 29.5 -125t77 -70.5t99.5 -22.5q53 0 100 22.5t77 70.5t30 125v379h75v-377q0 -87 -36 -153t-99.5 -103t-146.5 -37zM328 725l-107 105h107l61 -105h-61z" />
    <glyph glyph-name="Uacute" unicode="&#xda;" horiz-adv-x="709" 
d="M354 -8q-82 0 -145.5 36.5t-99.5 102.5t-36 154v377h75v-379q0 -77 29.5 -125t77 -70.5t99.5 -22.5q53 0 100 22.5t77 70.5t30 125v379h75v-377q0 -87 -36 -153t-99.5 -103t-146.5 -37zM321 725l61 105h107l-107 -105h-61z" />
    <glyph glyph-name="Ucircumflex" unicode="&#xdb;" horiz-adv-x="709" 
d="M354 -8q-82 0 -145.5 36.5t-99.5 102.5t-36 154v377h75v-379q0 -77 29.5 -125t77 -70.5t99.5 -22.5q53 0 100 22.5t77 70.5t30 125v379h75v-377q0 -87 -36 -153t-99.5 -103t-146.5 -37zM214 725l98 105h87l97 -105h-82l-59 54l-59 -54h-82z" />
    <glyph glyph-name="Udieresis" unicode="&#xdc;" horiz-adv-x="709" 
d="M354 -8q-82 0 -145.5 36.5t-99.5 102.5t-36 154v377h75v-379q0 -77 29.5 -125t77 -70.5t99.5 -22.5q53 0 100 22.5t77 70.5t30 125v379h75v-377q0 -87 -36 -153t-99.5 -103t-146.5 -37zM232 730v83h89v-83h-89zM389 730v83h89v-83h-89z" />
    <glyph glyph-name="Yacute" unicode="&#xdd;" horiz-adv-x="636" 
d="M281 0v262l-278 400h91l224 -322l224 322h91l-277 -400v-262h-75zM285 725l61 105h107l-107 -105h-61z" />
    <glyph glyph-name="Thorn" unicode="&#xde;" horiz-adv-x="628" 
d="M81 0v662h75v-97h223q106 0 167 -57.5t61 -155.5t-61 -155.5t-167 -57.5h-223v-139h-75zM156 209h218q78 0 118 38t40 105q0 66 -40 104t-118 38h-218v-285z" />
    <glyph glyph-name="germandbls" unicode="&#xdf;" horiz-adv-x="557" 
d="M65 0v514q0 91 57 142.5t157 51.5q55 0 103 -19t77.5 -61t29.5 -110q0 -51 -16.5 -83.5t-41.5 -50.5t-50 -27q29 -7 62 -27t56.5 -57.5t23.5 -97.5q0 -84 -61.5 -129.5t-168.5 -45.5h-88v66h89q68 0 110.5 29t42.5 91t-50.5 100t-143.5 38v55q68 0 114.5 34.5t46.5 95.5
q0 62 -33.5 97t-102.5 35q-40 0 -71 -11.5t-49 -39.5t-18 -80v-510h-75z" />
    <glyph glyph-name="agrave" unicode="&#xe0;" horiz-adv-x="595" 
d="M276 -8q-73 0 -127.5 34.5t-84.5 93.5t-30 130q0 72 30 130.5t84.5 93t127.5 34.5q62 0 106.5 -24t72.5 -65v81h75v-500h-75v80q-28 -40 -72.5 -64t-106.5 -24zM286 60q56 0 94.5 26t58.5 69.5t20 94.5q0 52 -20 95t-58.5 69t-94.5 26q-55 0 -95 -26t-61 -69t-21 -95
q0 -51 21 -94.5t61 -69.5t95 -26zM321 570l-107 105h107l61 -105h-61z" />
    <glyph glyph-name="aacute" unicode="&#xe1;" horiz-adv-x="595" 
d="M276 -8q-73 0 -127.5 34.5t-84.5 93.5t-30 130q0 72 30 130.5t84.5 93t127.5 34.5q62 0 106.5 -24t72.5 -65v81h75v-500h-75v80q-28 -40 -72.5 -64t-106.5 -24zM286 60q56 0 94.5 26t58.5 69.5t20 94.5q0 52 -20 95t-58.5 69t-94.5 26q-55 0 -95 -26t-61 -69t-21 -95
q0 -51 21 -94.5t61 -69.5t95 -26zM244 570l61 105h107l-107 -105h-61z" />
    <glyph glyph-name="acircumflex" unicode="&#xe2;" horiz-adv-x="595" 
d="M276 -8q-73 0 -127.5 34.5t-84.5 93.5t-30 130q0 72 30 130.5t84.5 93t127.5 34.5q62 0 106.5 -24t72.5 -65v81h75v-500h-75v80q-28 -40 -72.5 -64t-106.5 -24zM286 60q56 0 94.5 26t58.5 69.5t20 94.5q0 52 -20 95t-58.5 69t-94.5 26q-55 0 -95 -26t-61 -69t-21 -95
q0 -51 21 -94.5t61 -69.5t95 -26zM157 570l98 105h87l97 -105h-82l-59 54l-59 -54h-82z" />
    <glyph glyph-name="atilde" unicode="&#xe3;" horiz-adv-x="595" 
d="M276 -8q-73 0 -127.5 34.5t-84.5 93.5t-30 130q0 72 30 130.5t84.5 93t127.5 34.5q62 0 106.5 -24t72.5 -65v81h75v-500h-75v80q-28 -40 -72.5 -64t-106.5 -24zM286 60q56 0 94.5 26t58.5 69.5t20 94.5q0 52 -20 95t-58.5 69t-94.5 26q-55 0 -95 -26t-61 -69t-21 -95
q0 -51 21 -94.5t61 -69.5t95 -26zM359 569q-33 0 -54.5 10t-40 20t-41.5 10t-34 -13t-16 -26h-31q5 37 26.5 67.5t70.5 30.5q32 0 53.5 -10t40 -20.5t41.5 -10.5q22 0 33.5 13.5t15.5 26.5h32q-5 -37 -26.5 -67.5t-69.5 -30.5z" />
    <glyph glyph-name="adieresis" unicode="&#xe4;" horiz-adv-x="595" 
d="M276 -8q-73 0 -127.5 34.5t-84.5 93.5t-30 130q0 72 30 130.5t84.5 93t127.5 34.5q62 0 106.5 -24t72.5 -65v81h75v-500h-75v80q-28 -40 -72.5 -64t-106.5 -24zM286 60q56 0 94.5 26t58.5 69.5t20 94.5q0 52 -20 95t-58.5 69t-94.5 26q-55 0 -95 -26t-61 -69t-21 -95
q0 -51 21 -94.5t61 -69.5t95 -26zM176 579v83h89v-83h-89zM333 579v83h89v-83h-89z" />
    <glyph glyph-name="aring" unicode="&#xe5;" horiz-adv-x="595" 
d="M276 -8q-73 0 -127.5 34.5t-84.5 93.5t-30 130q0 72 30 130.5t84.5 93t127.5 34.5q62 0 106.5 -24t72.5 -65v81h75v-500h-75v80q-28 -40 -72.5 -64t-106.5 -24zM286 60q56 0 94.5 26t58.5 69.5t20 94.5q0 52 -20 95t-58.5 69t-94.5 26q-55 0 -95 -26t-61 -69t-21 -95
q0 -51 21 -94.5t61 -69.5t95 -26zM297 556q-37 0 -63 26t-26 63q0 38 26 64t63 26q38 0 64.5 -26t26.5 -64q0 -37 -26.5 -63t-64.5 -26zM297 601q19 0 32 13t13 31q0 19 -13 32t-32 13q-17 0 -30 -13t-13 -32q0 -18 13 -31t30 -13z" />
    <glyph glyph-name="ae" unicode="&#xe6;" horiz-adv-x="977" 
d="M276 -8q-73 0 -127.5 34.5t-84.5 93.5t-30 130q0 72 30 130.5t84.5 93t127.5 34.5q62 0 106.5 -24t72.5 -65v81h75v-72q27 37 70 58.5t102 21.5q77 0 132.5 -34.5t85.5 -93t30 -130.5v-30h-419q6 -44 28 -80.5t60 -58t89 -21.5q56 0 93 27t56 70h80q-24 -73 -85.5 -119
t-149.5 -46q-59 0 -102 21t-70 58v-71h-75v80q-28 -40 -72.5 -64t-106.5 -24zM286 60q56 0 94.5 26t58.5 69.5t20 94.5q0 52 -20 95t-58.5 69t-94.5 26q-55 0 -95 -26t-61 -69t-21 -95q0 -51 21 -94.5t61 -69.5t95 -26zM532 290h340q-10 64 -54 107t-116 43t-115.5 -43
t-54.5 -107z" />
    <glyph glyph-name="ccedilla" unicode="&#xe7;" horiz-adv-x="544" 
d="M290 60q53 0 90.5 27t54.5 70h81q-20 -69 -77.5 -114t-139.5 -50l-24 -43q12 2 22 2q38 0 65 -20.5t27 -56.5q0 -42 -34 -61.5t-80 -19.5q-38 0 -68.5 12.5t-49.5 28.5l19 33q16 -11 37 -20.5t48 -9.5q23 0 39 8t16 28q0 15 -16 24t-37 9q-18 0 -35 -5l-21 17l47 74
q-67 6 -116.5 41.5t-76.5 92t-27 123.5q0 72 30.5 130.5t85.5 93t130 34.5q89 0 151.5 -46t84.5 -119h-81q-17 43 -54.5 70t-90.5 27q-55 0 -96 -26t-63 -69t-22 -95q0 -51 22 -94.5t63 -69.5t96 -26z" />
    <glyph glyph-name="egrave" unicode="&#xe8;" horiz-adv-x="557" 
d="M287 -8q-76 0 -133 34.5t-88.5 93.5t-31.5 130q0 72 30 130.5t86 93t132 34.5q77 0 132.5 -34.5t85.5 -93t30 -130.5v-30h-419q6 -44 28.5 -80.5t60.5 -58t88 -21.5q53 0 89 23.5t56 60.5h82q-26 -67 -82.5 -109.5t-145.5 -42.5zM112 290h340q-10 64 -54 107t-116 43
t-115.5 -43t-54.5 -107zM302 570l-107 105h107l61 -105h-61z" />
    <glyph glyph-name="eacute" unicode="&#xe9;" horiz-adv-x="557" 
d="M287 -8q-76 0 -133 34.5t-88.5 93.5t-31.5 130q0 72 30 130.5t86 93t132 34.5q77 0 132.5 -34.5t85.5 -93t30 -130.5v-30h-419q6 -44 28.5 -80.5t60.5 -58t88 -21.5q53 0 89 23.5t56 60.5h82q-26 -67 -82.5 -109.5t-145.5 -42.5zM112 290h340q-10 64 -54 107t-116 43
t-115.5 -43t-54.5 -107zM225 570l61 105h107l-107 -105h-61z" />
    <glyph glyph-name="ecircumflex" unicode="&#xea;" horiz-adv-x="557" 
d="M287 -8q-76 0 -133 34.5t-88.5 93.5t-31.5 130q0 72 30 130.5t86 93t132 34.5q77 0 132.5 -34.5t85.5 -93t30 -130.5v-30h-419q6 -44 28.5 -80.5t60.5 -58t88 -21.5q53 0 89 23.5t56 60.5h82q-26 -67 -82.5 -109.5t-145.5 -42.5zM112 290h340q-10 64 -54 107t-116 43
t-115.5 -43t-54.5 -107zM138 570l98 105h87l97 -105h-82l-59 54l-59 -54h-82z" />
    <glyph glyph-name="edieresis" unicode="&#xeb;" horiz-adv-x="557" 
d="M287 -8q-76 0 -133 34.5t-88.5 93.5t-31.5 130q0 72 30 130.5t86 93t132 34.5q77 0 132.5 -34.5t85.5 -93t30 -130.5v-30h-419q6 -44 28.5 -80.5t60.5 -58t88 -21.5q53 0 89 23.5t56 60.5h82q-26 -67 -82.5 -109.5t-145.5 -42.5zM112 290h340q-10 64 -54 107t-116 43
t-115.5 -43t-54.5 -107zM157 579v83h89v-83h-89zM314 579v83h89v-83h-89z" />
    <glyph glyph-name="igrave" unicode="&#xec;" horiz-adv-x="205" 
d="M65 0v500h75v-500h-75zM126 570l-107 105h107l61 -105h-61z" />
    <glyph glyph-name="iacute" unicode="&#xed;" horiz-adv-x="205" 
d="M65 0v500h75v-500h-75zM49 570l61 105h107l-107 -105h-61z" />
    <glyph glyph-name="icircumflex" unicode="&#xee;" horiz-adv-x="205" 
d="M65 0v500h75v-500h-75zM-38 570l98 105h87l97 -105h-82l-59 54l-59 -54h-82z" />
    <glyph glyph-name="idieresis" unicode="&#xef;" horiz-adv-x="205" 
d="M65 0v500h75v-500h-75zM-19 579v83h89v-83h-89zM138 579v83h89v-83h-89z" />
    <glyph glyph-name="eth" unicode="&#xf0;" horiz-adv-x="563" 
d="M286 -8q-82 0 -138.5 36t-85 95.5t-28.5 129.5q0 72 28 131t79.5 94.5t121.5 35.5q47 0 84 -15.5t62 -43.5q-23 46 -60 75t-71 52l-56 -37l-32 38l43 28q-16 9 -31.5 17.5t-32.5 15.5l27 71q53 -25 104 -59l75 50l32 -38l-65 -43q54 -42 96.5 -92t67 -114t24.5 -150
q0 -53 -16.5 -102.5t-48 -89t-76.5 -62.5t-103 -23zM282 59q56 0 94.5 27.5t58.5 71.5t20 95t-22 95.5t-62.5 71.5t-96.5 27q-53 0 -90 -26.5t-56 -70.5t-19 -97q0 -51 20 -95t59 -71.5t94 -27.5z" />
    <glyph glyph-name="ntilde" unicode="&#xf1;" horiz-adv-x="566" 
d="M65 0v500h75v-78q27 36 66 61t100 25q52 0 97.5 -24.5t74 -73t28.5 -119.5v-291h-75v289q0 68 -39 109.5t-101 41.5q-42 0 -76 -19t-54.5 -53.5t-20.5 -79.5v-288h-75zM344 569q-33 0 -54.5 10t-40 20t-41.5 10t-34 -13t-16 -26h-31q5 37 26.5 67.5t70.5 30.5
q32 0 53.5 -10t40 -20.5t41.5 -10.5q22 0 33.5 13.5t15.5 26.5h32q-5 -37 -26.5 -67.5t-69.5 -30.5z" />
    <glyph glyph-name="ograve" unicode="&#xf2;" horiz-adv-x="564" 
d="M282 -8q-76 0 -132 34.5t-86 93.5t-30 130q0 72 30 130.5t86 93t132 34.5q77 0 132.5 -34.5t85.5 -93t30 -130.5q0 -71 -30 -130t-85.5 -93.5t-132.5 -34.5zM282 60q56 0 94.5 26t58.5 69.5t20 94.5q0 52 -20 95t-58.5 69t-94.5 26q-55 0 -94 -26t-59 -69t-20 -95
q0 -51 20 -94.5t59 -69.5t94 -26zM305 570l-107 105h107l61 -105h-61z" />
    <glyph glyph-name="oacute" unicode="&#xf3;" horiz-adv-x="564" 
d="M282 -8q-76 0 -132 34.5t-86 93.5t-30 130q0 72 30 130.5t86 93t132 34.5q77 0 132.5 -34.5t85.5 -93t30 -130.5q0 -71 -30 -130t-85.5 -93.5t-132.5 -34.5zM282 60q56 0 94.5 26t58.5 69.5t20 94.5q0 52 -20 95t-58.5 69t-94.5 26q-55 0 -94 -26t-59 -69t-20 -95
q0 -51 20 -94.5t59 -69.5t94 -26zM228 570l61 105h107l-107 -105h-61z" />
    <glyph glyph-name="ocircumflex" unicode="&#xf4;" horiz-adv-x="564" 
d="M282 -8q-76 0 -132 34.5t-86 93.5t-30 130q0 72 30 130.5t86 93t132 34.5q77 0 132.5 -34.5t85.5 -93t30 -130.5q0 -71 -30 -130t-85.5 -93.5t-132.5 -34.5zM282 60q56 0 94.5 26t58.5 69.5t20 94.5q0 52 -20 95t-58.5 69t-94.5 26q-55 0 -94 -26t-59 -69t-20 -95
q0 -51 20 -94.5t59 -69.5t94 -26zM141 570l98 105h87l97 -105h-82l-59 54l-59 -54h-82z" />
    <glyph glyph-name="otilde" unicode="&#xf5;" horiz-adv-x="564" 
d="M282 -8q-76 0 -132 34.5t-86 93.5t-30 130q0 72 30 130.5t86 93t132 34.5q77 0 132.5 -34.5t85.5 -93t30 -130.5q0 -71 -30 -130t-85.5 -93.5t-132.5 -34.5zM282 60q56 0 94.5 26t58.5 69.5t20 94.5q0 52 -20 95t-58.5 69t-94.5 26q-55 0 -94 -26t-59 -69t-20 -95
q0 -51 20 -94.5t59 -69.5t94 -26zM343 569q-33 0 -54.5 10t-40 20t-41.5 10t-34 -13t-16 -26h-31q5 37 26.5 67.5t70.5 30.5q32 0 53.5 -10t40 -20.5t41.5 -10.5q22 0 33.5 13.5t15.5 26.5h32q-5 -37 -26.5 -67.5t-69.5 -30.5z" />
    <glyph glyph-name="odieresis" unicode="&#xf6;" horiz-adv-x="564" 
d="M282 -8q-76 0 -132 34.5t-86 93.5t-30 130q0 72 30 130.5t86 93t132 34.5q77 0 132.5 -34.5t85.5 -93t30 -130.5q0 -71 -30 -130t-85.5 -93.5t-132.5 -34.5zM282 60q56 0 94.5 26t58.5 69.5t20 94.5q0 52 -20 95t-58.5 69t-94.5 26q-55 0 -94 -26t-59 -69t-20 -95
q0 -51 20 -94.5t59 -69.5t94 -26zM160 579v83h89v-83h-89zM317 579v83h89v-83h-89z" />
    <glyph glyph-name="divide" unicode="&#xf7;" horiz-adv-x="550" 
d="M231 359v93h88v-93h-88zM38 200v69h474v-69h-474zM231 17v93h88v-93h-88z" />
    <glyph glyph-name="oslash" unicode="&#xf8;" horiz-adv-x="564" 
d="M96 -16l33 57q-46 35 -70.5 90t-24.5 119q0 72 30 130.5t86 93t132 34.5q56 0 104 -20l21 37h74l-41 -71q43 -35 66.5 -88t23.5 -116q0 -71 -30 -130t-85.5 -93.5t-132.5 -34.5q-52 0 -97 18l-15 -26h-74zM109 250q0 -43 14.5 -81t41.5 -65l186 323q-32 13 -69 13
q-55 0 -94 -26t-59 -69t-20 -95zM282 60q56 0 94.5 26t58.5 69t20 95q0 41 -13 77.5t-38 63.5l-184 -321q28 -10 62 -10z" />
    <glyph glyph-name="ugrave" unicode="&#xf9;" horiz-adv-x="566" 
d="M260 -8q-51 0 -97 24.5t-74.5 73t-28.5 119.5v291h75v-289q0 -68 39.5 -109.5t100.5 -41.5q42 0 76 19.5t54.5 53.5t20.5 79v288h75v-500h-75v78q-27 -36 -66 -61t-100 -25zM306 570l-107 105h107l61 -105h-61z" />
    <glyph glyph-name="uacute" unicode="&#xfa;" horiz-adv-x="566" 
d="M260 -8q-51 0 -97 24.5t-74.5 73t-28.5 119.5v291h75v-289q0 -68 39.5 -109.5t100.5 -41.5q42 0 76 19.5t54.5 53.5t20.5 79v288h75v-500h-75v78q-27 -36 -66 -61t-100 -25zM229 570l61 105h107l-107 -105h-61z" />
    <glyph glyph-name="ucircumflex" unicode="&#xfb;" horiz-adv-x="566" 
d="M260 -8q-51 0 -97 24.5t-74.5 73t-28.5 119.5v291h75v-289q0 -68 39.5 -109.5t100.5 -41.5q42 0 76 19.5t54.5 53.5t20.5 79v288h75v-500h-75v78q-27 -36 -66 -61t-100 -25zM142 570l98 105h87l97 -105h-82l-59 54l-59 -54h-82z" />
    <glyph glyph-name="udieresis" unicode="&#xfc;" horiz-adv-x="566" 
d="M260 -8q-51 0 -97 24.5t-74.5 73t-28.5 119.5v291h75v-289q0 -68 39.5 -109.5t100.5 -41.5q42 0 76 19.5t54.5 53.5t20.5 79v288h75v-500h-75v78q-27 -36 -66 -61t-100 -25zM161 579v83h89v-83h-89zM318 579v83h89v-83h-89z" />
    <glyph glyph-name="yacute" unicode="&#xfd;" horiz-adv-x="497" 
d="M117 -198l91 205l-204 493h83l161 -410l164 410h82l-296 -698h-81zM195 570l61 105h107l-107 -105h-61z" />
    <glyph glyph-name="thorn" unicode="&#xfe;" horiz-adv-x="594" 
d="M65 -198v898h75v-281q28 41 72.5 65t106.5 24q73 0 127.5 -34.5t84.5 -93t30 -130.5q0 -71 -30 -130t-84.5 -93.5t-127.5 -34.5q-62 0 -106.5 24t-72.5 64v-278h-75zM309 60q56 0 95.5 26t60.5 69.5t21 94.5q0 52 -21 95t-60.5 69t-95.5 26q-55 0 -94 -26t-59 -69
t-20 -95q0 -51 20 -94.5t59 -69.5t94 -26z" />
    <glyph glyph-name="ydieresis" unicode="&#xff;" horiz-adv-x="497" 
d="M117 -198l91 205l-204 493h83l161 -410l164 410h82l-296 -698h-81zM127 579v83h89v-83h-89zM284 579v83h89v-83h-89z" />
    <glyph glyph-name="Amacron" unicode="&#x100;" horiz-adv-x="662" 
d="M3 0l281 662h94l281 -662h-83l-81 192h-328l-81 -192h-83zM196 261h270l-135 323zM199 736v60h264v-60h-264z" />
    <glyph glyph-name="amacron" unicode="&#x101;" horiz-adv-x="595" 
d="M276 -8q-73 0 -127.5 34.5t-84.5 93.5t-30 130q0 72 30 130.5t84.5 93t127.5 34.5q62 0 106.5 -24t72.5 -65v81h75v-500h-75v80q-28 -40 -72.5 -64t-106.5 -24zM286 60q56 0 94.5 26t58.5 69.5t20 94.5q0 52 -20 95t-58.5 69t-94.5 26q-55 0 -95 -26t-61 -69t-21 -95
q0 -51 21 -94.5t61 -69.5t95 -26zM166 584v60h264v-60h-264z" />
    <glyph glyph-name="Abreve" unicode="&#x102;" horiz-adv-x="662" 
d="M3 0l281 662h94l281 -662h-83l-81 192h-328l-81 -192h-83zM196 261h270l-135 323zM332 717q-49 0 -84 28t-35 67q0 8 2 15l4 14h18q3 -28 30 -46.5t65 -18.5q37 0 64 18.5t30 46.5h18q6 -13 6 -29q0 -39 -34.5 -67t-83.5 -28z" />
    <glyph glyph-name="abreve" unicode="&#x103;" horiz-adv-x="595" 
d="M276 -8q-73 0 -127.5 34.5t-84.5 93.5t-30 130q0 72 30 130.5t84.5 93t127.5 34.5q62 0 106.5 -24t72.5 -65v81h75v-500h-75v80q-28 -40 -72.5 -64t-106.5 -24zM286 60q56 0 94.5 26t58.5 69.5t20 94.5q0 52 -20 95t-58.5 69t-94.5 26q-55 0 -95 -26t-61 -69t-21 -95
q0 -51 21 -94.5t61 -69.5t95 -26zM299 567q-49 0 -84 28t-35 67q0 8 2 15l4 14h18q3 -28 30 -46.5t65 -18.5q37 0 64 18.5t30 46.5h18q6 -13 6 -29q0 -39 -34.5 -67t-83.5 -28z" />
    <glyph glyph-name="Aogonek" unicode="&#x104;" horiz-adv-x="662" 
d="M3 0l281 662h94l281 -662h-83l-81 192h-328l-81 -192h-83zM196 261h270l-135 323zM487 -125q0 34 19 57.5t46.5 39t50.5 26.5h56q-15 -9 -37.5 -24t-40 -35t-17.5 -45q0 -24 19 -37t41 -13q20 0 36 11v-39q-15 -12 -35 -18t-41 -6q-37 0 -67 21t-30 62z" />
    <glyph glyph-name="aogonek" unicode="&#x105;" horiz-adv-x="595" 
d="M276 -8q-73 0 -127.5 34.5t-84.5 93.5t-30 130q0 72 30 130.5t84.5 93t127.5 34.5q62 0 106.5 -24t72.5 -65v81h75v-500h-75v80q-28 -40 -72.5 -64t-106.5 -24zM286 60q56 0 94.5 26t58.5 69.5t20 94.5q0 52 -20 95t-58.5 69t-94.5 26q-55 0 -95 -26t-61 -69t-21 -95
q0 -51 21 -94.5t61 -69.5t95 -26zM358 -123q0 34 19 57.5t46.5 39t50.5 26.5h56q-15 -9 -37.5 -24t-40 -35t-17.5 -45q0 -24 19 -37t41 -13q20 0 36 11v-39q-15 -12 -35 -18t-41 -6q-37 0 -67 21t-30 62z" />
    <glyph glyph-name="Cacute" unicode="&#x106;" horiz-adv-x="690" 
d="M359 -8q-99 0 -171 45.5t-110.5 122.5t-38.5 171t38.5 171t110.5 122.5t171 45.5q75 0 135 -26.5t102 -72.5t63 -107h-79q-25 61 -79 97t-136 36q-80 0 -136.5 -35.5t-85.5 -95.5t-29 -135q0 -74 29 -134.5t85.5 -96t136.5 -35.5q82 0 136 36t79 97h79
q-21 -60 -63 -106.5t-102 -73t-135 -26.5zM311 725l61 105h107l-107 -105h-61z" />
    <glyph glyph-name="cacute" unicode="&#x107;" horiz-adv-x="544" 
d="M280 -8q-75 0 -130 34.5t-85.5 93.5t-30.5 130q0 72 30.5 130.5t85.5 93t130 34.5q89 0 151.5 -46t84.5 -119h-81q-17 43 -54.5 70t-90.5 27q-55 0 -96 -26t-63 -69t-22 -95q0 -51 22 -94.5t63 -69.5t96 -26q53 0 90.5 27t54.5 70h81q-22 -73 -84.5 -119t-151.5 -46z
M218 570l61 105h107l-107 -105h-61z" />
    <glyph glyph-name="Ccircumflex" unicode="&#x108;" horiz-adv-x="690" 
d="M359 -8q-99 0 -171 45.5t-110.5 122.5t-38.5 171t38.5 171t110.5 122.5t171 45.5q75 0 135 -26.5t102 -72.5t63 -107h-79q-25 61 -79 97t-136 36q-80 0 -136.5 -35.5t-85.5 -95.5t-29 -135q0 -74 29 -134.5t85.5 -96t136.5 -35.5q82 0 136 36t79 97h79
q-21 -60 -63 -106.5t-102 -73t-135 -26.5zM204 725l98 105h87l97 -105h-82l-59 54l-59 -54h-82z" />
    <glyph glyph-name="ccircumflex" unicode="&#x109;" horiz-adv-x="544" 
d="M280 -8q-75 0 -130 34.5t-85.5 93.5t-30.5 130q0 72 30.5 130.5t85.5 93t130 34.5q89 0 151.5 -46t84.5 -119h-81q-17 43 -54.5 70t-90.5 27q-55 0 -96 -26t-63 -69t-22 -95q0 -51 22 -94.5t63 -69.5t96 -26q53 0 90.5 27t54.5 70h81q-22 -73 -84.5 -119t-151.5 -46z
M131 570l98 105h87l97 -105h-82l-59 54l-59 -54h-82z" />
    <glyph glyph-name="Cdotaccent" unicode="&#x10a;" horiz-adv-x="690" 
d="M359 -8q-99 0 -171 45.5t-110.5 122.5t-38.5 171t38.5 171t110.5 122.5t171 45.5q75 0 135 -26.5t102 -72.5t63 -107h-79q-25 61 -79 97t-136 36q-80 0 -136.5 -35.5t-85.5 -95.5t-29 -135q0 -74 29 -134.5t85.5 -96t136.5 -35.5q82 0 136 36t79 97h79
q-21 -60 -63 -106.5t-102 -73t-135 -26.5zM301 732v83h89v-83h-89z" />
    <glyph glyph-name="cdotaccent" unicode="&#x10b;" horiz-adv-x="544" 
d="M280 -8q-75 0 -130 34.5t-85.5 93.5t-30.5 130q0 72 30.5 130.5t85.5 93t130 34.5q89 0 151.5 -46t84.5 -119h-81q-17 43 -54.5 70t-90.5 27q-55 0 -96 -26t-63 -69t-22 -95q0 -51 22 -94.5t63 -69.5t96 -26q53 0 90.5 27t54.5 70h81q-22 -73 -84.5 -119t-151.5 -46z
M228 580v83h89v-83h-89z" />
    <glyph glyph-name="Ccaron" unicode="&#x10c;" horiz-adv-x="690" 
d="M359 -8q-99 0 -171 45.5t-110.5 122.5t-38.5 171t38.5 171t110.5 122.5t171 45.5q75 0 135 -26.5t102 -72.5t63 -107h-79q-25 61 -79 97t-136 36q-80 0 -136.5 -35.5t-85.5 -95.5t-29 -135q0 -74 29 -134.5t85.5 -96t136.5 -35.5q82 0 136 36t79 97h79
q-21 -60 -63 -106.5t-102 -73t-135 -26.5zM302 725l-98 105h82l59 -54l59 54h82l-97 -105h-87z" />
    <glyph glyph-name="ccaron" unicode="&#x10d;" horiz-adv-x="544" 
d="M280 -8q-75 0 -130 34.5t-85.5 93.5t-30.5 130q0 72 30.5 130.5t85.5 93t130 34.5q89 0 151.5 -46t84.5 -119h-81q-17 43 -54.5 70t-90.5 27q-55 0 -96 -26t-63 -69t-22 -95q0 -51 22 -94.5t63 -69.5t96 -26q53 0 90.5 27t54.5 70h81q-22 -73 -84.5 -119t-151.5 -46z
M229 570l-98 105h82l59 -54l59 54h82l-97 -105h-87z" />
    <glyph glyph-name="Dcaron" unicode="&#x10e;" horiz-adv-x="703" 
d="M81 0v662h279q59 0 113.5 -22.5t97.5 -65.5t68 -104t25 -139t-25 -139t-68 -104t-97.5 -65.5t-113.5 -22.5h-279zM156 71h201q71 0 123 36t80.5 95t28.5 129q0 71 -28.5 130t-80.5 94.5t-123 35.5h-201v-520zM309 725l-98 105h82l59 -54l59 54h82l-97 -105h-87z" />
    <glyph glyph-name="dcaron" unicode="&#x10f;" horiz-adv-x="595" 
d="M276 -8q-73 0 -127.5 34.5t-84.5 93.5t-30 130q0 72 30 130.5t84.5 93t127.5 34.5q62 0 106.5 -24t72.5 -65v281h75v-700h-75v80q-28 -40 -72.5 -64t-106.5 -24zM286 60q56 0 94.5 26t58.5 69.5t20 94.5q0 52 -20 95t-58.5 69t-94.5 26q-55 0 -95 -26t-61 -69t-21 -95
q0 -51 21 -94.5t61 -69.5t95 -26zM685 700l-35 -167h-55l14 167h76z" />
    <glyph glyph-name="Dcroat" unicode="&#x110;" horiz-adv-x="703" 
d="M81 0v298h-74v65h74v299h279q59 0 113.5 -22.5t97.5 -65.5t68 -104t25 -139t-25 -139t-68 -104t-97.5 -65.5t-113.5 -22.5h-279zM156 71h201q71 0 123 36t80.5 95t28.5 129q0 71 -28.5 130t-80.5 94.5t-123 35.5h-201v-228h199v-65h-199v-227z" />
    <glyph glyph-name="dcroat" unicode="&#x111;" horiz-adv-x="595" 
d="M276 -8q-73 0 -127.5 34.5t-84.5 93.5t-30 130q0 72 30 130.5t84.5 93t127.5 34.5q62 0 106.5 -24t72.5 -65v131h-120v66h120v84h75v-84h50v-66h-50v-550h-75v80q-28 -40 -72.5 -64t-106.5 -24zM286 60q56 0 94.5 26t58.5 69.5t20 94.5q0 52 -20 95t-58.5 69t-94.5 26
q-55 0 -95 -26t-61 -69t-21 -95q0 -51 21 -94.5t61 -69.5t95 -26z" />
    <glyph glyph-name="Emacron" unicode="&#x112;" horiz-adv-x="608" 
d="M81 0v662h487v-72h-412v-222h368v-73h-368v-223h412v-72h-487zM202 736v60h264v-60h-264z" />
    <glyph glyph-name="emacron" unicode="&#x113;" horiz-adv-x="557" 
d="M287 -8q-76 0 -133 34.5t-88.5 93.5t-31.5 130q0 72 30 130.5t86 93t132 34.5q77 0 132.5 -34.5t85.5 -93t30 -130.5v-30h-419q6 -44 28.5 -80.5t60.5 -58t88 -21.5q53 0 89 23.5t56 60.5h82q-26 -67 -82.5 -109.5t-145.5 -42.5zM112 290h340q-10 64 -54 107t-116 43
t-115.5 -43t-54.5 -107zM147 584v60h264v-60h-264z" />
    <glyph glyph-name="Ebreve" unicode="&#x114;" horiz-adv-x="608" 
d="M81 0v662h487v-72h-412v-222h368v-73h-368v-223h412v-72h-487zM335 717q-49 0 -84 28t-35 67q0 8 2 15l4 14h18q3 -28 30 -46.5t65 -18.5q37 0 64 18.5t30 46.5h18q6 -13 6 -29q0 -39 -34.5 -67t-83.5 -28z" />
    <glyph glyph-name="ebreve" unicode="&#x115;" horiz-adv-x="557" 
d="M287 -8q-76 0 -133 34.5t-88.5 93.5t-31.5 130q0 72 30 130.5t86 93t132 34.5q77 0 132.5 -34.5t85.5 -93t30 -130.5v-30h-419q6 -44 28.5 -80.5t60.5 -58t88 -21.5q53 0 89 23.5t56 60.5h82q-26 -67 -82.5 -109.5t-145.5 -42.5zM112 290h340q-10 64 -54 107t-116 43
t-115.5 -43t-54.5 -107zM280 567q-49 0 -84 28t-35 67q0 8 2 15l4 14h18q3 -28 30 -46.5t65 -18.5q37 0 64 18.5t30 46.5h18q6 -13 6 -29q0 -39 -34.5 -67t-83.5 -28z" />
    <glyph glyph-name="Edotaccent" unicode="&#x116;" horiz-adv-x="608" 
d="M81 0v662h487v-72h-412v-222h368v-73h-368v-223h412v-72h-487zM290 732v83h89v-83h-89z" />
    <glyph glyph-name="edotaccent" unicode="&#x117;" horiz-adv-x="557" 
d="M287 -8q-76 0 -133 34.5t-88.5 93.5t-31.5 130q0 72 30 130.5t86 93t132 34.5q77 0 132.5 -34.5t85.5 -93t30 -130.5v-30h-419q6 -44 28.5 -80.5t60.5 -58t88 -21.5q53 0 89 23.5t56 60.5h82q-26 -67 -82.5 -109.5t-145.5 -42.5zM112 290h340q-10 64 -54 107t-116 43
t-115.5 -43t-54.5 -107zM235 580v83h89v-83h-89z" />
    <glyph glyph-name="Eogonek" unicode="&#x118;" horiz-adv-x="608" 
d="M81 0v662h487v-72h-412v-222h368v-73h-368v-223h412v-72h-487zM396 -123q0 34 19 57.5t46.5 39t50.5 26.5h56q-15 -9 -37.5 -24t-40 -35t-17.5 -45q0 -24 19 -37t41 -13q20 0 36 11v-39q-15 -12 -35 -18t-41 -6q-37 0 -67 21t-30 62z" />
    <glyph glyph-name="eogonek" unicode="&#x119;" horiz-adv-x="557" 
d="M217 -123q0 43 26 70.5t57 44.5h-13q-76 0 -133 34.5t-88.5 93.5t-31.5 130q0 72 30 130.5t86 93t132 34.5q77 0 132.5 -34.5t85.5 -93t30 -130.5v-30h-419q6 -44 28.5 -80.5t60.5 -58t88 -21.5q53 0 89 23.5t56 60.5h82q-17 -44 -46.5 -77.5t-71.5 -52.5
q-18 -11 -42.5 -28t-42.5 -40t-18 -50q0 -24 19 -37t41 -13q20 0 36 11v-39q-15 -12 -35 -18t-41 -6q-37 0 -67 21t-30 62zM112 290h340q-10 64 -54 107t-116 43t-115.5 -43t-54.5 -107z" />
    <glyph glyph-name="Ecaron" unicode="&#x11a;" horiz-adv-x="608" 
d="M81 0v662h487v-72h-412v-222h368v-73h-368v-223h412v-72h-487zM291 725l-98 105h82l59 -54l59 54h82l-97 -105h-87z" />
    <glyph glyph-name="ecaron" unicode="&#x11b;" horiz-adv-x="557" 
d="M287 -8q-76 0 -133 34.5t-88.5 93.5t-31.5 130q0 72 30 130.5t86 93t132 34.5q77 0 132.5 -34.5t85.5 -93t30 -130.5v-30h-419q6 -44 28.5 -80.5t60.5 -58t88 -21.5q53 0 89 23.5t56 60.5h82q-26 -67 -82.5 -109.5t-145.5 -42.5zM112 290h340q-10 64 -54 107t-116 43
t-115.5 -43t-54.5 -107zM236 570l-98 105h82l59 -54l59 54h82l-97 -105h-87z" />
    <glyph glyph-name="Gcircumflex" unicode="&#x11c;" horiz-adv-x="723" 
d="M363 -8q-101 0 -173.5 45.5t-111.5 122.5t-39 171t40 171t113.5 122.5t172.5 45.5q107 0 185.5 -52.5t115.5 -135.5h-82q-30 53 -83.5 84t-129.5 31q-80 0 -138 -35.5t-88.5 -95.5t-30.5 -135q0 -74 30 -134.5t87.5 -96t137.5 -35.5q60 0 113.5 26t87 75t33.5 118h-242
v68h311v-352h-69v117q-21 -32 -54 -60.5t-79.5 -46.5t-106.5 -18zM221 725l98 105h87l97 -105h-82l-59 54l-59 -54h-82z" />
    <glyph glyph-name="gcircumflex" unicode="&#x11d;" horiz-adv-x="595" 
d="M294 -206q-94 0 -153 40.5t-80 105.5h83q15 -37 52 -57.5t94 -20.5q86 0 125.5 40.5t39.5 117.5v69q-28 -40 -72.5 -64.5t-106.5 -24.5q-73 0 -127.5 33.5t-84.5 91.5t-30 129q0 72 30 129.5t84.5 91t127.5 33.5q62 0 106.5 -23.5t72.5 -64.5v80h75v-485
q0 -107 -61.5 -164t-174.5 -57zM286 68q55 0 93.5 25t59 67.5t20.5 93.5q0 52 -20.5 94t-59 67t-93.5 25t-95 -25t-61 -67t-21 -94q0 -51 21 -93.5t61 -67.5t95 -25zM157 570l98 105h87l97 -105h-82l-59 54l-59 -54h-82z" />
    <glyph glyph-name="Gbreve" unicode="&#x11e;" horiz-adv-x="723" 
d="M363 -8q-101 0 -173.5 45.5t-111.5 122.5t-39 171t40 171t113.5 122.5t172.5 45.5q107 0 185.5 -52.5t115.5 -135.5h-82q-30 53 -83.5 84t-129.5 31q-80 0 -138 -35.5t-88.5 -95.5t-30.5 -135q0 -74 30 -134.5t87.5 -96t137.5 -35.5q60 0 113.5 26t87 75t33.5 118h-242
v68h311v-352h-69v117q-21 -32 -54 -60.5t-79.5 -46.5t-106.5 -18zM363 717q-49 0 -84 28t-35 67q0 8 2 15l4 14h18q3 -28 30 -46.5t65 -18.5q37 0 64 18.5t30 46.5h18q6 -13 6 -29q0 -39 -34.5 -67t-83.5 -28z" />
    <glyph glyph-name="gbreve" unicode="&#x11f;" horiz-adv-x="595" 
d="M294 -206q-94 0 -153 40.5t-80 105.5h83q15 -37 52 -57.5t94 -20.5q86 0 125.5 40.5t39.5 117.5v69q-28 -40 -72.5 -64.5t-106.5 -24.5q-73 0 -127.5 33.5t-84.5 91.5t-30 129q0 72 30 129.5t84.5 91t127.5 33.5q62 0 106.5 -23.5t72.5 -64.5v80h75v-485
q0 -107 -61.5 -164t-174.5 -57zM286 68q55 0 93.5 25t59 67.5t20.5 93.5q0 52 -20.5 94t-59 67t-93.5 25t-95 -25t-61 -67t-21 -94q0 -51 21 -93.5t61 -67.5t95 -25zM299 567q-49 0 -84 28t-35 67q0 8 2 15l4 14h18q3 -28 30 -46.5t65 -18.5q37 0 64 18.5t30 46.5h18
q6 -13 6 -29q0 -39 -34.5 -67t-83.5 -28z" />
    <glyph glyph-name="Gdotaccent" unicode="&#x120;" horiz-adv-x="723" 
d="M363 -8q-101 0 -173.5 45.5t-111.5 122.5t-39 171t40 171t113.5 122.5t172.5 45.5q107 0 185.5 -52.5t115.5 -135.5h-82q-30 53 -83.5 84t-129.5 31q-80 0 -138 -35.5t-88.5 -95.5t-30.5 -135q0 -74 30 -134.5t87.5 -96t137.5 -35.5q60 0 113.5 26t87 75t33.5 118h-242
v68h311v-352h-69v117q-21 -32 -54 -60.5t-79.5 -46.5t-106.5 -18zM318 732v83h89v-83h-89z" />
    <glyph glyph-name="gdotaccent" unicode="&#x121;" horiz-adv-x="595" 
d="M294 -206q-94 0 -153 40.5t-80 105.5h83q15 -37 52 -57.5t94 -20.5q86 0 125.5 40.5t39.5 117.5v69q-28 -40 -72.5 -64.5t-106.5 -24.5q-73 0 -127.5 33.5t-84.5 91.5t-30 129q0 72 30 129.5t84.5 91t127.5 33.5q62 0 106.5 -23.5t72.5 -64.5v80h75v-485
q0 -107 -61.5 -164t-174.5 -57zM286 68q55 0 93.5 25t59 67.5t20.5 93.5q0 52 -20.5 94t-59 67t-93.5 25t-95 -25t-61 -67t-21 -94q0 -51 21 -93.5t61 -67.5t95 -25zM254 580v83h89v-83h-89z" />
    <glyph glyph-name="uni0122" unicode="&#x122;" horiz-adv-x="723" 
d="M363 -8q-101 0 -173.5 45.5t-111.5 122.5t-39 171t40 171t113.5 122.5t172.5 45.5q107 0 185.5 -52.5t115.5 -135.5h-82q-30 53 -83.5 84t-129.5 31q-80 0 -138 -35.5t-88.5 -95.5t-30.5 -135q0 -74 30 -134.5t87.5 -96t137.5 -35.5q60 0 113.5 26t87 75t33.5 118h-242
v68h311v-352h-69v117q-21 -32 -54 -60.5t-79.5 -46.5t-106.5 -18zM304 -198l44 150h73l-66 -150h-51z" />
    <glyph glyph-name="uni0123" unicode="&#x123;" horiz-adv-x="595" 
d="M294 -206q-94 0 -153 40.5t-80 105.5h83q15 -37 52 -57.5t94 -20.5q86 0 125.5 40.5t39.5 117.5v69q-28 -40 -72.5 -64.5t-106.5 -24.5q-73 0 -127.5 33.5t-84.5 91.5t-30 129q0 72 30 129.5t84.5 91t127.5 33.5q62 0 106.5 -23.5t72.5 -64.5v80h75v-485
q0 -107 -61.5 -164t-174.5 -57zM286 68q55 0 93.5 25t59 67.5t20.5 93.5q0 52 -20.5 94t-59 67t-93.5 25t-95 -25t-61 -67t-21 -94q0 -51 21 -93.5t61 -67.5t95 -25zM357 729l-44 -150h-73l66 150h51z" />
    <glyph glyph-name="Hcircumflex" unicode="&#x124;" horiz-adv-x="697" 
d="M81 0v662h75v-294h385v294h75v-662h-75v295h-385v-295h-75zM208 725l98 105h87l97 -105h-82l-59 54l-59 -54h-82z" />
    <glyph glyph-name="hcircumflex" unicode="&#x125;" horiz-adv-x="566" 
d="M65 0v700h75v-278q27 36 66 61t100 25q52 0 97.5 -24.5t74 -73t28.5 -119.5v-291h-75v289q0 68 -39 109.5t-101 41.5q-42 0 -76 -19t-54.5 -53.5t-20.5 -79.5v-288h-75zM-39 763l98 105h87l97 -105h-82l-59 54l-59 -54h-82z" />
    <glyph glyph-name="Hbar" unicode="&#x126;" horiz-adv-x="697" 
d="M81 0v468h-46v70h46v124h75v-124h385v124h75v-124h46v-70h-46v-468h-75v295h-385v-295h-75zM156 368h385v100h-385v-100z" />
    <glyph glyph-name="hbar" unicode="&#x127;" horiz-adv-x="566" 
d="M65 0v546h-50v70h50v84h75v-84h120v-70h-120v-124q27 36 66 61t100 25q52 0 97.5 -24.5t74 -73t28.5 -119.5v-291h-75v289q0 68 -39 109.5t-101 41.5q-42 0 -76 -19t-54.5 -53.5t-20.5 -79.5v-288h-75z" />
    <glyph glyph-name="Itilde" unicode="&#x128;" horiz-adv-x="237" 
d="M81 0v662h75v-662h-75zM189 723q-33 0 -54.5 10t-40 20t-41.5 10t-34 -13t-16 -26h-31q5 37 26.5 67.5t70.5 30.5q32 0 53.5 -10t40 -20.5t41.5 -10.5q22 0 33.5 13.5t15.5 26.5h32q-5 -37 -26.5 -67.5t-69.5 -30.5z" />
    <glyph glyph-name="itilde" unicode="&#x129;" horiz-adv-x="205" 
d="M65 0v500h75v-500h-75zM163 569q-33 0 -54.5 10t-40 20t-41.5 10t-34 -13t-16 -26h-31q5 37 26.5 67.5t70.5 30.5q32 0 53.5 -10t40 -20.5t41.5 -10.5q22 0 33.5 13.5t15.5 26.5h32q-5 -37 -26.5 -67.5t-69.5 -30.5z" />
    <glyph glyph-name="Imacron" unicode="&#x12a;" horiz-adv-x="237" 
d="M81 0v662h75v-662h-75zM-13 736v60h264v-60h-264z" />
    <glyph glyph-name="imacron" unicode="&#x12b;" horiz-adv-x="205" 
d="M65 0v500h75v-500h-75zM-29 584v60h264v-60h-264z" />
    <glyph glyph-name="Ibreve" unicode="&#x12c;" horiz-adv-x="237" 
d="M81 0v662h75v-662h-75zM120 717q-49 0 -84 28t-35 67q0 8 2 15l4 14h18q3 -28 30 -46.5t65 -18.5q37 0 64 18.5t30 46.5h18q6 -13 6 -29q0 -39 -34.5 -67t-83.5 -28z" />
    <glyph glyph-name="ibreve" unicode="&#x12d;" horiz-adv-x="205" 
d="M65 0v500h75v-500h-75zM103 567q-49 0 -84 28t-35 67q0 8 2 15l4 14h18q3 -28 30 -46.5t65 -18.5q37 0 64 18.5t30 46.5h18q6 -13 6 -29q0 -39 -34.5 -67t-83.5 -28z" />
    <glyph glyph-name="Iogonek" unicode="&#x12e;" horiz-adv-x="237" 
d="M81 0v662h75v-662h-75zM-16 -123q0 34 19 57.5t46.5 39t50.5 26.5h56q-15 -9 -37.5 -24t-40 -35t-17.5 -45q0 -24 19 -37t41 -13q20 0 36 11v-39q-15 -12 -35 -18t-41 -6q-37 0 -67 21t-30 62z" />
    <glyph glyph-name="iogonek" unicode="&#x12f;" horiz-adv-x="205" 
d="M65 0v500h75v-500h-75zM59 580v83h89v-83h-89zM-33 -123q0 34 19 57.5t46.5 39t50.5 26.5h56q-15 -9 -37.5 -24t-40 -35t-17.5 -45q0 -24 19 -37t41 -13q20 0 36 11v-39q-15 -12 -35 -18t-41 -6q-37 0 -67 21t-30 62z" />
    <glyph glyph-name="Idotaccent" unicode="&#x130;" horiz-adv-x="237" 
d="M81 0v662h75v-662h-75zM75 732v83h89v-83h-89z" />
    <glyph glyph-name="dotlessi" unicode="&#x131;" horiz-adv-x="205" 
d="M65 0v500h75v-500h-75z" />
    <glyph glyph-name="Jcircumflex" unicode="&#x134;" horiz-adv-x="527" 
d="M236 -8q-71 0 -118.5 27.5t-72.5 70t-30 87.5h78q4 -26 21 -52t48 -43t78 -17q45 0 72.5 14.5t41 38.5t18.5 51.5t5 52.5v440h75v-443q0 -58 -20.5 -110t-68 -84.5t-127.5 -32.5zM272 725l98 105h87l97 -105h-82l-59 54l-59 -54h-82z" />
    <glyph glyph-name="jcircumflex" unicode="&#x135;" horiz-adv-x="205" 
d="M65 -198v698h75v-698h-75zM-38 570l98 105h87l97 -105h-82l-59 54l-59 -54h-82z" />
    <glyph glyph-name="uni0136" unicode="&#x136;" horiz-adv-x="641" 
d="M81 0v662h75v-345l368 345h106l-282 -266l298 -396h-94l-259 345l-137 -128v-217h-75zM263 -198l44 150h73l-66 -150h-51z" />
    <glyph glyph-name="uni0137" unicode="&#x137;" horiz-adv-x="502" 
d="M65 0v700h75v-448l241 248h105l-201 -197l216 -303h-92l-175 251l-94 -93v-158h-75zM170 -198l44 150h73l-66 -150h-51z" />
    <glyph glyph-name="kgreenlandic" unicode="&#x138;" horiz-adv-x="502" 
d="M65 0v500h75v-248l241 248h105l-201 -197l216 -303h-92l-175 251l-94 -93v-158h-75z" />
    <glyph glyph-name="Lacute" unicode="&#x139;" horiz-adv-x="533" 
d="M81 0v662h75v-590h361v-72h-436zM85 725l61 105h107l-107 -105h-61z" />
    <glyph glyph-name="lacute" unicode="&#x13a;" horiz-adv-x="205" 
d="M65 0v700h75v-700h-75zM69 763l61 105h107l-107 -105h-61z" />
    <glyph glyph-name="uni013B" unicode="&#x13b;" horiz-adv-x="533" 
d="M81 0v662h75v-590h361v-72h-436zM229 -198l44 150h73l-66 -150h-51z" />
    <glyph glyph-name="uni013C" unicode="&#x13c;" horiz-adv-x="205" 
d="M65 0v700h75v-700h-75zM22 -198l44 150h73l-66 -150h-51z" />
    <glyph glyph-name="Lcaron" unicode="&#x13d;" horiz-adv-x="533" 
d="M81 0v662h75v-590h361v-72h-436zM516 664l-35 -167h-55l14 167h76z" />
    <glyph glyph-name="lcaron" unicode="&#x13e;" horiz-adv-x="205" 
d="M65 0v700h75v-700h-75zM295 699l-35 -167h-55l14 167h76z" />
    <glyph glyph-name="Ldot" unicode="&#x13f;" horiz-adv-x="533" 
d="M81 0v662h75v-590h361v-72h-436zM336 292v102h97v-102h-97z" />
    <glyph glyph-name="ldot" unicode="&#x140;" horiz-adv-x="205" 
d="M65 0v700h75v-700h-75zM159 292v102h97v-102h-97z" />
    <glyph glyph-name="Lslash" unicode="&#x141;" horiz-adv-x="533" 
d="M81 0v294l-74 -39v73l74 39v295h75v-256l185 96v-73l-185 -96v-261h361v-72h-436z" />
    <glyph glyph-name="lslash" unicode="&#x142;" horiz-adv-x="205" 
d="M65 0v354l-65 -34v73l65 34v273h75v-234l65 34v-73l-65 -34v-393h-75z" />
    <glyph glyph-name="Nacute" unicode="&#x143;" horiz-adv-x="733" 
d="M81 0v662h87l409 -557v557h75v-662h-87l-409 559v-559h-75zM333 725l61 105h107l-107 -105h-61z" />
    <glyph glyph-name="nacute" unicode="&#x144;" horiz-adv-x="566" 
d="M65 0v500h75v-78q27 36 66 61t100 25q52 0 97.5 -24.5t74 -73t28.5 -119.5v-291h-75v289q0 68 -39 109.5t-101 41.5q-42 0 -76 -19t-54.5 -53.5t-20.5 -79.5v-288h-75zM229 570l61 105h107l-107 -105h-61z" />
    <glyph glyph-name="uni0145" unicode="&#x145;" horiz-adv-x="733" 
d="M81 0v662h87l409 -557v557h75v-662h-87l-409 559v-559h-75zM309 -198l44 150h73l-66 -150h-51z" />
    <glyph glyph-name="uni0146" unicode="&#x146;" horiz-adv-x="566" 
d="M65 0v500h75v-78q27 36 66 61t100 25q52 0 97.5 -24.5t74 -73t28.5 -119.5v-291h-75v289q0 68 -39 109.5t-101 41.5q-42 0 -76 -19t-54.5 -53.5t-20.5 -79.5v-288h-75zM202 -198l44 150h73l-66 -150h-51z" />
    <glyph glyph-name="Ncaron" unicode="&#x147;" horiz-adv-x="733" 
d="M81 0v662h87l409 -557v557h75v-662h-87l-409 559v-559h-75zM324 725l-98 105h82l59 -54l59 54h82l-97 -105h-87z" />
    <glyph glyph-name="ncaron" unicode="&#x148;" horiz-adv-x="566" 
d="M65 0v500h75v-78q27 36 66 61t100 25q52 0 97.5 -24.5t74 -73t28.5 -119.5v-291h-75v289q0 68 -39 109.5t-101 41.5q-42 0 -76 -19t-54.5 -53.5t-20.5 -79.5v-288h-75zM240 570l-98 105h82l59 -54l59 54h82l-97 -105h-87z" />
    <glyph glyph-name="Eng" unicode="&#x14a;" horiz-adv-x="658" 
d="M81 0v661h75v-78q36 45 87.5 66.5t103.5 21.5q57 0 108.5 -22t85 -67.5t36.5 -117.5v0v-485v0q-1 -47 -18 -89.5t-56 -69t-104 -26.5q-56 0 -95 24.5t-59.5 62.5t-24.5 78h78q3 -21 15 -42.5t33.5 -35.5t52.5 -14q46 0 67.5 19.5t28.5 47.5t7 53v463q0 56 -25.5 88
t-65.5 46t-84 14q-43 0 -82 -16t-64 -48.5t-25 -81.5v-452h-75z" />
    <glyph glyph-name="eng" unicode="&#x14b;" horiz-adv-x="568" 
d="M65 0v500h75v-78q27 36 66 61t100 25q52 0 97.5 -24.5t74 -73t28.5 -119.5v-341q0 -39 -15 -74.5t-49 -58.5t-92 -23q-49 0 -82.5 22.5t-51.5 57.5t-21 71h75q3 -18 13 -37.5t27.5 -33t41.5 -13.5q33 0 50 15.5t23 37t6 39.5v336q0 68 -39 109.5t-101 41.5q-42 0 -76 -19
t-54.5 -53.5t-20.5 -79.5v-288h-75z" />
    <glyph glyph-name="Omacron" unicode="&#x14c;" horiz-adv-x="750" 
d="M375 -8q-75 0 -137 26t-106.5 73t-68.5 108.5t-24 131.5q0 71 24 132t68.5 108t106.5 73t137 26t137 -26t106.5 -73t68.5 -108t24 -132q0 -70 -24 -131.5t-68.5 -108.5t-106.5 -73t-137 -26zM375 65q81 0 139.5 35.5t90 96t31.5 134.5q0 75 -31.5 135t-90 95.5
t-139.5 35.5q-80 0 -139 -35.5t-90.5 -95.5t-31.5 -135q0 -74 31.5 -134.5t90.5 -96t139 -35.5zM243 736v60h264v-60h-264z" />
    <glyph glyph-name="omacron" unicode="&#x14d;" horiz-adv-x="564" 
d="M282 -8q-76 0 -132 34.5t-86 93.5t-30 130q0 72 30 130.5t86 93t132 34.5q77 0 132.5 -34.5t85.5 -93t30 -130.5q0 -71 -30 -130t-85.5 -93.5t-132.5 -34.5zM282 60q56 0 94.5 26t58.5 69.5t20 94.5q0 52 -20 95t-58.5 69t-94.5 26q-55 0 -94 -26t-59 -69t-20 -95
q0 -51 20 -94.5t59 -69.5t94 -26zM150 584v60h264v-60h-264z" />
    <glyph glyph-name="Obreve" unicode="&#x14e;" horiz-adv-x="750" 
d="M375 -8q-75 0 -137 26t-106.5 73t-68.5 108.5t-24 131.5q0 71 24 132t68.5 108t106.5 73t137 26t137 -26t106.5 -73t68.5 -108t24 -132q0 -70 -24 -131.5t-68.5 -108.5t-106.5 -73t-137 -26zM375 65q81 0 139.5 35.5t90 96t31.5 134.5q0 75 -31.5 135t-90 95.5
t-139.5 35.5q-80 0 -139 -35.5t-90.5 -95.5t-31.5 -135q0 -74 31.5 -134.5t90.5 -96t139 -35.5zM376 717q-49 0 -84 28t-35 67q0 8 2 15l4 14h18q3 -28 30 -46.5t65 -18.5q37 0 64 18.5t30 46.5h18q6 -13 6 -29q0 -39 -34.5 -67t-83.5 -28z" />
    <glyph glyph-name="obreve" unicode="&#x14f;" horiz-adv-x="564" 
d="M282 -8q-76 0 -132 34.5t-86 93.5t-30 130q0 72 30 130.5t86 93t132 34.5q77 0 132.5 -34.5t85.5 -93t30 -130.5q0 -71 -30 -130t-85.5 -93.5t-132.5 -34.5zM282 60q56 0 94.5 26t58.5 69.5t20 94.5q0 52 -20 95t-58.5 69t-94.5 26q-55 0 -94 -26t-59 -69t-20 -95
q0 -51 20 -94.5t59 -69.5t94 -26zM283 567q-49 0 -84 28t-35 67q0 8 2 15l4 14h18q3 -28 30 -46.5t65 -18.5q37 0 64 18.5t30 46.5h18q6 -13 6 -29q0 -39 -34.5 -67t-83.5 -28z" />
    <glyph glyph-name="Ohungarumlaut" unicode="&#x150;" horiz-adv-x="750" 
d="M375 -8q-75 0 -137 26t-106.5 73t-68.5 108.5t-24 131.5q0 71 24 132t68.5 108t106.5 73t137 26t137 -26t106.5 -73t68.5 -108t24 -132q0 -70 -24 -131.5t-68.5 -108.5t-106.5 -73t-137 -26zM375 65q81 0 139.5 35.5t90 96t31.5 134.5q0 75 -31.5 135t-90 95.5
t-139.5 35.5q-80 0 -139 -35.5t-90.5 -95.5t-31.5 -135q0 -74 31.5 -134.5t90.5 -96t139 -35.5zM243 715l61 105h107l-107 -105h-61zM399 715l61 105h107l-107 -105h-61z" />
    <glyph glyph-name="ohungarumlaut" unicode="&#x151;" horiz-adv-x="564" 
d="M282 -8q-76 0 -132 34.5t-86 93.5t-30 130q0 72 30 130.5t86 93t132 34.5q77 0 132.5 -34.5t85.5 -93t30 -130.5q0 -71 -30 -130t-85.5 -93.5t-132.5 -34.5zM282 60q56 0 94.5 26t58.5 69.5t20 94.5q0 52 -20 95t-58.5 69t-94.5 26q-55 0 -94 -26t-59 -69t-20 -95
q0 -51 20 -94.5t59 -69.5t94 -26zM146 570l61 105h107l-107 -105h-61zM302 570l61 105h107l-107 -105h-61z" />
    <glyph glyph-name="OE" unicode="&#x152;" horiz-adv-x="1144" 
d="M365 -8q-100 0 -173.5 45.5t-113 122.5t-39.5 171t39.5 171t113 122.5t173.5 45.5q83 0 145 -31.5t102 -85.5v109h492v-72h-417v-223h373v-73h-373v-222h417v-72h-492v108q-40 -53 -102 -84.5t-145 -31.5zM365 65q81 0 137 35.5t85 96t29 134.5q0 75 -29 135t-85 95.5
t-137 35.5q-80 0 -136.5 -35.5t-85.5 -95.5t-29 -135q0 -74 29 -134.5t85.5 -96t136.5 -35.5z" />
    <glyph glyph-name="oe" unicode="&#x153;" horiz-adv-x="972" 
d="M282 -8q-76 0 -132 34.5t-86 93.5t-30 130q0 72 30 130.5t86 93t132 34.5q74 0 126.5 -33.5t80.5 -88.5q29 55 81 88.5t127 33.5q77 0 132.5 -34.5t85.5 -93t30 -130.5v-30h-419q6 -44 28 -80.5t60 -58t89 -21.5q56 0 93 27t56 70h80q-24 -73 -85.5 -119t-149.5 -46
q-75 0 -127 33t-81 88q-28 -55 -80.5 -88t-126.5 -33zM282 60q56 0 94.5 26t58.5 69.5t20 94.5q0 52 -20 95t-58.5 69t-94.5 26q-55 0 -94 -26t-59 -69t-20 -95q0 -51 20 -94.5t59 -69.5t94 -26zM527 290h340q-10 64 -54 107t-116 43t-115.5 -43t-54.5 -107z" />
    <glyph glyph-name="Racute" unicode="&#x154;" horiz-adv-x="669" 
d="M81 0v662h317q102 0 162.5 -56t60.5 -151q0 -64 -24.5 -102t-61.5 -57.5t-74 -28.5l174 -267h-89l-160 254h-230v-254h-75zM156 325h229q36 0 73 11t62.5 39.5t25.5 79.5q0 63 -43 99.5t-114 36.5h-233v-266zM301 725l61 105h107l-107 -105h-61z" />
    <glyph glyph-name="racute" unicode="&#x155;" horiz-adv-x="345" 
d="M65 0v500h75v-123q4 13 15.5 34.5t33.5 43.5t55.5 37.5t79.5 15.5h5v-75h-9q-56 0 -96.5 -30.5t-62 -79t-21.5 -103.5v-220h-75zM119 570l61 105h107l-107 -105h-61z" />
    <glyph glyph-name="uni0156" unicode="&#x156;" horiz-adv-x="669" 
d="M81 0v662h317q102 0 162.5 -56t60.5 -151q0 -64 -24.5 -102t-61.5 -57.5t-74 -28.5l174 -267h-89l-160 254h-230v-254h-75zM156 325h229q36 0 73 11t62.5 39.5t25.5 79.5q0 63 -43 99.5t-114 36.5h-233v-266zM277 -198l44 150h73l-66 -150h-51z" />
    <glyph glyph-name="uni0157" unicode="&#x157;" horiz-adv-x="345" 
d="M65 0v500h75v-123q4 13 15.5 34.5t33.5 43.5t55.5 37.5t79.5 15.5h5v-75h-9q-56 0 -96.5 -30.5t-62 -79t-21.5 -103.5v-220h-75zM22 -198l44 150h73l-66 -150h-51z" />
    <glyph glyph-name="Rcaron" unicode="&#x158;" horiz-adv-x="669" 
d="M81 0v662h317q102 0 162.5 -56t60.5 -151q0 -64 -24.5 -102t-61.5 -57.5t-74 -28.5l174 -267h-89l-160 254h-230v-254h-75zM156 325h229q36 0 73 11t62.5 39.5t25.5 79.5q0 63 -43 99.5t-114 36.5h-233v-266zM292 725l-98 105h82l59 -54l59 54h82l-97 -105h-87z" />
    <glyph glyph-name="rcaron" unicode="&#x159;" horiz-adv-x="345" 
d="M65 0v500h75v-123q4 13 15.5 34.5t33.5 43.5t55.5 37.5t79.5 15.5h5v-75h-9q-56 0 -96.5 -30.5t-62 -79t-21.5 -103.5v-220h-75zM130 570l-98 105h82l59 -54l59 54h82l-97 -105h-87z" />
    <glyph glyph-name="Sacute" unicode="&#x15a;" horiz-adv-x="615" 
d="M318 -8q-98 0 -159 26.5t-91.5 73.5t-35.5 106h78q3 -48 32 -77.5t76.5 -43.5t104.5 -14q84 0 133 29.5t49 87.5q0 35 -24.5 56.5t-65 35.5t-88.5 25.5t-96.5 24.5t-89 33t-65 51.5t-24.5 80.5q0 81 62.5 132t186.5 51q88 0 145 -26.5t85.5 -69.5t31.5 -93h-77
q-6 50 -50 84.5t-135 34.5q-56 0 -91 -11t-53.5 -28.5t-25 -36.5t-6.5 -36q0 -33 24.5 -53.5t65 -34t89.5 -24.5t97.5 -24.5t89 -34t65 -52.5t24.5 -82q0 -92 -70 -141.5t-192 -49.5zM274 725l61 105h107l-107 -105h-61z" />
    <glyph glyph-name="sacute" unicode="&#x15b;" horiz-adv-x="482" 
d="M247 -8q-69 0 -116.5 23t-72.5 60.5t-28 81.5h78q3 -25 17.5 -48.5t44.5 -38t78 -14.5q15 0 37 3t42.5 11t34.5 24t14 41q0 31 -24 48t-62 26.5t-80.5 18.5t-80.5 23.5t-62 41t-24 72.5q0 68 49.5 105.5t146.5 37.5q66 0 107.5 -20.5t63 -52.5t25.5 -69h-76
q-4 32 -31.5 55t-90.5 23q-119 0 -119 -72q0 -30 24 -46t62 -25.5t80.5 -18t80.5 -23.5t62 -42.5t24 -74.5q0 -73 -55.5 -111.5t-148.5 -38.5zM187 570l61 105h107l-107 -105h-61z" />
    <glyph glyph-name="Scircumflex" unicode="&#x15c;" horiz-adv-x="615" 
d="M318 -8q-98 0 -159 26.5t-91.5 73.5t-35.5 106h78q3 -48 32 -77.5t76.5 -43.5t104.5 -14q84 0 133 29.5t49 87.5q0 35 -24.5 56.5t-65 35.5t-88.5 25.5t-96.5 24.5t-89 33t-65 51.5t-24.5 80.5q0 81 62.5 132t186.5 51q88 0 145 -26.5t85.5 -69.5t31.5 -93h-77
q-6 50 -50 84.5t-135 34.5q-56 0 -91 -11t-53.5 -28.5t-25 -36.5t-6.5 -36q0 -33 24.5 -53.5t65 -34t89.5 -24.5t97.5 -24.5t89 -34t65 -52.5t24.5 -82q0 -92 -70 -141.5t-192 -49.5zM167 725l98 105h87l97 -105h-82l-59 54l-59 -54h-82z" />
    <glyph glyph-name="scircumflex" unicode="&#x15d;" horiz-adv-x="482" 
d="M247 -8q-69 0 -116.5 23t-72.5 60.5t-28 81.5h78q3 -25 17.5 -48.5t44.5 -38t78 -14.5q15 0 37 3t42.5 11t34.5 24t14 41q0 31 -24 48t-62 26.5t-80.5 18.5t-80.5 23.5t-62 41t-24 72.5q0 68 49.5 105.5t146.5 37.5q66 0 107.5 -20.5t63 -52.5t25.5 -69h-76
q-4 32 -31.5 55t-90.5 23q-119 0 -119 -72q0 -30 24 -46t62 -25.5t80.5 -18t80.5 -23.5t62 -42.5t24 -74.5q0 -73 -55.5 -111.5t-148.5 -38.5zM100 570l98 105h87l97 -105h-82l-59 54l-59 -54h-82z" />
    <glyph glyph-name="Scedilla" unicode="&#x15e;" horiz-adv-x="615" 
d="M318 -8q-98 0 -159 26.5t-91.5 73.5t-35.5 106h78q3 -48 32 -77.5t76.5 -43.5t104.5 -14q84 0 133 29.5t49 87.5q0 35 -24.5 56.5t-65 35.5t-88.5 25.5t-96.5 24.5t-89 33t-65 51.5t-24.5 80.5q0 81 62.5 132t186.5 51q88 0 145 -26.5t85.5 -69.5t31.5 -93h-77
q-6 50 -50 84.5t-135 34.5q-56 0 -91 -11t-53.5 -28.5t-25 -36.5t-6.5 -36q0 -33 24.5 -53.5t65 -34t89.5 -24.5t97.5 -24.5t89 -34t65 -52.5t24.5 -82q0 -92 -70 -141.5t-192 -49.5zM324 -206q-38 0 -68.5 12.5t-49.5 28.5l19 33q16 -11 37 -20.5t48 -9.5q23 0 39 8t16 28
q0 15 -16 24t-37 9q-18 0 -35 -5l-21 17l69 108h43l-44 -77q12 2 22 2q38 0 65 -20.5t27 -56.5q0 -42 -34 -61.5t-80 -19.5z" />
    <glyph glyph-name="scedilla" unicode="&#x15f;" horiz-adv-x="482" 
d="M247 -8q-69 0 -116.5 23t-72.5 60.5t-28 81.5h78q3 -25 17.5 -48.5t44.5 -38t78 -14.5q15 0 37 3t42.5 11t34.5 24t14 41q0 31 -24 48t-62 26.5t-80.5 18.5t-80.5 23.5t-62 41t-24 72.5q0 68 49.5 105.5t146.5 37.5q66 0 107.5 -20.5t63 -52.5t25.5 -69h-76
q-4 32 -31.5 55t-90.5 23q-119 0 -119 -72q0 -30 24 -46t62 -25.5t80.5 -18t80.5 -23.5t62 -42.5t24 -74.5q0 -73 -55.5 -111.5t-148.5 -38.5zM244 -206q-38 0 -68.5 12.5t-49.5 28.5l19 33q16 -11 37 -20.5t48 -9.5q23 0 39 8t16 28q0 15 -16 24t-37 9q-18 0 -35 -5l-21 17
l69 108h43l-44 -77q12 2 22 2q38 0 65 -20.5t27 -56.5q0 -42 -34 -61.5t-80 -19.5z" />
    <glyph glyph-name="Scaron" unicode="&#x160;" horiz-adv-x="615" 
d="M318 -8q-98 0 -159 26.5t-91.5 73.5t-35.5 106h78q3 -48 32 -77.5t76.5 -43.5t104.5 -14q84 0 133 29.5t49 87.5q0 35 -24.5 56.5t-65 35.5t-88.5 25.5t-96.5 24.5t-89 33t-65 51.5t-24.5 80.5q0 81 62.5 132t186.5 51q88 0 145 -26.5t85.5 -69.5t31.5 -93h-77
q-6 50 -50 84.5t-135 34.5q-56 0 -91 -11t-53.5 -28.5t-25 -36.5t-6.5 -36q0 -33 24.5 -53.5t65 -34t89.5 -24.5t97.5 -24.5t89 -34t65 -52.5t24.5 -82q0 -92 -70 -141.5t-192 -49.5zM265 725l-98 105h82l59 -54l59 54h82l-97 -105h-87z" />
    <glyph glyph-name="scaron" unicode="&#x161;" horiz-adv-x="482" 
d="M247 -8q-69 0 -116.5 23t-72.5 60.5t-28 81.5h78q3 -25 17.5 -48.5t44.5 -38t78 -14.5q15 0 37 3t42.5 11t34.5 24t14 41q0 31 -24 48t-62 26.5t-80.5 18.5t-80.5 23.5t-62 41t-24 72.5q0 68 49.5 105.5t146.5 37.5q66 0 107.5 -20.5t63 -52.5t25.5 -69h-76
q-4 32 -31.5 55t-90.5 23q-119 0 -119 -72q0 -30 24 -46t62 -25.5t80.5 -18t80.5 -23.5t62 -42.5t24 -74.5q0 -73 -55.5 -111.5t-148.5 -38.5zM198 570l-98 105h82l59 -54l59 54h82l-97 -105h-87z" />
    <glyph glyph-name="uni0162" unicode="&#x162;" horiz-adv-x="565" 
d="M245 0v591h-231v71h537v-71h-231v-591h-75zM273 -206q-38 0 -68.5 12.5t-49.5 28.5l19 33q16 -11 37 -20.5t48 -9.5q23 0 39 8t16 28q0 15 -16 24t-37 9q-18 0 -35 -5l-21 17l69 108h43l-44 -77q12 2 22 2q38 0 65 -20.5t27 -56.5q0 -42 -34 -61.5t-80 -19.5z" />
    <glyph glyph-name="uni0163" unicode="&#x163;" horiz-adv-x="326" 
d="M119 0v434h-102v66h102v179h75v-179h115v-66h-115v-434h-75zM159 -206q-38 0 -68.5 12.5t-49.5 28.5l19 33q16 -11 37 -20.5t48 -9.5q23 0 39 8t16 28q0 15 -16 24t-37 9q-18 0 -35 -5l-21 17l69 108h43l-44 -77q12 2 22 2q38 0 65 -20.5t27 -56.5q0 -42 -34 -61.5
t-80 -19.5z" />
    <glyph glyph-name="Tcaron" unicode="&#x164;" horiz-adv-x="565" 
d="M245 0v591h-231v71h537v-71h-231v-591h-75zM240 725l-98 105h82l59 -54l59 54h82l-97 -105h-87z" />
    <glyph glyph-name="tcaron" unicode="&#x165;" horiz-adv-x="326" 
d="M119 0v434h-102v66h102v179h75v-179h115v-66h-115v-434h-75zM416 700l-35 -167h-55l14 167h76z" />
    <glyph glyph-name="Tbar" unicode="&#x166;" horiz-adv-x="565" 
d="M551 591h-231v-225h146v-70h-146v-296h-75v296h-146v70h146v225h-231v71h537v-71z" />
    <glyph glyph-name="tbar" unicode="&#x167;" horiz-adv-x="326" 
d="M119 0v243h-86v65h86v126h-102v66h102v179h75v-179h115v-66h-115v-126h86v-65h-86v-243h-75z" />
    <glyph glyph-name="Utilde" unicode="&#x168;" horiz-adv-x="709" 
d="M354 -8q-82 0 -145.5 36.5t-99.5 102.5t-36 154v377h75v-379q0 -77 29.5 -125t77 -70.5t99.5 -22.5q53 0 100 22.5t77 70.5t30 125v379h75v-377q0 -87 -36 -153t-99.5 -103t-146.5 -37zM425 723q-33 0 -54.5 10t-40 20t-41.5 10t-34 -13t-16 -26h-31q5 37 26.5 67.5
t70.5 30.5q32 0 53.5 -10t40 -20.5t41.5 -10.5q22 0 33.5 13.5t15.5 26.5h32q-5 -37 -26.5 -67.5t-69.5 -30.5z" />
    <glyph glyph-name="utilde" unicode="&#x169;" horiz-adv-x="566" 
d="M260 -8q-51 0 -97 24.5t-74.5 73t-28.5 119.5v291h75v-289q0 -68 39.5 -109.5t100.5 -41.5q42 0 76 19.5t54.5 53.5t20.5 79v288h75v-500h-75v78q-27 -36 -66 -61t-100 -25zM344 569q-33 0 -54.5 10t-40 20t-41.5 10t-34 -13t-16 -26h-31q5 37 26.5 67.5t70.5 30.5
q32 0 53.5 -10t40 -20.5t41.5 -10.5q22 0 33.5 13.5t15.5 26.5h32q-5 -37 -26.5 -67.5t-69.5 -30.5z" />
    <glyph glyph-name="Umacron" unicode="&#x16a;" horiz-adv-x="709" 
d="M354 -8q-82 0 -145.5 36.5t-99.5 102.5t-36 154v377h75v-379q0 -77 29.5 -125t77 -70.5t99.5 -22.5q53 0 100 22.5t77 70.5t30 125v379h75v-377q0 -87 -36 -153t-99.5 -103t-146.5 -37zM223 736v60h264v-60h-264z" />
    <glyph glyph-name="umacron" unicode="&#x16b;" horiz-adv-x="566" 
d="M260 -8q-51 0 -97 24.5t-74.5 73t-28.5 119.5v291h75v-289q0 -68 39.5 -109.5t100.5 -41.5q42 0 76 19.5t54.5 53.5t20.5 79v288h75v-500h-75v78q-27 -36 -66 -61t-100 -25zM151 584v60h264v-60h-264z" />
    <glyph glyph-name="Ubreve" unicode="&#x16c;" horiz-adv-x="709" 
d="M354 -8q-82 0 -145.5 36.5t-99.5 102.5t-36 154v377h75v-379q0 -77 29.5 -125t77 -70.5t99.5 -22.5q53 0 100 22.5t77 70.5t30 125v379h75v-377q0 -87 -36 -153t-99.5 -103t-146.5 -37zM356 717q-49 0 -84 28t-35 67q0 8 2 15l4 14h18q3 -28 30 -46.5t65 -18.5
q37 0 64 18.5t30 46.5h18q6 -13 6 -29q0 -39 -34.5 -67t-83.5 -28z" />
    <glyph glyph-name="ubreve" unicode="&#x16d;" horiz-adv-x="566" 
d="M260 -8q-51 0 -97 24.5t-74.5 73t-28.5 119.5v291h75v-289q0 -68 39.5 -109.5t100.5 -41.5q42 0 76 19.5t54.5 53.5t20.5 79v288h75v-500h-75v78q-27 -36 -66 -61t-100 -25zM284 567q-49 0 -84 28t-35 67q0 8 2 15l4 14h18q3 -28 30 -46.5t65 -18.5q37 0 64 18.5t30 46.5
h18q6 -13 6 -29q0 -39 -34.5 -67t-83.5 -28z" />
    <glyph glyph-name="Uring" unicode="&#x16e;" horiz-adv-x="709" 
d="M354 -8q-82 0 -145.5 36.5t-99.5 102.5t-36 154v377h75v-379q0 -77 29.5 -125t77 -70.5t99.5 -22.5q53 0 100 22.5t77 70.5t30 125v379h75v-377q0 -87 -36 -153t-99.5 -103t-146.5 -37zM354 635q-37 0 -63 26t-26 63q0 38 26 64t63 26q38 0 64.5 -26t26.5 -64
q0 -37 -26.5 -63t-64.5 -26zM354 680q19 0 32 13t13 31q0 19 -13 32t-32 13q-17 0 -30 -13t-13 -32q0 -18 13 -31t30 -13z" />
    <glyph glyph-name="uring" unicode="&#x16f;" horiz-adv-x="566" 
d="M260 -8q-51 0 -97 24.5t-74.5 73t-28.5 119.5v291h75v-289q0 -68 39.5 -109.5t100.5 -41.5q42 0 76 19.5t54.5 53.5t20.5 79v288h75v-500h-75v78q-27 -36 -66 -61t-100 -25zM282 556q-37 0 -63 26t-26 63q0 38 26 64t63 26q38 0 64.5 -26t26.5 -64q0 -37 -26.5 -63
t-64.5 -26zM282 601q19 0 32 13t13 31q0 19 -13 32t-32 13q-17 0 -30 -13t-13 -32q0 -18 13 -31t30 -13z" />
    <glyph glyph-name="Uhungarumlaut" unicode="&#x170;" horiz-adv-x="709" 
d="M354 -8q-82 0 -145.5 36.5t-99.5 102.5t-36 154v377h75v-379q0 -77 29.5 -125t77 -70.5t99.5 -22.5q53 0 100 22.5t77 70.5t30 125v379h75v-377q0 -87 -36 -153t-99.5 -103t-146.5 -37zM223 715l61 105h107l-107 -105h-61zM379 715l61 105h107l-107 -105h-61z" />
    <glyph glyph-name="uhungarumlaut" unicode="&#x171;" horiz-adv-x="566" 
d="M260 -8q-51 0 -97 24.5t-74.5 73t-28.5 119.5v291h75v-289q0 -68 39.5 -109.5t100.5 -41.5q42 0 76 19.5t54.5 53.5t20.5 79v288h75v-500h-75v78q-27 -36 -66 -61t-100 -25zM147 570l61 105h107l-107 -105h-61zM303 570l61 105h107l-107 -105h-61z" />
    <glyph glyph-name="Uogonek" unicode="&#x172;" horiz-adv-x="709" 
d="M561 662h75v-377q0 -78 -29 -139.5t-81 -100t-122 -49.5q-16 -10 -33.5 -23.5t-29.5 -30.5t-12 -38q0 -24 19 -37t41 -13q20 0 36 11v-39q-15 -12 -35 -18t-41 -6q-37 0 -67 21t-30 62t26.5 66t57.5 41q-77 5 -136.5 42t-93 101.5t-33.5 149.5v377h75v-379
q0 -77 29.5 -125t77 -70.5t99.5 -22.5q53 0 100 22.5t77 70.5t30 125v379z" />
    <glyph glyph-name="uogonek" unicode="&#x173;" horiz-adv-x="566" 
d="M466 -154q21 0 35 11v-39q-14 -12 -34 -18t-41 -6q-37 0 -67 21t-30 62q0 34 19 57.5t46.5 39t50.5 26.5h-19v78q-27 -36 -66 -61t-100 -25q-51 0 -97 24.5t-74.5 73t-28.5 119.5v291h75v-289q0 -68 39.5 -109.5t100.5 -41.5q42 0 76 19.5t54.5 53.5t20.5 79v288h75v-500
q-15 -9 -37.5 -24t-40 -35t-17.5 -45q0 -24 19 -37t41 -13z" />
    <glyph glyph-name="Wcircumflex" unicode="&#x174;" horiz-adv-x="958" 
d="M215 0l-206 662h79l170 -556l178 556h86l178 -556l170 556h79l-206 -662h-85l-179 556l-179 -556h-85zM338 725l98 105h87l97 -105h-82l-59 54l-59 -54h-82z" />
    <glyph glyph-name="wcircumflex" unicode="&#x175;" horiz-adv-x="746" 
d="M162 0l-157 500h80l120 -407l127 407h82l127 -407l120 407h80l-157 -500h-86l-125 399l-125 -399h-86zM232 570l98 105h87l97 -105h-82l-59 54l-59 -54h-82z" />
    <glyph glyph-name="Ycircumflex" unicode="&#x176;" horiz-adv-x="636" 
d="M281 0v262l-278 400h91l224 -322l224 322h91l-277 -400v-262h-75zM178 725l98 105h87l97 -105h-82l-59 54l-59 -54h-82z" />
    <glyph glyph-name="ycircumflex" unicode="&#x177;" horiz-adv-x="497" 
d="M117 -198l91 205l-204 493h83l161 -410l164 410h82l-296 -698h-81zM108 570l98 105h87l97 -105h-82l-59 54l-59 -54h-82z" />
    <glyph glyph-name="Ydieresis" unicode="&#x178;" horiz-adv-x="636" 
d="M281 0v262l-278 400h91l224 -322l224 322h91l-277 -400v-262h-75zM196 730v83h89v-83h-89zM353 730v83h89v-83h-89z" />
    <glyph glyph-name="Zacute" unicode="&#x179;" horiz-adv-x="584" 
d="M29 0v71l432 521h-426v70h518v-72l-432 -520h432v-70h-524zM258 725l61 105h107l-107 -105h-61z" />
    <glyph glyph-name="zacute" unicode="&#x17a;" horiz-adv-x="458" 
d="M31 0v71l299 360h-295v69h390v-70l-300 -360h300v-70h-394zM175 570l61 105h107l-107 -105h-61z" />
    <glyph glyph-name="Zdotaccent" unicode="&#x17b;" horiz-adv-x="584" 
d="M29 0v71l432 521h-426v70h518v-72l-432 -520h432v-70h-524zM248 732v83h89v-83h-89z" />
    <glyph glyph-name="zdotaccent" unicode="&#x17c;" horiz-adv-x="458" 
d="M31 0v71l299 360h-295v69h390v-70l-300 -360h300v-70h-394zM185 580v83h89v-83h-89z" />
    <glyph glyph-name="Zcaron" unicode="&#x17d;" horiz-adv-x="584" 
d="M29 0v71l432 521h-426v70h518v-72l-432 -520h432v-70h-524zM249 725l-98 105h82l59 -54l59 54h82l-97 -105h-87z" />
    <glyph glyph-name="zcaron" unicode="&#x17e;" horiz-adv-x="458" 
d="M31 0v71l299 360h-295v69h390v-70l-300 -360h300v-70h-394zM186 570l-98 105h82l59 -54l59 54h82l-97 -105h-87z" />
    <glyph glyph-name="longs" unicode="&#x17f;" horiz-adv-x="239" 
d="M99 0v434h-86v66h86v44q0 82 49.5 123t135.5 41h6v-71h-10q-52 0 -79 -23.5t-27 -75.5v-538h-75z" />
    <glyph glyph-name="uni0180" unicode="&#x180;" horiz-adv-x="594" 
d="M319 -8q-62 0 -106.5 24t-72.5 64v-80h-75v558h-58v65h58v77h75v-77h215v-65h-215v-139q28 41 72.5 65t106.5 24q73 0 127.5 -34.5t84.5 -93t30 -130.5q0 -71 -30 -130t-84.5 -93.5t-127.5 -34.5zM309 60q56 0 95.5 26t60.5 69.5t21 94.5q0 52 -21 95t-60.5 69t-95.5 26
q-55 0 -94 -26t-59 -69t-20 -95q0 -51 20 -94.5t59 -69.5t94 -26z" />
    <glyph glyph-name="uni0181" unicode="&#x181;" horiz-adv-x="785" 
d="M204 0v591q-70 0 -100 -30.5t-30 -81.5q0 -11 1 -22.5t3 -23.5h-68q-3 14 -4 28t-1 27q0 77 45 124t132 50h319q78 0 123.5 -27t65.5 -67.5t20 -80.5q0 -64 -27 -98.5t-62 -50.5q28 -9 56.5 -28.5t47.5 -52.5t19 -83q0 -74 -56.5 -124t-169.5 -50h-314zM279 366h222
q35 0 65.5 12t49.5 37.5t19 65.5q0 28 -12.5 53t-40 41t-73.5 16h-230v-225zM279 71h247q68 0 105.5 28.5t37.5 80.5q0 47 -36 82.5t-115 35.5h-239v-227z" />
    <glyph glyph-name="uni0186" unicode="&#x186;" horiz-adv-x="690" 
d="M331 -8q99 0 171 45.5t110.5 122.5t38.5 171t-38.5 171t-110.5 122.5t-171 45.5q-75 0 -135 -26.5t-102 -72.5t-63 -107h79q25 61 79 97t136 36q80 0 136.5 -35.5t85.5 -95.5t29 -135q0 -74 -29 -134.5t-85.5 -96t-136.5 -35.5q-82 0 -136 36t-79 97h-79
q21 -60 63 -106.5t102 -73t135 -26.5z" />
    <glyph glyph-name="uni0187" unicode="&#x187;" horiz-adv-x="690" 
d="M359 -8q-99 0 -171 45.5t-110.5 122.5t-38.5 171t38.5 171t110 122.5t171.5 45.5q70 0 127 -23t98 -64v62q0 33 10 66t41.5 55.5t93.5 22.5q8 0 15 -0.5t15 -1.5v-68q-13 3 -24 3q-36 0 -52 -12.5t-20 -30t-4 -34.5v-181h-76q-25 61 -80.5 97t-137.5 36
q-80 0 -136.5 -35.5t-85.5 -95.5t-29 -135q0 -74 29 -134.5t85.5 -96t136.5 -35.5q82 0 136 36t79 97h79q-21 -60 -63 -106.5t-102 -73t-135 -26.5z" />
    <glyph glyph-name="uni0188" unicode="&#x188;" horiz-adv-x="581" 
d="M581 658q8 0 15 -0.5t15 -1.5v-68q-13 3 -24 3q-36 0 -52 -12.5t-20 -30t-4 -34.5v-171h-76q-17 43 -54.5 70t-90.5 27q-55 0 -96 -26t-63 -69t-22 -95q0 -51 22 -94.5t63 -69.5t96 -26q53 0 90.5 27t54.5 70h81q-22 -73 -84.5 -119t-151.5 -46q-75 0 -130 34.5
t-85.5 93.5t-30.5 130q0 72 30.5 130.5t85.5 93t130 34.5q47 0 86.5 -13.5t69.5 -38.5v58q0 33 10 66t41.5 55.5t93.5 22.5z" />
    <glyph glyph-name="uni0189" unicode="&#x189;" horiz-adv-x="703" 
d="M81 0v298h-74v65h74v299h279q59 0 113.5 -22.5t97.5 -65.5t68 -104t25 -139t-25 -139t-68 -104t-97.5 -65.5t-113.5 -22.5h-279zM156 71h201q71 0 123 36t80.5 95t28.5 129q0 71 -28.5 130t-80.5 94.5t-123 35.5h-201v-228h199v-65h-199v-227z" />
    <glyph glyph-name="uni018A" unicode="&#x18a;" horiz-adv-x="827" 
d="M204 0v591q-70 0 -100 -30.5t-30 -81.5q0 -11 1 -22.5t3 -23.5h-68q-3 14 -4 28t-1 27q0 77 45 124t132 50h301q59 0 113.5 -22.5t97.5 -65.5t68 -104t25 -139t-25 -139t-68 -104t-97.5 -65.5t-113.5 -22.5h-279zM279 71h201q71 0 123 36t80.5 95t28.5 129
q0 71 -28.5 130t-80.5 94.5t-123 35.5h-201v-520z" />
    <glyph glyph-name="uni018E" unicode="&#x18e;" horiz-adv-x="608" 
d="M527 0v662h-487v-72h412v-222h-368v-73h368v-223h-412v-72h487z" />
    <glyph glyph-name="uni018F" unicode="&#x18f;" horiz-adv-x="718" 
d="M41 374h562q-8 64 -39.5 114.5t-83.5 79.5t-121 29q-75 0 -130 -34.5t-85 -91.5h-79q35 89 112 144t182 55q72 0 130.5 -26t101 -73t65.5 -108t23 -132q0 -70 -23 -131.5t-65.5 -108.5t-101 -73t-130.5 -26t-130.5 26t-101 73t-65.5 108.5t-23 131.5q0 11 0.5 22t1.5 21z
M359 65q72 0 125 31.5t84.5 85.5t36.5 122h-492q5 -68 36.5 -122t84.5 -85.5t125 -31.5z" />
    <glyph glyph-name="uni0190" unicode="&#x190;" horiz-adv-x="570" 
d="M286 -8q-68 0 -123.5 25t-88.5 69.5t-33 103.5q0 53 32 97t90 66q-22 7 -45.5 28t-39 50.5t-15.5 62.5q0 77 61.5 126.5t167.5 49.5q65 0 110.5 -25t71.5 -63t30 -79h-73q-7 38 -43.5 66t-97.5 28q-75 0 -113.5 -29.5t-38.5 -76.5q0 -32 21 -56.5t55 -38t74 -13.5h87v-69
h-96q-48 0 -84.5 -17.5t-57.5 -46t-21 -62.5q0 -51 45 -87t125 -36q40 0 74.5 14.5t57.5 39.5t28 56h76q-5 -52 -37.5 -93t-84.5 -65.5t-114 -24.5z" />
    <glyph glyph-name="uni0191" unicode="&#x191;" horiz-adv-x="583" 
d="M81 0v662h478v-72h-403v-230h359v-73h-359v-306q0 -93 -50.5 -140t-126.5 -47q-13 0 -27 1t-28 4v68q12 -2 23.5 -3t22.5 -1q51 0 81 29t30 108z" />
    <glyph glyph-name="florin" unicode="&#x192;" horiz-adv-x="307" 
d="M29 -206q-7 0 -14.5 0.5t-15.5 1.5v68q14 -3 24 -3q36 0 52 12.5t20 30.5t4 34v496h-86v66h86v44q0 82 49.5 123t135.5 41h6v-71h-10q-52 0 -79 -23.5t-27 -75.5v-38h116v-66h-116v-496q0 -32 -10 -65.5t-41 -56t-94 -22.5z" />
    <glyph glyph-name="uni0193" unicode="&#x193;" horiz-adv-x="723" 
d="M361 352h311v-352h-69v117q-21 -32 -54 -60.5t-79.5 -46.5t-106.5 -18q-101 0 -173.5 45.5t-111.5 122.5t-39 171q0 70 22.5 131.5t64 108t101 73t132.5 26.5h6q68 0 123.5 -23t95.5 -63v61q0 33 10 66t41.5 55.5t93.5 22.5q8 0 15 -0.5t15 -1.5v-68q-13 3 -24 3
q-36 0 -52 -12.5t-20 -30t-4 -34.5v-181h-76q-25 60 -80 96.5t-135 36.5q-79 0 -136 -35.5t-87.5 -96t-30.5 -134.5t30 -134.5t87.5 -96t137.5 -35.5q60 0 113.5 26t87 75t33.5 118h-242v68z" />
    <glyph glyph-name="uni0194" unicode="&#x194;" horiz-adv-x="626" 
d="M235 -40q0 -41 20.5 -64.5t57.5 -23.5t57.5 23.5t20.5 64.5q0 15 -6 33.5t-23 51.5t-51 92q-33 -59 -49.5 -92.5t-21.5 -51.5t-5 -33zM3 662h86q72 -124 127.5 -217.5t96.5 -164.5q41 71 96.5 164.5t127.5 217.5h86q-95 -157 -160.5 -267t-109.5 -184q44 -77 68.5 -124.5
t34.5 -76.5t10 -52q0 -40 -17 -77t-51 -60.5t-85 -23.5t-85 23.5t-51 60.5t-17 77q0 23 9.5 52t33.5 75.5t67 121.5q-43 74 -108.5 185t-158.5 270z" />
    <glyph glyph-name="uni0196" unicode="&#x196;" horiz-adv-x="304" 
d="M248 61q11 0 22.5 1t23.5 3v-68q-14 -3 -28 -4t-27 -1q-76 0 -125 45t-49 132v493h75v-471q0 -70 28.5 -100t79.5 -30z" />
    <glyph glyph-name="uni0197" unicode="&#x197;" horiz-adv-x="237" 
d="M81 0v299h-74v65h74v298h75v-298h74v-65h-74v-299h-75z" />
    <glyph glyph-name="uni0198" unicode="&#x198;" horiz-adv-x="641" 
d="M425 506l-88 -95l309 -411h-94l-267 355l-129 -138v-217h-75v662h75v-345l218 240q50 55 86.5 84t82.5 29q56 0 87 -33.5t31 -95.5l-64 -14q-3 26 -12 48t-42 22q-27 0 -56 -28t-62 -63z" />
    <glyph glyph-name="uni0199" unicode="&#x199;" horiz-adv-x="502" 
d="M285 303l216 -303h-92l-175 251l-94 -93v-158h-75v564q0 33 10 66t41.5 55.5t93.5 22.5q8 0 15 -0.5t15 -1.5v-68q-13 3 -24 3q-36 0 -52 -12.5t-20 -30t-4 -34.5v-312l241 248h105z" />
    <glyph glyph-name="uni019A" unicode="&#x19a;" horiz-adv-x="261" 
d="M93 0v328h-86v65h86v307h75v-307h86v-65h-86v-328h-75z" />
    <glyph glyph-name="uni019B" unicode="&#x19b;" horiz-adv-x="600" 
d="M544 60q14 0 32 5v-69q-23 -5 -40 -5q-102 0 -152 124l-118 295l-161 -410h-83l202 487l-15 35q-2 6 -5 12t-6 13l-117 -47l-24 61l108 43q-12 15 -26.5 24.5t-31.5 9.5q-23 0 -45.5 -10t-29.5 -15v69q20 12 41 19t43 7q38 0 67.5 -21.5t51.5 -53.5l102 41l25 -61
l-94 -38q2 -4 4 -9l4 -10l42 -100l139 -328q17 -33 37.5 -50.5t49.5 -17.5z" />
    <glyph glyph-name="uni019C" unicode="&#x19c;" horiz-adv-x="905" 
d="M824 662v-670h-75v76q-17 -30 -54 -57t-98 -27q-49 0 -92 26.5t-67 74.5q-10 -17 -31.5 -41t-56 -42t-84.5 -18q-48 0 -90.5 25t-68.5 71.5t-26 109.5v472h75v-470q0 -63 36 -101.5t88 -38.5q56 0 95.5 37t39.5 104v469h75v-470q0 -63 36 -101.5t88 -38.5q56 0 95.5 37
t39.5 104v469h75z" />
    <glyph glyph-name="uni019D" unicode="&#x19d;" horiz-adv-x="639" 
d="M81 0v661h75v-78q36 45 87.5 66.5t103.5 21.5q59 0 111.5 -23t85.5 -71.5t33 -124.5v-473h-75v471q0 56 -25.5 88t-65.5 46t-84 14q-43 0 -82 -16t-64 -48.5t-25 -81.5v-471q0 -93 -50.5 -140t-126.5 -47q-13 0 -27 1t-28 4v68q12 -2 23.5 -3t22.5 -1q51 0 81 29t30 108z
" />
    <glyph glyph-name="uni019E" unicode="&#x19e;" horiz-adv-x="568" 
d="M65 0v500h75v-78q27 36 66 61t100 25q52 0 97.5 -24.5t74 -73t28.5 -119.5v-341q0 -39 -15 -74.5t-49 -58.5t-92 -23q-49 0 -82.5 22.5t-51.5 57.5t-21 71h75q3 -18 13 -37.5t27.5 -33t41.5 -13.5q33 0 50 15.5t23 37t6 39.5v336q0 68 -39 109.5t-101 41.5q-42 0 -76 -19
t-54.5 -53.5t-20.5 -79.5v-288h-75z" />
    <glyph glyph-name="uni019F" unicode="&#x19f;" horiz-adv-x="750" 
d="M375 -8q-75 0 -137 26t-106.5 73t-68.5 108.5t-24 131.5q0 71 24 132t68.5 108t106.5 73t137 26t137 -26t106.5 -73t68.5 -108t24 -132q0 -70 -24 -131.5t-68.5 -108.5t-106.5 -73t-137 -26zM375 597q-75 0 -130.5 -30.5t-89 -83.5t-39.5 -120h518q-6 67 -39.5 120
t-89 83.5t-130.5 30.5zM375 65q74 0 130 30.5t89 83.5t40 119h-518q7 -66 40 -119t89 -83.5t130 -30.5z" />
    <glyph glyph-name="Ohorn" unicode="&#x1a0;" horiz-adv-x="750" 
d="M375 -8q-75 0 -137 26t-106.5 73t-68.5 108.5t-24 131.5q0 71 24 132t68.5 108t106.5 73t137 26q40 0 78 -8h26q38 0 61 26.5t23 82.5h70q0 -57 -18 -96t-50 -59q68 -46 107 -120.5t39 -164.5q0 -70 -24 -131.5t-68.5 -108.5t-106.5 -73t-137 -26zM375 65
q81 0 139.5 35.5t90 96t31.5 134.5q0 75 -31.5 135t-90 95.5t-139.5 35.5q-80 0 -139 -35.5t-90.5 -95.5t-31.5 -135q0 -74 31.5 -134.5t90.5 -96t139 -35.5z" />
    <glyph glyph-name="ohorn" unicode="&#x1a1;" horiz-adv-x="564" 
d="M427 465q50 -34 76.5 -90.5t26.5 -124.5q0 -71 -30 -130t-85.5 -93.5t-132.5 -34.5q-76 0 -132 34.5t-86 93.5t-30 130q0 72 30 130.5t86 93t132 34.5h50q38 0 61 26t23 82h70q0 -52 -15.5 -90.5t-43.5 -60.5zM282 60q56 0 94.5 26t58.5 69.5t20 94.5q0 52 -20 95
t-58.5 69t-94.5 26q-55 0 -94 -26t-59 -69t-20 -95q0 -51 20 -94.5t59 -69.5t94 -26z" />
    <glyph glyph-name="uni01A4" unicode="&#x1a4;" horiz-adv-x="751" 
d="M204 0v591q-70 0 -100 -30.5t-30 -81.5q0 -11 1 -22.5t3 -23.5h-68q-3 14 -4 28t-1 27q0 77 45 125.5t132 48.5h320q106 0 167 -57.5t61 -155.5t-61 -155.5t-167 -57.5h-223v-236h-75zM279 306h218q78 0 118 38t40 105q0 66 -40 104t-118 38h-218v-285z" />
    <glyph glyph-name="uni01A5" unicode="&#x1a5;" horiz-adv-x="595" 
d="M65 -198v762q0 33 10 66t41.5 55.5t93.5 22.5q8 0 15 -0.5t15 -1.5v-68q-13 3 -24 3q-36 0 -52 -12.5t-20 -30t-4 -34.5v-144q28 41 72.5 64.5t106.5 23.5q73 0 127.5 -34.5t84.5 -93t30 -130.5q0 -71 -30 -130t-84.5 -93.5t-127.5 -34.5q-62 0 -106.5 24.5t-72.5 64.5
v-279h-75zM309 60q56 0 95.5 26t60.5 69.5t21 94.5q0 52 -21 95t-60.5 69t-95.5 26q-55 0 -94 -26t-59 -69t-20 -95q0 -51 20 -94.5t59 -69.5t94 -26z" />
    <glyph glyph-name="uni01A9" unicode="&#x1a9;" horiz-adv-x="608" 
d="M535 662v-72h-344l249 -269l-254 -249h342v-72h-447v72l255 250l-248 268v72h447z" />
    <glyph glyph-name="uni01AC" unicode="&#x1ac;" horiz-adv-x="629" 
d="M615 662v-72h-231v-590h-75v590h-105q-70 0 -100 -30t-30 -81q0 -11 1 -22.5t3 -23.5h-68q-3 14 -4 28t-1 27q0 77 45 124t132 50h433z" />
    <glyph glyph-name="uni01AD" unicode="&#x1ad;" horiz-adv-x="326" 
d="M194 136q0 -16 4 -34t20 -30.5t52 -12.5q11 0 24 3v-68q-8 -1 -15 -1.5t-15 -0.5q-62 0 -93.5 22.5t-41.5 56t-10 65.5v298h-102v66h102v64q0 33 10 66t41.5 55.5t93.5 22.5q8 0 15 -0.5t15 -1.5v-68q-13 3 -24 3q-36 0 -52 -12.5t-20 -30t-4 -34.5v-64h115v-66h-115
v-298z" />
    <glyph glyph-name="uni01AE" unicode="&#x1ae;" horiz-adv-x="565" 
d="M320 0q0 -79 30 -108t81 -29q11 0 22.5 1t23.5 3v-68q-14 -3 -28 -4t-27 -1q-76 0 -126.5 47t-50.5 140v610h-231v71h537v-71h-231v-591z" />
    <glyph glyph-name="Uhorn" unicode="&#x1af;" horiz-adv-x="709" 
d="M788 771q0 -88 -42 -133t-110 -46v-307q0 -87 -36 -153t-99.5 -103t-146.5 -37q-82 0 -145.5 36.5t-99.5 102.5t-36 154v377h75v-379q0 -77 29.5 -125t77 -70.5t99.5 -22.5q53 0 100 22.5t77 70.5t30 125v379h73q38 0 61 26.5t23 82.5h70z" />
    <glyph glyph-name="uhorn" unicode="&#x1b0;" horiz-adv-x="566" 
d="M600 609q0 -69 -27 -112t-72 -58v-439h-75v78q-27 -36 -66 -61t-100 -25q-51 0 -97 24.5t-74.5 73t-28.5 119.5v291h75v-289q0 -68 39.5 -109.5t100.5 -41.5q42 0 76 19.5t54.5 53.5t20.5 79v288h20q38 0 61 26.5t23 82.5h70z" />
    <glyph glyph-name="uni01B1" unicode="&#x1b1;" horiz-adv-x="746" 
d="M500 590q66 -20 108 -63t62.5 -100.5t20.5 -122.5q0 -58 -18.5 -113.5t-57.5 -100.5t-99 -71.5t-143 -26.5t-143 26.5t-99 71.5t-57.5 100.5t-18.5 113.5q0 65 20.5 122.5t62.5 100.5t108 63h-161v72h231v-100q-90 -19 -138 -86t-48 -168q0 -80 35.5 -134.5t91.5 -82
t116 -27.5q61 0 116.5 27.5t91 82t35.5 134.5q0 101 -48 168t-138 86v100h231v-72h-161z" />
    <glyph glyph-name="uni01B2" unicode="&#x1b2;" horiz-adv-x="702" 
d="M398 669q14 2 29.5 3.5t32.5 1.5q83 0 126 -57.5t43 -178.5q0 -91 -26 -171.5t-72.5 -142.5t-109 -97t-136.5 -35q-106 0 -159 51.5t-53 157.5v461h75v-444q0 -85 33.5 -119t107.5 -34q69 0 119 35t83 90.5t49 119.5t16 122q0 95 -26 134t-89 39q-10 0 -21.5 -1t-21.5 -3
v68z" />
    <glyph glyph-name="uni01B3" unicode="&#x1b3;" horiz-adv-x="722" 
d="M631 670q46 0 78.5 -29t32.5 -100l-60 -14q-4 30 -13 50t-41 20q-19 0 -39.5 -15t-39.5 -38.5t-35 -48.5l-158 -233v-262h-75v262l-278 400h91l224 -322l139 198q31 46 56.5 75t53 43t64.5 14z" />
    <glyph glyph-name="uni01B4" unicode="&#x1b4;" horiz-adv-x="652" 
d="M584 670q38 0 67.5 -24.5t40.5 -83.5l-56 -25q-8 26 -18.5 42.5t-34.5 16.5q-33 0 -53 -29.5t-36 -66.5l-296 -698h-81l91 205l-204 493h83l161 -410l163 408q21 50 43 88.5t52.5 61t77.5 22.5z" />
    <glyph glyph-name="uni01B5" unicode="&#x1b5;" horiz-adv-x="584" 
d="M29 0v71l189 228h-137v65h191l189 228h-426v70h518v-72l-188 -226h139v-65h-193l-190 -229h432v-70h-524z" />
    <glyph glyph-name="uni01B6" unicode="&#x1b6;" horiz-adv-x="458" 
d="M31 0v71l122 147h-95v65h149l123 148h-295v69h390v-70l-122 -147h97v-65h-152l-123 -148h300v-70h-394z" />
    <glyph glyph-name="uni01B7" unicode="&#x1b7;" horiz-adv-x="586" 
d="M208 259v69l175 262h-332v72h424v-72l-176 -260q70 -9 124 -45.5t84.5 -94t30.5 -127.5q0 -77 -35 -138t-95 -96t-137 -35q-89 0 -156 50t-94 131h80q22 -49 67 -78.5t103 -29.5q56 0 99.5 25t68 69.5t24.5 101.5q0 58 -26 102t-71.5 69.5t-104.5 24.5h-53z" />
    <glyph glyph-name="uni01B8" unicode="&#x1b8;" horiz-adv-x="586" 
d="M378 259v69l-175 262h332v72h-424v-72l176 -260q-70 -9 -124 -45.5t-84.5 -94t-30.5 -127.5q0 -77 35 -138t95 -96t137 -35q89 0 156 50t94 131h-80q-22 -49 -67 -78.5t-103 -29.5q-56 0 -99.5 25t-68 69.5t-24.5 101.5q0 58 26 102t71.5 69.5t104.5 24.5h53z" />
    <glyph glyph-name="uni01B9" unicode="&#x1b9;" horiz-adv-x="499" 
d="M336 167l-1 61l-144 206h244v66h-340v-61l148 -207q-58 -6 -102 -34t-68.5 -73.5t-24.5 -104.5q0 -64 27 -115.5t75.5 -81t113.5 -29.5q47 0 90.5 20t75.5 56t45 85h-79q-15 -41 -52.5 -64.5t-79.5 -23.5q-66 0 -103.5 43t-37.5 110t44.5 107t113.5 40h55z" />
    <glyph glyph-name="uni01C0" unicode="&#x1c0;" horiz-adv-x="247" 
d="M86 -198v898h75v-898h-75z" />
    <glyph glyph-name="uni01C1" unicode="&#x1c1;" horiz-adv-x="398" 
d="M86 -198v898h75v-898h-75zM237 -198v898h75v-898h-75z" />
    <glyph glyph-name="uni01C2" unicode="&#x1c2;" horiz-adv-x="247" 
d="M247 328h-86v-82h86v-65h-86v-379h-75v379h-86v65h86v82h-86v65h86v307h75v-307h86v-65z" />
    <glyph glyph-name="uni01C3" unicode="&#x1c3;" horiz-adv-x="221" 
d="M83 183l-19 479h93l-19 -479h-55zM62 0v102h97v-102h-97z" />
    <glyph glyph-name="uni01C4" unicode="&#x1c4;" horiz-adv-x="1276" 
d="M721 0v71l432 521h-426v70h518v-72l-432 -520h432v-70h-524zM941 725l-98 105h82l59 -54l59 54h82l-97 -105h-87zM81 0v662h279q59 0 113.5 -22.5t97.5 -65.5t68 -104t25 -139t-25 -139t-68 -104t-97.5 -65.5t-113.5 -22.5h-279zM156 71h201q71 0 123 36t80.5 95
t28.5 129q0 71 -28.5 130t-80.5 94.5t-123 35.5h-201v-520z" />
    <glyph glyph-name="uni01C5" unicode="&#x1c5;" horiz-adv-x="1154" 
d="M81 0v662h279q59 0 113.5 -22.5t97.5 -65.5t68 -104t25 -139t-25 -139t-68 -104t-97.5 -65.5t-113.5 -22.5h-279zM156 71h201q71 0 123 36t80.5 95t28.5 129q0 71 -28.5 130t-80.5 94.5t-123 35.5h-201v-520zM727 0v71l299 360h-295v69h390v-70l-300 -360h300v-70h-394z
M882 570l-98 105h82l59 -54l59 54h82l-97 -105h-87z" />
    <glyph glyph-name="uni01C6" unicode="&#x1c6;" horiz-adv-x="1053" 
d="M276 -8q-73 0 -127.5 34.5t-84.5 93.5t-30 130q0 72 30 130.5t84.5 93t127.5 34.5q62 0 106.5 -24t72.5 -65v281h75v-700h-75v80q-28 -40 -72.5 -64t-106.5 -24zM286 60q56 0 94.5 26t58.5 69.5t20 94.5q0 52 -20 95t-58.5 69t-94.5 26q-55 0 -95 -26t-61 -69t-21 -95
q0 -51 21 -94.5t61 -69.5t95 -26zM626 0v71l299 360h-295v69h390v-70l-300 -360h300v-70h-394zM781 570l-98 105h82l59 -54l59 54h82l-97 -105h-87z" />
    <glyph glyph-name="uni01C7" unicode="&#x1c7;" horiz-adv-x="1060" 
d="M81 0v662h75v-590h361v-72h-436zM769 -8q-71 0 -118.5 27.5t-72.5 70t-30 87.5h78q4 -26 21 -52t48 -43t78 -17q45 0 72.5 14.5t41 38.5t18.5 51.5t5 52.5v440h75v-443q0 -58 -20.5 -110t-68 -84.5t-127.5 -32.5z" />
    <glyph glyph-name="uni01C8" unicode="&#x1c8;" horiz-adv-x="738" 
d="M81 0v662h75v-590h361v-72h-436zM595 584v98h81v-98h-81zM598 -198v698h75v-698h-75z" />
    <glyph glyph-name="uni01C9" unicode="&#x1c9;" horiz-adv-x="410" 
d="M65 0v700h75v-700h-75zM267 584v98h81v-98h-81zM270 -198v698h75v-698h-75z" />
    <glyph glyph-name="uni01CA" unicode="&#x1ca;" horiz-adv-x="1260" 
d="M81 0v662h87l409 -557v557h75v-662h-87l-409 559v-559h-75zM969 -8q-71 0 -118.5 27.5t-72.5 70t-30 87.5h78q4 -26 21 -52t48 -43t78 -17q45 0 72.5 14.5t41 38.5t18.5 51.5t5 52.5v440h75v-443q0 -58 -20.5 -110t-68 -84.5t-127.5 -32.5z" />
    <glyph glyph-name="uni01CB" unicode="&#x1cb;" horiz-adv-x="938" 
d="M81 0v662h87l409 -557v557h75v-662h-87l-409 559v-559h-75zM795 584v98h81v-98h-81zM798 -198v698h75v-698h-75z" />
    <glyph glyph-name="uni01CC" unicode="&#x1cc;" horiz-adv-x="771" 
d="M65 0v500h75v-78q27 36 66 61t100 25q52 0 97.5 -24.5t74 -73t28.5 -119.5v-291h-75v289q0 68 -39 109.5t-101 41.5q-42 0 -76 -19t-54.5 -53.5t-20.5 -79.5v-288h-75zM628 584v98h81v-98h-81zM631 -198v698h75v-698h-75z" />
    <glyph glyph-name="uni01CD" unicode="&#x1cd;" horiz-adv-x="662" 
d="M3 0l281 662h94l281 -662h-83l-81 192h-328l-81 -192h-83zM196 261h270l-135 323zM288 725l-98 105h82l59 -54l59 54h82l-97 -105h-87z" />
    <glyph glyph-name="uni01CE" unicode="&#x1ce;" horiz-adv-x="595" 
d="M276 -8q-73 0 -127.5 34.5t-84.5 93.5t-30 130q0 72 30 130.5t84.5 93t127.5 34.5q62 0 106.5 -24t72.5 -65v81h75v-500h-75v80q-28 -40 -72.5 -64t-106.5 -24zM286 60q56 0 94.5 26t58.5 69.5t20 94.5q0 52 -20 95t-58.5 69t-94.5 26q-55 0 -95 -26t-61 -69t-21 -95
q0 -51 21 -94.5t61 -69.5t95 -26zM255 570l-98 105h82l59 -54l59 54h82l-97 -105h-87z" />
    <glyph glyph-name="uni01CF" unicode="&#x1cf;" horiz-adv-x="237" 
d="M81 0v662h75v-662h-75zM76 725l-98 105h82l59 -54l59 54h82l-97 -105h-87z" />
    <glyph glyph-name="uni01D0" unicode="&#x1d0;" horiz-adv-x="205" 
d="M65 0v500h75v-500h-75zM60 570l-98 105h82l59 -54l59 54h82l-97 -105h-87z" />
    <glyph glyph-name="uni01D1" unicode="&#x1d1;" horiz-adv-x="750" 
d="M375 -8q-75 0 -137 26t-106.5 73t-68.5 108.5t-24 131.5q0 71 24 132t68.5 108t106.5 73t137 26t137 -26t106.5 -73t68.5 -108t24 -132q0 -70 -24 -131.5t-68.5 -108.5t-106.5 -73t-137 -26zM375 65q81 0 139.5 35.5t90 96t31.5 134.5q0 75 -31.5 135t-90 95.5
t-139.5 35.5q-80 0 -139 -35.5t-90.5 -95.5t-31.5 -135q0 -74 31.5 -134.5t90.5 -96t139 -35.5zM332 725l-98 105h82l59 -54l59 54h82l-97 -105h-87z" />
    <glyph glyph-name="uni01D2" unicode="&#x1d2;" horiz-adv-x="564" 
d="M282 -8q-76 0 -132 34.5t-86 93.5t-30 130q0 72 30 130.5t86 93t132 34.5q77 0 132.5 -34.5t85.5 -93t30 -130.5q0 -71 -30 -130t-85.5 -93.5t-132.5 -34.5zM282 60q56 0 94.5 26t58.5 69.5t20 94.5q0 52 -20 95t-58.5 69t-94.5 26q-55 0 -94 -26t-59 -69t-20 -95
q0 -51 20 -94.5t59 -69.5t94 -26zM239 570l-98 105h82l59 -54l59 54h82l-97 -105h-87z" />
    <glyph glyph-name="uni01D3" unicode="&#x1d3;" horiz-adv-x="709" 
d="M354 -8q-82 0 -145.5 36.5t-99.5 102.5t-36 154v377h75v-379q0 -77 29.5 -125t77 -70.5t99.5 -22.5q53 0 100 22.5t77 70.5t30 125v379h75v-377q0 -87 -36 -153t-99.5 -103t-146.5 -37zM312 725l-98 105h82l59 -54l59 54h82l-97 -105h-87z" />
    <glyph glyph-name="uni01D4" unicode="&#x1d4;" horiz-adv-x="566" 
d="M260 -8q-51 0 -97 24.5t-74.5 73t-28.5 119.5v291h75v-289q0 -68 39.5 -109.5t100.5 -41.5q42 0 76 19.5t54.5 53.5t20.5 79v288h75v-500h-75v78q-27 -36 -66 -61t-100 -25zM240 570l-98 105h82l59 -54l59 54h82l-97 -105h-87z" />
    <glyph glyph-name="uni01D5" unicode="&#x1d5;" horiz-adv-x="709" 
d="M354 -8q-82 0 -145.5 36.5t-99.5 102.5t-36 154v377h75v-379q0 -77 29.5 -125t77 -70.5t99.5 -22.5q53 0 100 22.5t77 70.5t30 125v379h75v-377q0 -87 -36 -153t-99.5 -103t-146.5 -37zM232 730v83h89v-83h-89zM389 730v83h89v-83h-89zM223 858v60h264v-60h-264z" />
    <glyph glyph-name="uni01D6" unicode="&#x1d6;" horiz-adv-x="566" 
d="M260 -8q-51 0 -97 24.5t-74.5 73t-28.5 119.5v291h75v-289q0 -68 39.5 -109.5t100.5 -41.5q42 0 76 19.5t54.5 53.5t20.5 79v288h75v-500h-75v78q-27 -36 -66 -61t-100 -25zM161 579v83h89v-83h-89zM318 579v83h89v-83h-89zM154 712v60h264v-60h-264z" />
    <glyph glyph-name="uni01D7" unicode="&#x1d7;" horiz-adv-x="709" 
d="M354 -8q-82 0 -145.5 36.5t-99.5 102.5t-36 154v377h75v-379q0 -77 29.5 -125t77 -70.5t99.5 -22.5q53 0 100 22.5t77 70.5t30 125v379h75v-377q0 -87 -36 -153t-99.5 -103t-146.5 -37zM232 730v83h89v-83h-89zM389 730v83h89v-83h-89zM321 847l61 105h107l-107 -105h-61
z" />
    <glyph glyph-name="uni01D8" unicode="&#x1d8;" horiz-adv-x="566" 
d="M260 -8q-51 0 -97 24.5t-74.5 73t-28.5 119.5v291h75v-289q0 -68 39.5 -109.5t100.5 -41.5q42 0 76 19.5t54.5 53.5t20.5 79v288h75v-500h-75v78q-27 -36 -66 -61t-100 -25zM161 579v83h89v-83h-89zM318 579v83h89v-83h-89zM232 698l61 105h107l-107 -105h-61z" />
    <glyph glyph-name="uni01D9" unicode="&#x1d9;" horiz-adv-x="709" 
d="M354 -8q-82 0 -145.5 36.5t-99.5 102.5t-36 154v377h75v-379q0 -77 29.5 -125t77 -70.5t99.5 -22.5q53 0 100 22.5t77 70.5t30 125v379h75v-377q0 -87 -36 -153t-99.5 -103t-146.5 -37zM232 730v83h89v-83h-89zM389 730v83h89v-83h-89zM312 847l-98 105h82l59 -54l59 54
h82l-97 -105h-87z" />
    <glyph glyph-name="uni01DA" unicode="&#x1da;" horiz-adv-x="566" 
d="M260 -8q-51 0 -97 24.5t-74.5 73t-28.5 119.5v291h75v-289q0 -68 39.5 -109.5t100.5 -41.5q42 0 76 19.5t54.5 53.5t20.5 79v288h75v-500h-75v78q-27 -36 -66 -61t-100 -25zM161 579v83h89v-83h-89zM318 579v83h89v-83h-89zM243 698l-98 105h82l59 -54l59 54h82l-97 -105
h-87z" />
    <glyph glyph-name="uni01DB" unicode="&#x1db;" horiz-adv-x="709" 
d="M354 -8q-82 0 -145.5 36.5t-99.5 102.5t-36 154v377h75v-379q0 -77 29.5 -125t77 -70.5t99.5 -22.5q53 0 100 22.5t77 70.5t30 125v379h75v-377q0 -87 -36 -153t-99.5 -103t-146.5 -37zM232 730v83h89v-83h-89zM389 730v83h89v-83h-89zM328 847l-107 105h107l61 -105h-61
z" />
    <glyph glyph-name="uni01DC" unicode="&#x1dc;" horiz-adv-x="566" 
d="M260 -8q-51 0 -97 24.5t-74.5 73t-28.5 119.5v291h75v-289q0 -68 39.5 -109.5t100.5 -41.5q42 0 76 19.5t54.5 53.5t20.5 79v288h75v-500h-75v78q-27 -36 -66 -61t-100 -25zM161 579v83h89v-83h-89zM318 579v83h89v-83h-89zM309 698l-107 105h107l61 -105h-61z" />
    <glyph glyph-name="uni01DD" unicode="&#x1dd;" horiz-adv-x="557" 
d="M277 508q76 0 133 -34.5t88.5 -93.5t31.5 -130q0 -72 -30 -130.5t-86 -93t-132 -34.5q-77 0 -132.5 34.5t-85.5 93t-30 130.5v30h419q-6 44 -28.5 80.5t-60.5 58t-88 21.5q-53 0 -89 -23.5t-56 -60.5h-82q26 67 82.5 109.5t145.5 42.5zM452 210h-340q10 -64 54 -107
t116 -43t115.5 43t54.5 107z" />
    <glyph glyph-name="uni01DE" unicode="&#x1de;" horiz-adv-x="662" 
d="M3 0l281 662h94l281 -662h-83l-81 192h-328l-81 -192h-83zM196 261h270l-135 323zM208 730v83h89v-83h-89zM365 730v83h89v-83h-89zM199 858v60h264v-60h-264z" />
    <glyph glyph-name="uni01DF" unicode="&#x1df;" horiz-adv-x="595" 
d="M276 -8q-73 0 -127.5 34.5t-84.5 93.5t-30 130q0 72 30 130.5t84.5 93t127.5 34.5q62 0 106.5 -24t72.5 -65v81h75v-500h-75v80q-28 -40 -72.5 -64t-106.5 -24zM286 60q56 0 94.5 26t58.5 69.5t20 94.5q0 52 -20 95t-58.5 69t-94.5 26q-55 0 -95 -26t-61 -69t-21 -95
q0 -51 21 -94.5t61 -69.5t95 -26zM176 579v83h89v-83h-89zM333 579v83h89v-83h-89zM169 712v60h264v-60h-264z" />
    <glyph glyph-name="uni01E0" unicode="&#x1e0;" horiz-adv-x="662" 
d="M3 0l281 662h94l281 -662h-83l-81 192h-328l-81 -192h-83zM196 261h270l-135 323zM287 732v83h89v-83h-89zM200 848v60h264v-60h-264z" />
    <glyph glyph-name="uni01E1" unicode="&#x1e1;" horiz-adv-x="595" 
d="M276 -8q-73 0 -127.5 34.5t-84.5 93.5t-30 130q0 72 30 130.5t84.5 93t127.5 34.5q62 0 106.5 -24t72.5 -65v81h75v-500h-75v80q-28 -40 -72.5 -64t-106.5 -24zM286 60q56 0 94.5 26t58.5 69.5t20 94.5q0 52 -20 95t-58.5 69t-94.5 26q-55 0 -95 -26t-61 -69t-21 -95
q0 -51 21 -94.5t61 -69.5t95 -26zM254 580v83h89v-83h-89zM167 712v60h264v-60h-264z" />
    <glyph glyph-name="uni01E2" unicode="&#x1e2;" horiz-adv-x="1022" 
d="M-3 0l453 662h533v-72h-387v-222h343v-73h-343v-223h387v-72h-462v185h-309l-125 -185h-90zM259 254h262v336h-34zM579 736v60h264v-60h-264z" />
    <glyph glyph-name="uni01E3" unicode="&#x1e3;" horiz-adv-x="977" 
d="M276 -8q-73 0 -127.5 34.5t-84.5 93.5t-30 130q0 72 30 130.5t84.5 93t127.5 34.5q62 0 106.5 -24t72.5 -65v81h75v-72q27 37 70 58.5t102 21.5q77 0 132.5 -34.5t85.5 -93t30 -130.5v-30h-419q6 -44 28 -80.5t60 -58t89 -21.5q56 0 93 27t56 70h80q-24 -73 -85.5 -119
t-149.5 -46q-59 0 -102 21t-70 58v-71h-75v80q-28 -40 -72.5 -64t-106.5 -24zM286 60q56 0 94.5 26t58.5 69.5t20 94.5q0 52 -20 95t-58.5 69t-94.5 26q-55 0 -95 -26t-61 -69t-21 -95q0 -51 21 -94.5t61 -69.5t95 -26zM532 290h340q-10 64 -54 107t-116 43t-115.5 -43
t-54.5 -107zM357 584v60h264v-60h-264z" />
    <glyph glyph-name="uni01E4" unicode="&#x1e4;" horiz-adv-x="723" 
d="M363 -8q-101 0 -173.5 45.5t-111.5 122.5t-39 171t40 171t113.5 122.5t172.5 45.5q107 0 185.5 -52.5t115.5 -135.5h-82q-30 53 -83.5 84t-129.5 31q-80 0 -138 -35.5t-88.5 -95.5t-30.5 -135q0 -74 30 -134.5t87.5 -96t137.5 -35.5q56 0 106.5 22.5t83.5 64.5h-198v65
h232q10 32 10 67h-242v68h311v-135h37v-65h-37v-152h-69v117q-21 -32 -54 -60.5t-79.5 -46.5t-106.5 -18z" />
    <glyph glyph-name="uni01E5" unicode="&#x1e5;" horiz-adv-x="595" 
d="M294 -206q-94 0 -153 40.5t-80 105.5h83q15 -37 52 -57.5t94 -20.5q101 0 140 58h-86v65h109q2 16 2 35v69q-28 -40 -72.5 -64.5t-106.5 -24.5q-73 0 -127.5 33.5t-84.5 91.5t-30 129q0 72 30 129.5t84.5 91t127.5 33.5q62 0 106.5 -23.5t72.5 -64.5v80h75v-485
q0 -16 -1 -30h62v-65h-77q-48 -126 -220 -126zM286 68q55 0 93.5 25t59 67.5t20.5 93.5q0 52 -20.5 94t-59 67t-93.5 25t-95 -25t-61 -67t-21 -94q0 -51 21 -93.5t61 -67.5t95 -25z" />
    <glyph glyph-name="Gcaron" unicode="&#x1e6;" horiz-adv-x="723" 
d="M363 -8q-101 0 -173.5 45.5t-111.5 122.5t-39 171t40 171t113.5 122.5t172.5 45.5q107 0 185.5 -52.5t115.5 -135.5h-82q-30 53 -83.5 84t-129.5 31q-80 0 -138 -35.5t-88.5 -95.5t-30.5 -135q0 -74 30 -134.5t87.5 -96t137.5 -35.5q60 0 113.5 26t87 75t33.5 118h-242
v68h311v-352h-69v117q-21 -32 -54 -60.5t-79.5 -46.5t-106.5 -18zM319 725l-98 105h82l59 -54l59 54h82l-97 -105h-87z" />
    <glyph glyph-name="gcaron" unicode="&#x1e7;" horiz-adv-x="595" 
d="M294 -206q-94 0 -153 40.5t-80 105.5h83q15 -37 52 -57.5t94 -20.5q86 0 125.5 40.5t39.5 117.5v69q-28 -40 -72.5 -64.5t-106.5 -24.5q-73 0 -127.5 33.5t-84.5 91.5t-30 129q0 72 30 129.5t84.5 91t127.5 33.5q62 0 106.5 -23.5t72.5 -64.5v80h75v-485
q0 -107 -61.5 -164t-174.5 -57zM286 68q55 0 93.5 25t59 67.5t20.5 93.5q0 52 -20.5 94t-59 67t-93.5 25t-95 -25t-61 -67t-21 -94q0 -51 21 -93.5t61 -67.5t95 -25zM255 570l-98 105h82l59 -54l59 54h82l-97 -105h-87z" />
    <glyph glyph-name="uni01E8" unicode="&#x1e8;" horiz-adv-x="641" 
d="M81 0v662h75v-345l368 345h106l-282 -266l298 -396h-94l-259 345l-137 -128v-217h-75zM278 725l-98 105h82l59 -54l59 54h82l-97 -105h-87z" />
    <glyph glyph-name="uni01E9" unicode="&#x1e9;" horiz-adv-x="502" 
d="M65 0v700h75v-448l241 248h105l-201 -197l216 -303h-92l-175 251l-94 -93v-158h-75zM62 763l-98 105h82l59 -54l59 54h82l-97 -105h-87z" />
    <glyph glyph-name="uni01EA" unicode="&#x1ea;" horiz-adv-x="750" 
d="M711 331q0 -82 -32.5 -151.5t-91.5 -117t-139 -63.5q-15 -8 -38.5 -23t-41.5 -36t-18 -46q0 -24 19 -37t41 -13q20 0 36 11v-39q-15 -12 -35 -18t-41 -6q-37 0 -67 21t-30 62q0 31 16.5 53t40.5 37.5t46 26.5h-1q-75 0 -137 26t-106.5 73t-68.5 108.5t-24 131.5
q0 71 24 132t68.5 108t106.5 73t137 26t137 -26t106.5 -73t68.5 -108t24 -132zM375 65q81 0 139.5 35.5t90 96t31.5 134.5q0 75 -31.5 135t-90 95.5t-139.5 35.5q-80 0 -139 -35.5t-90.5 -95.5t-31.5 -135q0 -74 31.5 -134.5t90.5 -96t139 -35.5z" />
    <glyph glyph-name="uni01EB" unicode="&#x1eb;" horiz-adv-x="564" 
d="M372 7q-18 -9 -43.5 -25.5t-45.5 -38.5t-20 -47q0 -24 19 -37t41 -13q20 0 36 11v-39q-15 -12 -35 -18t-41 -6q-37 0 -67 21t-30 62q0 30 15.5 51.5t38.5 37t45 26.5h-3q-76 0 -132 34.5t-86 93.5t-30 130q0 72 30 130.5t86 93t132 34.5q77 0 132.5 -34.5t85.5 -93
t30 -130.5q0 -84 -42 -150t-116 -93zM109 250q0 -51 20 -94.5t59 -69.5t94 -26q56 0 94.5 26t58.5 69.5t20 94.5q0 52 -20 95t-58.5 69t-94.5 26q-55 0 -94 -26t-59 -69t-20 -95z" />
    <glyph glyph-name="uni01EC" unicode="&#x1ec;" horiz-adv-x="750" 
d="M243 736v60h264v-60h-264zM711 331q0 -82 -32.5 -151.5t-91.5 -117t-139 -63.5q-15 -8 -38.5 -23t-41.5 -36t-18 -46q0 -24 19 -37t41 -13q20 0 36 11v-39q-15 -12 -35 -18t-41 -6q-37 0 -67 21t-30 62q0 31 16.5 53t40.5 37.5t46 26.5h-1q-75 0 -137 26t-106.5 73
t-68.5 108.5t-24 131.5q0 71 24 132t68.5 108t106.5 73t137 26t137 -26t106.5 -73t68.5 -108t24 -132zM375 65q81 0 139.5 35.5t90 96t31.5 134.5q0 75 -31.5 135t-90 95.5t-139.5 35.5q-80 0 -139 -35.5t-90.5 -95.5t-31.5 -135q0 -74 31.5 -134.5t90.5 -96t139 -35.5z" />
    <glyph glyph-name="uni01ED" unicode="&#x1ed;" horiz-adv-x="564" 
d="M372 7q-18 -9 -43.5 -25.5t-45.5 -38.5t-20 -47q0 -24 19 -37t41 -13q20 0 36 11v-39q-15 -12 -35 -18t-41 -6q-37 0 -67 21t-30 62q0 30 15.5 51.5t38.5 37t45 26.5h-3q-76 0 -132 34.5t-86 93.5t-30 130q0 72 30 130.5t86 93t132 34.5q77 0 132.5 -34.5t85.5 -93
t30 -130.5q0 -84 -42 -150t-116 -93zM109 250q0 -51 20 -94.5t59 -69.5t94 -26q56 0 94.5 26t58.5 69.5t20 94.5q0 52 -20 95t-58.5 69t-94.5 26q-55 0 -94 -26t-59 -69t-20 -95zM150 584v60h264v-60h-264z" />
    <glyph glyph-name="uni01EE" unicode="&#x1ee;" horiz-adv-x="586" 
d="M208 259v69l175 262h-332v72h424v-72l-176 -260q70 -9 124 -45.5t84.5 -94t30.5 -127.5q0 -77 -35 -138t-95 -96t-137 -35q-89 0 -156 50t-94 131h80q22 -49 67 -78.5t103 -29.5q56 0 99.5 25t68 69.5t24.5 101.5q0 58 -26 102t-71.5 69.5t-104.5 24.5h-53zM236 725
l-98 105h82l59 -54l59 54h82l-97 -105h-87z" />
    <glyph glyph-name="uni01EF" unicode="&#x1ef;" horiz-adv-x="499" 
d="M163 167l1 61l144 206h-244v66h340v-61l-148 -207q58 -6 102 -34t68.5 -73.5t24.5 -104.5q0 -64 -27 -115.5t-75.5 -81t-113.5 -29.5q-47 0 -90.5 20t-75.5 56t-45 85h79q15 -41 52.5 -64.5t79.5 -23.5q66 0 103.5 43t37.5 110t-44.5 107t-113.5 40h-55zM192 570l-98 105
h82l59 -54l59 54h82l-97 -105h-87z" />
    <glyph glyph-name="uni01F4" unicode="&#x1f4;" horiz-adv-x="723" 
d="M363 -8q-101 0 -173.5 45.5t-111.5 122.5t-39 171t40 171t113.5 122.5t172.5 45.5q107 0 185.5 -52.5t115.5 -135.5h-82q-30 53 -83.5 84t-129.5 31q-80 0 -138 -35.5t-88.5 -95.5t-30.5 -135q0 -74 30 -134.5t87.5 -96t137.5 -35.5q60 0 113.5 26t87 75t33.5 118h-242
v68h311v-352h-69v117q-21 -32 -54 -60.5t-79.5 -46.5t-106.5 -18zM328 725l61 105h107l-107 -105h-61z" />
    <glyph glyph-name="uni01F5" unicode="&#x1f5;" horiz-adv-x="595" 
d="M294 -206q-94 0 -153 40.5t-80 105.5h83q15 -37 52 -57.5t94 -20.5q86 0 125.5 40.5t39.5 117.5v69q-28 -40 -72.5 -64.5t-106.5 -24.5q-73 0 -127.5 33.5t-84.5 91.5t-30 129q0 72 30 129.5t84.5 91t127.5 33.5q62 0 106.5 -23.5t72.5 -64.5v80h75v-485
q0 -107 -61.5 -164t-174.5 -57zM286 68q55 0 93.5 25t59 67.5t20.5 93.5q0 52 -20.5 94t-59 67t-93.5 25t-95 -25t-61 -67t-21 -94q0 -51 21 -93.5t61 -67.5t95 -25zM244 570l61 105h107l-107 -105h-61z" />
    <glyph glyph-name="uni01F8" unicode="&#x1f8;" horiz-adv-x="733" 
d="M81 0v662h87l409 -557v557h75v-662h-87l-409 559v-559h-75zM340 725l-107 105h107l61 -105h-61z" />
    <glyph glyph-name="uni01F9" unicode="&#x1f9;" horiz-adv-x="566" 
d="M65 0v500h75v-78q27 36 66 61t100 25q52 0 97.5 -24.5t74 -73t28.5 -119.5v-291h-75v289q0 68 -39 109.5t-101 41.5q-42 0 -76 -19t-54.5 -53.5t-20.5 -79.5v-288h-75zM306 570l-107 105h107l61 -105h-61z" />
    <glyph glyph-name="Aringacute" unicode="&#x1fa;" horiz-adv-x="662" 
d="M3 0l281 662h94l281 -662h-83l-81 192h-328l-81 -192h-83zM196 261h270l-135 323zM330 635q-37 0 -63 26t-26 63q0 38 26 64t63 26q38 0 64.5 -26t26.5 -64q0 -37 -26.5 -63t-64.5 -26zM330 680q19 0 32 13t13 31q0 19 -13 32t-32 13q-17 0 -30 -13t-13 -32q0 -18 13 -31
t30 -13zM296 869l61 105h107l-107 -105h-61z" />
    <glyph glyph-name="aringacute" unicode="&#x1fb;" horiz-adv-x="595" 
d="M276 -8q-73 0 -127.5 34.5t-84.5 93.5t-30 130q0 72 30 130.5t84.5 93t127.5 34.5q62 0 106.5 -24t72.5 -65v81h75v-500h-75v80q-28 -40 -72.5 -64t-106.5 -24zM286 60q56 0 94.5 26t58.5 69.5t20 94.5q0 52 -20 95t-58.5 69t-94.5 26q-55 0 -95 -26t-61 -69t-21 -95
q0 -51 21 -94.5t61 -69.5t95 -26zM297 556q-37 0 -63 26t-26 63q0 38 26 64t63 26q38 0 64.5 -26t26.5 -64q0 -37 -26.5 -63t-64.5 -26zM297 601q19 0 32 13t13 31q0 19 -13 32t-32 13q-17 0 -30 -13t-13 -32q0 -18 13 -31t30 -13zM243 765l61 105h107l-107 -105h-61z" />
    <glyph glyph-name="AEacute" unicode="&#x1fc;" horiz-adv-x="1022" 
d="M-3 0l453 662h533v-72h-387v-222h343v-73h-343v-223h387v-72h-462v185h-309l-125 -185h-90zM259 254h262v336h-34zM677 725l61 105h107l-107 -105h-61z" />
    <glyph glyph-name="aeacute" unicode="&#x1fd;" horiz-adv-x="977" 
d="M276 -8q-73 0 -127.5 34.5t-84.5 93.5t-30 130q0 72 30 130.5t84.5 93t127.5 34.5q62 0 106.5 -24t72.5 -65v81h75v-72q27 37 70 58.5t102 21.5q77 0 132.5 -34.5t85.5 -93t30 -130.5v-30h-419q6 -44 28 -80.5t60 -58t89 -21.5q56 0 93 27t56 70h80q-24 -73 -85.5 -119
t-149.5 -46q-59 0 -102 21t-70 58v-71h-75v80q-28 -40 -72.5 -64t-106.5 -24zM286 60q56 0 94.5 26t58.5 69.5t20 94.5q0 52 -20 95t-58.5 69t-94.5 26q-55 0 -95 -26t-61 -69t-21 -95q0 -51 21 -94.5t61 -69.5t95 -26zM532 290h340q-10 64 -54 107t-116 43t-115.5 -43
t-54.5 -107zM435 570l61 105h107l-107 -105h-61z" />
    <glyph glyph-name="Oslashacute" unicode="&#x1fe;" horiz-adv-x="750" 
d="M122 -40l54 93q-65 46 -101 118.5t-36 159.5q0 71 24 132t68.5 108t106.5 73t137 26q38 0 73.5 -7t66.5 -21l33 58h74l-51 -89q66 -45 103 -118.5t37 -161.5q0 -70 -24 -131.5t-68.5 -108.5t-106.5 -73t-137 -26q-40 0 -76 7.5t-68 21.5l-35 -61h-74zM114 331
q0 -67 25.5 -122.5t72.5 -91.5l266 462q-47 18 -103 18q-80 0 -139 -35.5t-90.5 -95.5t-31.5 -135zM375 65q81 0 139.5 35.5t90 96t31.5 134.5q0 68 -26.5 124.5t-75.5 92.5l-266 -463q49 -20 107 -20zM341 725l61 105h107l-107 -105h-61z" />
    <glyph glyph-name="oslashacute" unicode="&#x1ff;" horiz-adv-x="564" 
d="M96 -16l33 57q-46 35 -70.5 90t-24.5 119q0 72 30 130.5t86 93t132 34.5q56 0 104 -20l21 37h74l-41 -71q43 -35 66.5 -88t23.5 -116q0 -71 -30 -130t-85.5 -93.5t-132.5 -34.5q-52 0 -97 18l-15 -26h-74zM109 250q0 -43 14.5 -81t41.5 -65l186 323q-32 13 -69 13
q-55 0 -94 -26t-59 -69t-20 -95zM282 60q56 0 94.5 26t58.5 69t20 95q0 41 -13 77.5t-38 63.5l-184 -321q28 -10 62 -10zM258 570l61 105h107l-107 -105h-61z" />
    <glyph glyph-name="uni0200" unicode="&#x200;" horiz-adv-x="662" 
d="M3 0l281 662h94l281 -662h-83l-81 192h-328l-81 -192h-83zM196 261h270l-135 323zM224 715l-107 105h107l61 -105h-61zM380 715l-107 105h107l61 -105h-61z" />
    <glyph glyph-name="uni0201" unicode="&#x201;" horiz-adv-x="595" 
d="M276 -8q-73 0 -127.5 34.5t-84.5 93.5t-30 130q0 72 30 130.5t84.5 93t127.5 34.5q62 0 106.5 -24t72.5 -65v81h75v-500h-75v80q-28 -40 -72.5 -64t-106.5 -24zM286 60q56 0 94.5 26t58.5 69.5t20 94.5q0 52 -20 95t-58.5 69t-94.5 26q-55 0 -95 -26t-61 -69t-21 -95
q0 -51 21 -94.5t61 -69.5t95 -26zM193 570l-107 105h107l61 -105h-61zM349 570l-107 105h107l61 -105h-61z" />
    <glyph glyph-name="uni0202" unicode="&#x202;" horiz-adv-x="662" 
d="M3 0l281 662h94l281 -662h-83l-81 192h-328l-81 -192h-83zM196 261h270l-135 323zM332 831q-49 0 -84 -28t-35 -67q0 -8 2 -15l4 -14h18q3 28 30 46.5t65 18.5q37 0 64 -18.5t30 -46.5h18q6 13 6 29q0 39 -34.5 67t-83.5 28z" />
    <glyph glyph-name="uni0203" unicode="&#x203;" horiz-adv-x="595" 
d="M276 -8q-73 0 -127.5 34.5t-84.5 93.5t-30 130q0 72 30 130.5t84.5 93t127.5 34.5q62 0 106.5 -24t72.5 -65v81h75v-500h-75v80q-28 -40 -72.5 -64t-106.5 -24zM286 60q56 0 94.5 26t58.5 69.5t20 94.5q0 52 -20 95t-58.5 69t-94.5 26q-55 0 -95 -26t-61 -69t-21 -95
q0 -51 21 -94.5t61 -69.5t95 -26zM299 678q-49 0 -84 -28t-35 -67q0 -8 2 -15l4 -14h18q3 28 30 46.5t65 18.5q37 0 64 -18.5t30 -46.5h18q6 13 6 29q0 39 -34.5 67t-83.5 28z" />
    <glyph glyph-name="uni0204" unicode="&#x204;" horiz-adv-x="608" 
d="M81 0v662h487v-72h-412v-222h368v-73h-368v-223h412v-72h-487zM227 715l-107 105h107l61 -105h-61zM383 715l-107 105h107l61 -105h-61z" />
    <glyph glyph-name="uni0205" unicode="&#x205;" horiz-adv-x="557" 
d="M287 -8q-76 0 -133 34.5t-88.5 93.5t-31.5 130q0 72 30 130.5t86 93t132 34.5q77 0 132.5 -34.5t85.5 -93t30 -130.5v-30h-419q6 -44 28.5 -80.5t60.5 -58t88 -21.5q53 0 89 23.5t56 60.5h82q-26 -67 -82.5 -109.5t-145.5 -42.5zM112 290h340q-10 64 -54 107t-116 43
t-115.5 -43t-54.5 -107zM174 570l-107 105h107l61 -105h-61zM330 570l-107 105h107l61 -105h-61z" />
    <glyph glyph-name="uni0206" unicode="&#x206;" horiz-adv-x="608" 
d="M81 0v662h487v-72h-412v-222h368v-73h-368v-223h412v-72h-487zM335 831q-49 0 -84 -28t-35 -67q0 -8 2 -15l4 -14h18q3 28 30 46.5t65 18.5q37 0 64 -18.5t30 -46.5h18q6 13 6 29q0 39 -34.5 67t-83.5 28z" />
    <glyph glyph-name="uni0207" unicode="&#x207;" horiz-adv-x="557" 
d="M287 -8q-76 0 -133 34.5t-88.5 93.5t-31.5 130q0 72 30 130.5t86 93t132 34.5q77 0 132.5 -34.5t85.5 -93t30 -130.5v-30h-419q6 -44 28.5 -80.5t60.5 -58t88 -21.5q53 0 89 23.5t56 60.5h82q-26 -67 -82.5 -109.5t-145.5 -42.5zM112 290h340q-10 64 -54 107t-116 43
t-115.5 -43t-54.5 -107zM280 678q-49 0 -84 -28t-35 -67q0 -8 2 -15l4 -14h18q3 28 30 46.5t65 18.5q37 0 64 -18.5t30 -46.5h18q6 13 6 29q0 39 -34.5 67t-83.5 28z" />
    <glyph glyph-name="uni0208" unicode="&#x208;" horiz-adv-x="237" 
d="M81 0v662h75v-662h-75zM12 715l-107 105h107l61 -105h-61zM168 715l-107 105h107l61 -105h-61z" />
    <glyph glyph-name="uni0209" unicode="&#x209;" horiz-adv-x="205" 
d="M65 0v500h75v-500h-75zM-2 570l-107 105h107l61 -105h-61zM154 570l-107 105h107l61 -105h-61z" />
    <glyph glyph-name="uni020A" unicode="&#x20a;" horiz-adv-x="237" 
d="M81 0v662h75v-662h-75zM120 831q-49 0 -84 -28t-35 -67q0 -8 2 -15l4 -14h18q3 28 30 46.5t65 18.5q37 0 64 -18.5t30 -46.5h18q6 13 6 29q0 39 -34.5 67t-83.5 28z" />
    <glyph glyph-name="uni020B" unicode="&#x20b;" horiz-adv-x="205" 
d="M65 0v500h75v-500h-75zM103 678q-49 0 -84 -28t-35 -67q0 -8 2 -15l4 -14h18q3 28 30 46.5t65 18.5q37 0 64 -18.5t30 -46.5h18q6 13 6 29q0 39 -34.5 67t-83.5 28z" />
    <glyph glyph-name="uni020C" unicode="&#x20c;" horiz-adv-x="750" 
d="M375 -8q-75 0 -137 26t-106.5 73t-68.5 108.5t-24 131.5q0 71 24 132t68.5 108t106.5 73t137 26t137 -26t106.5 -73t68.5 -108t24 -132q0 -70 -24 -131.5t-68.5 -108.5t-106.5 -73t-137 -26zM375 65q81 0 139.5 35.5t90 96t31.5 134.5q0 75 -31.5 135t-90 95.5
t-139.5 35.5q-80 0 -139 -35.5t-90.5 -95.5t-31.5 -135q0 -74 31.5 -134.5t90.5 -96t139 -35.5zM268 715l-107 105h107l61 -105h-61zM424 715l-107 105h107l61 -105h-61z" />
    <glyph glyph-name="uni020D" unicode="&#x20d;" horiz-adv-x="564" 
d="M282 -8q-76 0 -132 34.5t-86 93.5t-30 130q0 72 30 130.5t86 93t132 34.5q77 0 132.5 -34.5t85.5 -93t30 -130.5q0 -71 -30 -130t-85.5 -93.5t-132.5 -34.5zM282 60q56 0 94.5 26t58.5 69.5t20 94.5q0 52 -20 95t-58.5 69t-94.5 26q-55 0 -94 -26t-59 -69t-20 -95
q0 -51 20 -94.5t59 -69.5t94 -26zM177 570l-107 105h107l61 -105h-61zM333 570l-107 105h107l61 -105h-61z" />
    <glyph glyph-name="uni020E" unicode="&#x20e;" horiz-adv-x="750" 
d="M375 -8q-75 0 -137 26t-106.5 73t-68.5 108.5t-24 131.5q0 71 24 132t68.5 108t106.5 73t137 26t137 -26t106.5 -73t68.5 -108t24 -132q0 -70 -24 -131.5t-68.5 -108.5t-106.5 -73t-137 -26zM375 65q81 0 139.5 35.5t90 96t31.5 134.5q0 75 -31.5 135t-90 95.5
t-139.5 35.5q-80 0 -139 -35.5t-90.5 -95.5t-31.5 -135q0 -74 31.5 -134.5t90.5 -96t139 -35.5zM376 831q-49 0 -84 -28t-35 -67q0 -8 2 -15l4 -14h18q3 28 30 46.5t65 18.5q37 0 64 -18.5t30 -46.5h18q6 13 6 29q0 39 -34.5 67t-83.5 28z" />
    <glyph glyph-name="uni020F" unicode="&#x20f;" horiz-adv-x="564" 
d="M282 -8q-76 0 -132 34.5t-86 93.5t-30 130q0 72 30 130.5t86 93t132 34.5q77 0 132.5 -34.5t85.5 -93t30 -130.5q0 -71 -30 -130t-85.5 -93.5t-132.5 -34.5zM282 60q56 0 94.5 26t58.5 69.5t20 94.5q0 52 -20 95t-58.5 69t-94.5 26q-55 0 -94 -26t-59 -69t-20 -95
q0 -51 20 -94.5t59 -69.5t94 -26zM283 678q-49 0 -84 -28t-35 -67q0 -8 2 -15l4 -14h18q3 28 30 46.5t65 18.5q37 0 64 -18.5t30 -46.5h18q6 13 6 29q0 39 -34.5 67t-83.5 28z" />
    <glyph glyph-name="uni0210" unicode="&#x210;" horiz-adv-x="669" 
d="M81 0v662h317q102 0 162.5 -56t60.5 -151q0 -64 -24.5 -102t-61.5 -57.5t-74 -28.5l174 -267h-89l-160 254h-230v-254h-75zM156 325h229q36 0 73 11t62.5 39.5t25.5 79.5q0 63 -43 99.5t-114 36.5h-233v-266zM228 715l-107 105h107l61 -105h-61zM384 715l-107 105h107
l61 -105h-61z" />
    <glyph glyph-name="uni0211" unicode="&#x211;" horiz-adv-x="345" 
d="M65 0v500h75v-123q4 13 15.5 34.5t33.5 43.5t55.5 37.5t79.5 15.5h5v-75h-9q-56 0 -96.5 -30.5t-62 -79t-21.5 -103.5v-220h-75zM68 570l-107 105h107l61 -105h-61zM224 570l-107 105h107l61 -105h-61z" />
    <glyph glyph-name="uni0212" unicode="&#x212;" horiz-adv-x="669" 
d="M81 0v662h317q102 0 162.5 -56t60.5 -151q0 -64 -24.5 -102t-61.5 -57.5t-74 -28.5l174 -267h-89l-160 254h-230v-254h-75zM156 325h229q36 0 73 11t62.5 39.5t25.5 79.5q0 63 -43 99.5t-114 36.5h-233v-266zM336 831q-49 0 -84 -28t-35 -67q0 -8 2 -15l4 -14h18
q3 28 30 46.5t65 18.5q37 0 64 -18.5t30 -46.5h18q6 13 6 29q0 39 -34.5 67t-83.5 28z" />
    <glyph glyph-name="uni0213" unicode="&#x213;" horiz-adv-x="345" 
d="M65 0v500h75v-123q4 13 15.5 34.5t33.5 43.5t55.5 37.5t79.5 15.5h5v-75h-9q-56 0 -96.5 -30.5t-62 -79t-21.5 -103.5v-220h-75zM174 678q-49 0 -84 -28t-35 -67q0 -8 2 -15l4 -14h18q3 28 30 46.5t65 18.5q37 0 64 -18.5t30 -46.5h18q6 13 6 29q0 39 -34.5 67t-83.5 28z
" />
    <glyph glyph-name="uni0214" unicode="&#x214;" horiz-adv-x="709" 
d="M354 -8q-82 0 -145.5 36.5t-99.5 102.5t-36 154v377h75v-379q0 -77 29.5 -125t77 -70.5t99.5 -22.5q53 0 100 22.5t77 70.5t30 125v379h75v-377q0 -87 -36 -153t-99.5 -103t-146.5 -37zM248 715l-107 105h107l61 -105h-61zM404 715l-107 105h107l61 -105h-61z" />
    <glyph glyph-name="uni0215" unicode="&#x215;" horiz-adv-x="566" 
d="M260 -8q-51 0 -97 24.5t-74.5 73t-28.5 119.5v291h75v-289q0 -68 39.5 -109.5t100.5 -41.5q42 0 76 19.5t54.5 53.5t20.5 79v288h75v-500h-75v78q-27 -36 -66 -61t-100 -25zM178 570l-107 105h107l61 -105h-61zM334 570l-107 105h107l61 -105h-61z" />
    <glyph glyph-name="uni0216" unicode="&#x216;" horiz-adv-x="709" 
d="M354 -8q-82 0 -145.5 36.5t-99.5 102.5t-36 154v377h75v-379q0 -77 29.5 -125t77 -70.5t99.5 -22.5q53 0 100 22.5t77 70.5t30 125v379h75v-377q0 -87 -36 -153t-99.5 -103t-146.5 -37zM356 831q-49 0 -84 -28t-35 -67q0 -8 2 -15l4 -14h18q3 28 30 46.5t65 18.5
q37 0 64 -18.5t30 -46.5h18q6 13 6 29q0 39 -34.5 67t-83.5 28z" />
    <glyph glyph-name="uni0217" unicode="&#x217;" horiz-adv-x="566" 
d="M260 -8q-51 0 -97 24.5t-74.5 73t-28.5 119.5v291h75v-289q0 -68 39.5 -109.5t100.5 -41.5q42 0 76 19.5t54.5 53.5t20.5 79v288h75v-500h-75v78q-27 -36 -66 -61t-100 -25zM284 678q-49 0 -84 -28t-35 -67q0 -8 2 -15l4 -14h18q3 28 30 46.5t65 18.5q37 0 64 -18.5
t30 -46.5h18q6 13 6 29q0 39 -34.5 67t-83.5 28z" />
    <glyph glyph-name="uni0218" unicode="&#x218;" horiz-adv-x="615" 
d="M318 -8q-98 0 -159 26.5t-91.5 73.5t-35.5 106h78q3 -48 32 -77.5t76.5 -43.5t104.5 -14q84 0 133 29.5t49 87.5q0 35 -24.5 56.5t-65 35.5t-88.5 25.5t-96.5 24.5t-89 33t-65 51.5t-24.5 80.5q0 81 62.5 132t186.5 51q88 0 145 -26.5t85.5 -69.5t31.5 -93h-77
q-6 50 -50 84.5t-135 34.5q-56 0 -91 -11t-53.5 -28.5t-25 -36.5t-6.5 -36q0 -33 24.5 -53.5t65 -34t89.5 -24.5t97.5 -24.5t89 -34t65 -52.5t24.5 -82q0 -92 -70 -141.5t-192 -49.5zM250 -198l44 150h73l-66 -150h-51z" />
    <glyph glyph-name="uni0219" unicode="&#x219;" horiz-adv-x="482" 
d="M247 -8q-69 0 -116.5 23t-72.5 60.5t-28 81.5h78q3 -25 17.5 -48.5t44.5 -38t78 -14.5q15 0 37 3t42.5 11t34.5 24t14 41q0 31 -24 48t-62 26.5t-80.5 18.5t-80.5 23.5t-62 41t-24 72.5q0 68 49.5 105.5t146.5 37.5q66 0 107.5 -20.5t63 -52.5t25.5 -69h-76
q-4 32 -31.5 55t-90.5 23q-119 0 -119 -72q0 -30 24 -46t62 -25.5t80.5 -18t80.5 -23.5t62 -42.5t24 -74.5q0 -73 -55.5 -111.5t-148.5 -38.5zM160 -198l44 150h73l-66 -150h-51z" />
    <glyph glyph-name="uni021A" unicode="&#x21a;" horiz-adv-x="565" 
d="M245 0v591h-231v71h537v-71h-231v-591h-75zM198 -198l44 150h73l-66 -150h-51z" />
    <glyph glyph-name="uni021B" unicode="&#x21b;" horiz-adv-x="326" 
d="M119 0v434h-102v66h102v179h75v-179h115v-66h-115v-434h-75zM75 -198l44 150h73l-66 -150h-51z" />
    <glyph glyph-name="uni021E" unicode="&#x21e;" horiz-adv-x="697" 
d="M81 0v662h75v-294h385v294h75v-662h-75v295h-385v-295h-75zM306 725l-98 105h82l59 -54l59 54h82l-97 -105h-87z" />
    <glyph glyph-name="uni021F" unicode="&#x21f;" horiz-adv-x="566" 
d="M65 0v700h75v-278q27 36 66 61t100 25q52 0 97.5 -24.5t74 -73t28.5 -119.5v-291h-75v289q0 68 -39 109.5t-101 41.5q-42 0 -76 -19t-54.5 -53.5t-20.5 -79.5v-288h-75zM59 763l-98 105h82l59 -54l59 54h82l-97 -105h-87z" />
    <glyph glyph-name="uni0220" unicode="&#x220;" horiz-adv-x="658" 
d="M81 0v661h75v-78q36 45 87.5 66.5t103.5 21.5q59 0 111.5 -23t85.5 -71.5t33 -124.5v-650h-75v648q0 56 -25.5 88t-65.5 46t-84 14q-43 0 -82 -16t-64 -48.5t-25 -81.5v-452h-75z" />
    <glyph glyph-name="uni0222" unicode="&#x222;" horiz-adv-x="750" 
d="M561 354q74 -25 112 -69t38 -98q0 -52 -38 -96.5t-112.5 -71.5t-185.5 -27q-110 0 -185 27t-113 71.5t-38 96.5q0 54 38 98t111 69q-44 22 -69.5 54.5t-25.5 72.5v181h75v-181q0 -34 30 -56.5t77.5 -33.5t99.5 -11q53 0 100 11t76.5 33.5t29.5 56.5v181h75v-181
q0 -40 -25 -72.5t-70 -54.5zM375 62q81 0 139.5 17t90 45.5t31.5 62.5q0 36 -31.5 65.5t-90 47t-139.5 17.5q-80 0 -139 -17.5t-90.5 -47t-31.5 -65.5q0 -34 31.5 -62.5t90.5 -45.5t139 -17z" />
    <glyph glyph-name="uni0223" unicode="&#x223;" horiz-adv-x="564" 
d="M407 352q59 -23 91 -67.5t32 -101.5q0 -53 -30.5 -96.5t-86.5 -69t-131 -25.5q-76 0 -132 25.5t-86 69t-30 96.5q0 55 32.5 100t91.5 69q-38 20 -62 53t-24 79v216h75v-214q0 -47 37.5 -79t97.5 -32t97.5 32t37.5 79v214h75v-216q0 -46 -23.5 -79t-61.5 -53zM282 62
q83 0 128 36t45 85q0 50 -45 85.5t-128 35.5t-128 -35.5t-45 -85.5q0 -49 45 -85t128 -36z" />
    <glyph glyph-name="uni0226" unicode="&#x226;" horiz-adv-x="662" 
d="M3 0l281 662h94l281 -662h-83l-81 192h-328l-81 -192h-83zM196 261h270l-135 323zM287 732v83h89v-83h-89z" />
    <glyph glyph-name="uni0227" unicode="&#x227;" horiz-adv-x="595" 
d="M276 -8q-73 0 -127.5 34.5t-84.5 93.5t-30 130q0 72 30 130.5t84.5 93t127.5 34.5q62 0 106.5 -24t72.5 -65v81h75v-500h-75v80q-28 -40 -72.5 -64t-106.5 -24zM286 60q56 0 94.5 26t58.5 69.5t20 94.5q0 52 -20 95t-58.5 69t-94.5 26q-55 0 -95 -26t-61 -69t-21 -95
q0 -51 21 -94.5t61 -69.5t95 -26zM254 580v83h89v-83h-89z" />
    <glyph glyph-name="uni0228" unicode="&#x228;" horiz-adv-x="608" 
d="M568 590h-412v-222h368v-73h-368v-223h412v-72h-204l-29 -51q12 2 22 2q38 0 65 -20.5t27 -56.5q0 -42 -34 -61.5t-80 -19.5q-38 0 -68.5 12.5t-49.5 28.5l19 33q16 -11 37 -20.5t48 -9.5q23 0 39 8t16 28q0 15 -16 24t-37 9q-18 0 -35 -5l-21 17l52 82h-238v662h487v-72
z" />
    <glyph glyph-name="uni0229" unicode="&#x229;" horiz-adv-x="557" 
d="M530 250v-30h-419q6 -44 28.5 -80.5t60.5 -58t88 -21.5q53 0 89 23.5t56 60.5h82q-25 -64 -76.5 -105t-132.5 -46l-24 -43q12 2 22 2q38 0 65 -20.5t27 -56.5q0 -42 -34 -61.5t-80 -19.5q-38 0 -68.5 12.5t-49.5 28.5l19 33q16 -11 37 -20.5t48 -9.5q23 0 39 8t16 28
q0 15 -16 24t-37 9q-18 0 -35 -5l-21 17l47 74q-69 6 -120 41.5t-79 92t-28 123.5q0 72 30 130.5t86 93t132 34.5q77 0 132.5 -34.5t85.5 -93t30 -130.5zM112 290h340q-10 64 -54 107t-116 43t-115.5 -43t-54.5 -107z" />
    <glyph glyph-name="uni022A" unicode="&#x22a;" horiz-adv-x="750" 
d="M375 -8q-75 0 -137 26t-106.5 73t-68.5 108.5t-24 131.5q0 71 24 132t68.5 108t106.5 73t137 26t137 -26t106.5 -73t68.5 -108t24 -132q0 -70 -24 -131.5t-68.5 -108.5t-106.5 -73t-137 -26zM375 65q81 0 139.5 35.5t90 96t31.5 134.5q0 75 -31.5 135t-90 95.5
t-139.5 35.5q-80 0 -139 -35.5t-90.5 -95.5t-31.5 -135q0 -74 31.5 -134.5t90.5 -96t139 -35.5zM252 730v83h89v-83h-89zM409 730v83h89v-83h-89zM243 858v60h264v-60h-264z" />
    <glyph glyph-name="uni022B" unicode="&#x22b;" horiz-adv-x="564" 
d="M282 -8q-76 0 -132 34.5t-86 93.5t-30 130q0 72 30 130.5t86 93t132 34.5q77 0 132.5 -34.5t85.5 -93t30 -130.5q0 -71 -30 -130t-85.5 -93.5t-132.5 -34.5zM282 60q56 0 94.5 26t58.5 69.5t20 94.5q0 52 -20 95t-58.5 69t-94.5 26q-55 0 -94 -26t-59 -69t-20 -95
q0 -51 20 -94.5t59 -69.5t94 -26zM160 579v83h89v-83h-89zM317 579v83h89v-83h-89zM153 712v60h264v-60h-264z" />
    <glyph glyph-name="uni022C" unicode="&#x22c;" horiz-adv-x="750" 
d="M375 -8q-75 0 -137 26t-106.5 73t-68.5 108.5t-24 131.5q0 71 24 132t68.5 108t106.5 73t137 26t137 -26t106.5 -73t68.5 -108t24 -132q0 -70 -24 -131.5t-68.5 -108.5t-106.5 -73t-137 -26zM375 65q81 0 139.5 35.5t90 96t31.5 134.5q0 75 -31.5 135t-90 95.5
t-139.5 35.5q-80 0 -139 -35.5t-90.5 -95.5t-31.5 -135q0 -74 31.5 -134.5t90.5 -96t139 -35.5zM445 723q-33 0 -54.5 10t-40 20t-41.5 10t-34 -13t-16 -26h-31q5 37 26.5 67.5t70.5 30.5q32 0 53.5 -10t40 -20.5t41.5 -10.5q22 0 33.5 13.5t15.5 26.5h32
q-5 -37 -26.5 -67.5t-69.5 -30.5zM253 858v60h264v-60h-264z" />
    <glyph glyph-name="uni022D" unicode="&#x22d;" horiz-adv-x="564" 
d="M282 -8q-76 0 -132 34.5t-86 93.5t-30 130q0 72 30 130.5t86 93t132 34.5q77 0 132.5 -34.5t85.5 -93t30 -130.5q0 -71 -30 -130t-85.5 -93.5t-132.5 -34.5zM282 60q56 0 94.5 26t58.5 69.5t20 94.5q0 52 -20 95t-58.5 69t-94.5 26q-55 0 -94 -26t-59 -69t-20 -95
q0 -51 20 -94.5t59 -69.5t94 -26zM343 569q-33 0 -54.5 10t-40 20t-41.5 10t-34 -13t-16 -26h-31q5 37 26.5 67.5t70.5 30.5q32 0 53.5 -10t40 -20.5t41.5 -10.5q22 0 33.5 13.5t15.5 26.5h32q-5 -37 -26.5 -67.5t-69.5 -30.5zM151 727v60h264v-60h-264z" />
    <glyph glyph-name="uni022E" unicode="&#x22e;" horiz-adv-x="750" 
d="M375 -8q-75 0 -137 26t-106.5 73t-68.5 108.5t-24 131.5q0 71 24 132t68.5 108t106.5 73t137 26t137 -26t106.5 -73t68.5 -108t24 -132q0 -70 -24 -131.5t-68.5 -108.5t-106.5 -73t-137 -26zM375 65q81 0 139.5 35.5t90 96t31.5 134.5q0 75 -31.5 135t-90 95.5
t-139.5 35.5q-80 0 -139 -35.5t-90.5 -95.5t-31.5 -135q0 -74 31.5 -134.5t90.5 -96t139 -35.5zM331 732v83h89v-83h-89z" />
    <glyph glyph-name="uni022F" unicode="&#x22f;" horiz-adv-x="564" 
d="M282 -8q-76 0 -132 34.5t-86 93.5t-30 130q0 72 30 130.5t86 93t132 34.5q77 0 132.5 -34.5t85.5 -93t30 -130.5q0 -71 -30 -130t-85.5 -93.5t-132.5 -34.5zM282 60q56 0 94.5 26t58.5 69.5t20 94.5q0 52 -20 95t-58.5 69t-94.5 26q-55 0 -94 -26t-59 -69t-20 -95
q0 -51 20 -94.5t59 -69.5t94 -26zM238 580v83h89v-83h-89z" />
    <glyph glyph-name="uni0230" unicode="&#x230;" horiz-adv-x="750" 
d="M375 -8q-75 0 -137 26t-106.5 73t-68.5 108.5t-24 131.5q0 71 24 132t68.5 108t106.5 73t137 26t137 -26t106.5 -73t68.5 -108t24 -132q0 -70 -24 -131.5t-68.5 -108.5t-106.5 -73t-137 -26zM375 65q81 0 139.5 35.5t90 96t31.5 134.5q0 75 -31.5 135t-90 95.5
t-139.5 35.5q-80 0 -139 -35.5t-90.5 -95.5t-31.5 -135q0 -74 31.5 -134.5t90.5 -96t139 -35.5zM331 732v83h89v-83h-89zM244 848v60h264v-60h-264z" />
    <glyph glyph-name="uni0231" unicode="&#x231;" horiz-adv-x="564" 
d="M282 -8q-76 0 -132 34.5t-86 93.5t-30 130q0 72 30 130.5t86 93t132 34.5q77 0 132.5 -34.5t85.5 -93t30 -130.5q0 -71 -30 -130t-85.5 -93.5t-132.5 -34.5zM282 60q56 0 94.5 26t58.5 69.5t20 94.5q0 52 -20 95t-58.5 69t-94.5 26q-55 0 -94 -26t-59 -69t-20 -95
q0 -51 20 -94.5t59 -69.5t94 -26zM238 580v83h89v-83h-89zM151 712v60h264v-60h-264z" />
    <glyph glyph-name="uni0232" unicode="&#x232;" horiz-adv-x="636" 
d="M281 0v262l-278 400h91l224 -322l224 322h91l-277 -400v-262h-75zM187 736v60h264v-60h-264z" />
    <glyph glyph-name="uni0233" unicode="&#x233;" horiz-adv-x="497" 
d="M117 -198l91 205l-204 493h83l161 -410l164 410h82l-296 -698h-81zM117 584v60h264v-60h-264z" />
    <glyph glyph-name="uni0237" unicode="&#x237;" horiz-adv-x="205" 
d="M65 -198v698h75v-698h-75z" />
    <glyph glyph-name="uni023A" unicode="&#x23a;" horiz-adv-x="662" 
d="M3 0l281 662h94l33 -77l59 140h70l-95 -222l214 -503h-83l-81 192h-182l-114 -267h-70l114 267h-76l-81 -192h-83zM196 261h76l98 230l-39 93zM466 261l-61 147l-63 -147h124z" />
    <glyph glyph-name="uni023B" unicode="&#x23b;" horiz-adv-x="690" 
d="M145 -75l47 110q-73 44 -113 122.5t-40 173.5q0 94 38.5 171t110.5 122.5t171 45.5q52 0 98 -13l29 68h70l-39 -92q51 -27 87 -70.5t55 -98.5h-79q-29 70 -91 104l-209 -491q39 -12 85 -12q82 0 136 36t79 97h79q-21 -60 -63 -106.5t-102 -73t-135 -26.5q-58 0 -108 17
l-36 -84h-70zM114 331q0 -72 27.5 -131.5t80.5 -94.5l207 485q-30 7 -64 7q-80 0 -136.5 -35.5t-85.5 -95.5t-29 -135z" />
    <glyph glyph-name="uni023C" unicode="&#x23c;" horiz-adv-x="544" 
d="M280 -8q-34 0 -65 8l-32 -75h-70l42 99q-57 33 -89 93t-32 133q0 72 30.5 130.5t85.5 93t130 34.5q40 0 76 -10l33 77h70l-44 -103q76 -45 101 -129h-81q-16 40 -47 64l-145 -341q22 -6 47 -6q53 0 90.5 27t54.5 70h81q-22 -73 -84.5 -119t-151.5 -46zM109 250
q0 -48 19.5 -89.5t55.5 -67.5l146 342q-19 5 -40 5q-55 0 -96 -26t-63 -69t-22 -95z" />
    <glyph glyph-name="uni023D" unicode="&#x23d;" horiz-adv-x="533" 
d="M81 0v298h-74v65h74v299h75v-299h199v-65h-199v-226h361v-72h-436z" />
    <glyph glyph-name="uni023E" unicode="&#x23e;" horiz-adv-x="565" 
d="M109 -75l136 319v347h-231v71h409l27 63h70l-27 -63h58v-71h-88l-143 -335v-256h-75v80l-66 -155h-70zM320 591v-171l73 171h-73z" />
    <glyph glyph-name="uni0241" unicode="&#x241;" horiz-adv-x="591" 
d="M301 670q86 0 140 -26.5t79.5 -68t25.5 -86.5q0 -41 -15 -71.5t-38 -53.5t-49.5 -44t-49.5 -43t-38 -49t-15 -65v-163h-73v163q0 52 20.5 88.5t51 64t60.5 52.5t50.5 53.5t20.5 67.5q0 25 -14 51t-49.5 43.5t-100.5 17.5q-61 0 -102.5 -19t-63.5 -50t-26 -66h-75
q4 55 36 101.5t89.5 74.5t135.5 28z" />
    <glyph glyph-name="uni0242" unicode="&#x242;" horiz-adv-x="510" 
d="M260 508q72 0 117.5 -26.5t66.5 -68t21 -86.5q0 -44 -16.5 -73.5t-41 -52t-49.5 -44.5t-41.5 -49t-16.5 -67v-41h-73v41q0 46 17 78t42 56t49.5 45.5t41.5 47t17 59.5q0 25 -11.5 51t-39.5 43.5t-77 17.5t-82.5 -19t-52 -50t-21.5 -66h-71q3 55 30.5 101.5t76 74.5
t114.5 28z" />
    <glyph glyph-name="uni0243" unicode="&#x243;" horiz-adv-x="662" 
d="M81 0v152h-65v65h65v445h297q78 0 123.5 -27t65.5 -67.5t20 -80.5q0 -64 -27 -98.5t-62 -50.5q28 -9 56.5 -28.5t47.5 -52.5t19 -83q0 -74 -56.5 -124t-169.5 -50h-314zM156 366h222q35 0 65.5 12t49.5 37.5t19 65.5q0 28 -12.5 53t-40 41t-73.5 16h-230v-225zM156 71
h247q68 0 105.5 28.5t37.5 80.5q0 47 -36 82.5t-115 35.5h-239v-81h188v-65h-188v-81z" />
    <glyph glyph-name="uni0244" unicode="&#x244;" horiz-adv-x="709" 
d="M354 -8q-82 0 -145.5 36.5t-99.5 102.5t-36 154v13h-66v65h66v299h75v-299h413v299h75v-299h66v-65h-66v-13q0 -87 -36 -153t-99.5 -103t-146.5 -37zM148 283q0 -77 29.5 -125t77 -70.5t99.5 -22.5q53 0 100 22.5t77 70.5t30 125v15h-413v-15z" />
    <glyph glyph-name="uni0245" unicode="&#x245;" horiz-adv-x="628" 
d="M271 662l-268 -662h82l229 577l229 -577h82l-268 662h-86z" />
    <glyph glyph-name="uni0246" unicode="&#x246;" horiz-adv-x="608" 
d="M81 0v662h362l27 63h70l-27 -63h55v-72h-86l-94 -222h136v-73h-167l-95 -223h306v-72h-337l-32 -75h-70l32 75h-80zM156 368h162l94 222h-256v-222zM156 72h36l95 223h-131v-223z" />
    <glyph glyph-name="uni0247" unicode="&#x247;" horiz-adv-x="557" 
d="M287 -8q-38 0 -72 9l-32 -76h-70l43 101q-58 33 -90 92.5t-32 131.5t30 130.5t86 93t132 34.5q39 0 74 -10l33 77h70l-44 -103q55 -33 85 -92t30 -130v-30h-222l-65 -155q21 -5 45 -5q53 0 89 23.5t56 60.5h82q-26 -67 -82.5 -109.5t-145.5 -42.5zM112 290h156l61 144
q-22 6 -47 6q-72 0 -115.5 -43t-54.5 -107zM452 290q-6 36 -22.5 66t-42.5 50l-49 -116h114zM111 220q5 -40 23.5 -73t49.5 -55l54 128h-127z" />
    <glyph glyph-name="uni0248" unicode="&#x248;" horiz-adv-x="527" 
d="M236 -8q-71 0 -118.5 27.5t-72.5 70t-30 87.5h78q4 -26 21 -52t48 -43t78 -17q45 0 72.5 14.5t41 38.5t18.5 51.5t5 52.5v77h-167v65h167v298h75v-298h106v-65h-106v-80q0 -58 -20.5 -110t-68 -84.5t-127.5 -32.5z" />
    <glyph glyph-name="uni0249" unicode="&#x249;" horiz-adv-x="205" 
d="M62 584v98h81v-98h-81zM65 -198v416h-65v65h65v217h75v-217h65v-65h-65v-416h-75z" />
    <glyph glyph-name="uni024A" unicode="&#x24a;" horiz-adv-x="752" 
d="M671 8q0 -76 25 -110.5t77 -34.5v-69q-76 0 -126.5 47.5t-50.5 137.5v125q-41 -52 -102.5 -82t-138.5 -30q-71 0 -129 26t-100 73t-64.5 108.5t-22.5 131.5q0 71 22.5 132t64.5 108t100 73t129 26q77 0 138 -30.5t103 -82.5v105h75v-654zM355 65q75 0 129 35t83 95.5
t29 135.5t-29 135t-83 95.5t-129 35.5q-74 0 -128.5 -35.5t-83.5 -95.5t-29 -135q0 -74 29 -134.5t83.5 -96t128.5 -35.5z" />
    <glyph glyph-name="uni024B" unicode="&#x24b;" horiz-adv-x="595" 
d="M276 -8q-73 0 -127.5 34.5t-84.5 93.5t-30 130q0 72 30 130.5t84.5 93t127.5 34.5q62 0 106.5 -24t72.5 -65v81h75v-562q0 -16 4 -34t20 -30.5t52 -12.5q11 0 24 3v-68q-8 -1 -15 -1.5t-15 -0.5q-62 0 -93.5 22.5t-41.5 56t-10 65.5v142q-28 -40 -72.5 -64t-106.5 -24z
M286 60q56 0 94.5 26t58.5 69.5t20 94.5q0 52 -20 95t-58.5 69t-94.5 26q-55 0 -95 -26t-61 -69t-21 -95q0 -51 21 -94.5t61 -69.5t95 -26z" />
    <glyph glyph-name="uni024C" unicode="&#x24c;" horiz-adv-x="669" 
d="M81 0v254h-106v71h106v337h317q102 0 162.5 -56t60.5 -151q0 -64 -24.5 -102t-61.5 -57.5t-74 -28.5l174 -267h-89l-160 254h-230v-254h-75zM156 325h229q36 0 73 11t62.5 39.5t25.5 79.5q0 63 -43 99.5t-114 36.5h-233v-266z" />
    <glyph glyph-name="uni024D" unicode="&#x24d;" horiz-adv-x="345" 
d="M65 0v218h-65v65h65v217h75v-123q4 13 15.5 34.5t33.5 43.5t55.5 37.5t79.5 15.5h5v-75h-9q-68 0 -112.5 -43.5t-59.5 -106.5h97v-65h-105v-218h-75z" />
    <glyph glyph-name="uni024E" unicode="&#x24e;" horiz-adv-x="636" 
d="M281 0v262l-149 215h-132v65h86l-83 120h91l83 -120h282l83 120h91l-83 -120h86v-65h-131l-149 -215v-262h-75zM318 340l95 137h-190z" />
    <glyph glyph-name="uni024F" unicode="&#x24f;" horiz-adv-x="497" 
d="M117 -198l91 205l-87 211h-108v65h81l-90 217h83l85 -217h153l87 217h82l-92 -217h92v-65h-120l-176 -416h-81zM248 90l51 128h-101z" />
    <glyph glyph-name="uni0251" unicode="&#x251;" horiz-adv-x="610" 
d="M530 198q0 -71 25 -104.5t75 -32.5v-69q-55 0 -98.5 25.5t-63.5 72.5q-28 -46 -80.5 -72t-111.5 -26q-73 0 -127.5 34.5t-84.5 93.5t-30 130q0 72 30 130.5t84.5 93t127.5 34.5q62 0 106.5 -24t72.5 -65v81h75v-302zM286 60q56 0 94.5 26t58.5 69.5t20 94.5q0 52 -20 95
t-58.5 69t-94.5 26q-55 0 -95 -26t-61 -69t-21 -95q0 -51 21 -94.5t61 -69.5t95 -26z" />
    <glyph glyph-name="uni0253" unicode="&#x253;" horiz-adv-x="595" 
d="M319 508q73 0 127.5 -34.5t84.5 -93t30 -130.5q0 -71 -30 -130t-84.5 -93.5t-127.5 -34.5q-62 0 -106.5 24t-72.5 64v-80h-75v563q0 33 10 66t41.5 55.5t93.5 22.5q8 0 15 -0.5t15 -1.5v-68q-13 3 -24 3q-36 0 -52 -12.5t-20 -30t-4 -34.5v-144q28 41 72.5 65t106.5 24z
M309 60q56 0 95.5 26t60.5 69.5t21 94.5q0 52 -21 95t-60.5 69t-95.5 26q-55 0 -94 -26t-59 -69t-20 -95q0 -51 20 -94.5t59 -69.5t94 -26z" />
    <glyph glyph-name="uni0254" unicode="&#x254;" horiz-adv-x="544" 
d="M264 -8q75 0 130 34.5t85.5 93.5t30.5 130q0 72 -30.5 130.5t-85.5 93t-130 34.5q-89 0 -151.5 -46t-84.5 -119h81q17 43 54.5 70t90.5 27q55 0 96 -26t63 -69t22 -95q0 -51 -22 -94.5t-63 -69.5t-96 -26q-53 0 -90.5 27t-54.5 70h-81q22 -73 84.5 -119t151.5 -46z" />
    <glyph glyph-name="uni0256" unicode="&#x256;" horiz-adv-x="595" 
d="M276 -8q-73 0 -127.5 34.5t-84.5 93.5t-30 130q0 72 30 130.5t84.5 93t127.5 34.5q62 0 106.5 -24t72.5 -65v281h75v-762q0 -16 4 -34t20.5 -30.5t51.5 -12.5q11 0 24 3v-68q-8 -1 -15 -1.5t-15 -0.5q-62 0 -93.5 22.5t-41.5 56t-10 65.5v142q-28 -40 -72.5 -64
t-106.5 -24zM286 60q56 0 94.5 26t58.5 69.5t20 94.5q0 52 -20 95t-58.5 69t-94.5 26q-55 0 -95 -26t-61 -69t-21 -95q0 -51 21 -94.5t61 -69.5t95 -26z" />
    <glyph glyph-name="uni0257" unicode="&#x257;" horiz-adv-x="600" 
d="M600 708q8 0 15 -0.5t15 -1.5v-68q-13 3 -24 3q-36 0 -52 -12.5t-20 -30t-4 -34.5v-564h-75v80q-28 -40 -72.5 -64t-106.5 -24q-73 0 -127.5 34.5t-84.5 93.5t-30 130q0 72 30 130.5t84.5 93t127.5 34.5q62 0 106.5 -24t72.5 -65v145q0 33 10 66t41.5 55.5t93.5 22.5z
M286 60q56 0 94.5 26t58.5 69.5t20 94.5q0 52 -20 95t-58.5 69t-94.5 26q-55 0 -95 -26t-61 -69t-21 -95q0 -51 21 -94.5t61 -69.5t95 -26z" />
    <glyph glyph-name="uni0259" unicode="&#x259;" horiz-adv-x="557" 
d="M277 508q76 0 133 -34.5t88.5 -93.5t31.5 -130q0 -72 -30 -130.5t-86 -93t-132 -34.5q-77 0 -132.5 34.5t-85.5 93t-30 130.5v30h419q-6 44 -28.5 80.5t-60.5 58t-88 21.5q-53 0 -89 -23.5t-56 -60.5h-82q26 67 82.5 109.5t145.5 42.5zM452 210h-340q10 -64 54 -107
t116 -43t115.5 43t54.5 107z" />
    <glyph glyph-name="uni025B" unicode="&#x25b;" horiz-adv-x="446" 
d="M233 -8q-55 0 -99 21t-69 56.5t-25 80.5q0 36 21 66t57 46q-25 17 -43.5 46.5t-18.5 59.5q0 47 25 78t64 46.5t82 15.5q44 0 84 -16t66.5 -47.5t28.5 -79.5h-73q-3 35 -35 55t-69 20t-67 -19.5t-30 -54.5q0 -30 29.5 -52.5t72.5 -22.5h59v-64h-66q-48 0 -80 -23t-32 -55
q0 -37 32.5 -63t85.5 -26q30 0 55 12.5t40.5 32.5t15.5 42h74q0 -43 -25.5 -78.5t-67.5 -56t-92 -20.5z" />
    <glyph glyph-name="uni0260" unicode="&#x260;" horiz-adv-x="600" 
d="M294 -206q-94 0 -153 40.5t-80 105.5h83q15 -37 52 -57.5t94 -20.5q86 0 125.5 40.5t39.5 117.5v69q-28 -40 -72.5 -64.5t-106.5 -24.5q-73 0 -127.5 33.5t-84.5 91.5t-30 129q0 72 30 129.5t84.5 91t127.5 33.5q62 0 106.5 -23.5t72.5 -64.5v144q0 33 10 66t41.5 55.5
t93.5 22.5q8 0 15 -0.5t15 -1.5v-68q-13 3 -24 3q-36 0 -52 -12.5t-20 -30t-4 -34.5v-549q0 -107 -61.5 -164t-174.5 -57zM286 68q55 0 93.5 25t59 67.5t20.5 93.5q0 52 -20.5 94t-59 67t-93.5 25t-95 -25t-61 -67t-21 -94q0 -51 21 -93.5t61 -67.5t95 -25z" />
    <glyph glyph-name="uni0263" unicode="&#x263;" horiz-adv-x="532" 
d="M212 -64q0 -28 13 -47t41 -19q29 0 41.5 19t12.5 47q0 11 -4 24t-15.5 35.5t-34.5 61.5q-23 -39 -34.5 -61.5t-15.5 -35.5t-4 -24zM5 500h84q57 -97 100.5 -171.5t76.5 -130.5q33 56 76.5 130.5t100.5 171.5h84q-77 -132 -131 -222.5t-89 -150.5q33 -58 52 -94.5
t26.5 -60t7.5 -41.5q0 -62 -34.5 -98t-92.5 -36t-92.5 36t-34.5 98q0 18 7.5 41.5t26.5 60t52 94.5q-35 60 -89 150.5t-131 222.5z" />
    <glyph glyph-name="uni0265" unicode="&#x265;" horiz-adv-x="566" 
d="M501 500v-700h-75v278q-27 -36 -66 -61t-100 -25q-52 0 -97.5 24.5t-74 73t-28.5 119.5v291h75v-289q0 -68 39 -109.5t101 -41.5q42 0 76 19t54.5 53.5t20.5 79.5v288h75z" />
    <glyph glyph-name="uni0266" unicode="&#x266;" horiz-adv-x="566" 
d="M306 508q52 0 97.5 -24.5t74 -73t28.5 -119.5v-291h-75v289q0 68 -39 109.5t-101 41.5q-42 0 -76 -19t-54.5 -53.5t-20.5 -79.5v-288h-75v564q0 33 10 66t41.5 55.5t93.5 22.5q8 0 15 -0.5t15 -1.5v-68q-13 3 -24 3q-36 0 -52 -12.5t-20 -30t-4 -34.5v-142q27 36 66 61
t100 25z" />
    <glyph glyph-name="uni0268" unicode="&#x268;" horiz-adv-x="205" 
d="M62 584v98h81v-98h-81zM65 0v218h-65v65h65v217h75v-217h65v-65h-65v-218h-75z" />
    <glyph glyph-name="uni0269" unicode="&#x269;" horiz-adv-x="304" 
d="M248 60q11 0 22.5 1t23.5 3v-67q-14 -3 -28 -4t-27 -1q-77 0 -126 46t-48 131v331h75v-309q0 -70 28.5 -100.5t79.5 -30.5z" />
    <glyph glyph-name="uni026A" unicode="&#x26a;" horiz-adv-x="329" 
d="M62 0v66h65v368h-65v66h205v-66h-65v-368h65v-66h-205z" />
    <glyph glyph-name="uni026B" unicode="&#x26b;" horiz-adv-x="379" 
d="M147 0v355q-13 5 -26 8.5t-28 3.5q-26 0 -38.5 -15t-17.5 -28h-37q4 26 16.5 50.5t35.5 40t60 15.5q18 0 35 -3v273h75v-298q15 -7 30.5 -11.5t33.5 -4.5q25 0 38.5 15t16.5 28h38q-4 -26 -16 -50.5t-35 -40t-60 -15.5q-24 0 -46 5v-328h-75z" />
    <glyph glyph-name="uni026C" unicode="&#x26c;" horiz-adv-x="205" 
d="M65 0v298h-11q-68 0 -99.5 26.5t-31.5 66.5q0 37 23 61.5t61 24.5q33 0 58 -17v240h75v-337h67v-65h-67v-298h-75zM43 363h22v18q-3 21 -15 33.5t-31 12.5q-32 0 -32 -30q0 -15 14 -24.5t42 -9.5z" />
    <glyph glyph-name="uni026F" unicode="&#x26f;" horiz-adv-x="868" 
d="M803 500v-500h-75v76q-17 -30 -54 -57t-98 -27q-50 0 -92.5 26.5t-66.5 74.5q-10 -17 -31.5 -41t-56.5 -42t-84 -18q-48 0 -90 25t-68.5 71.5t-26.5 109.5v302h75v-300q0 -63 35.5 -101.5t88.5 -38.5q55 0 95 37t40 104v299h75v-300q0 -63 35.5 -101.5t88.5 -38.5
q55 0 95 37t40 104v299h75z" />
    <glyph glyph-name="uni0272" unicode="&#x272;" horiz-adv-x="566" 
d="M-5 -206q-7 0 -14.5 0.5t-15.5 1.5v68q14 -3 24 -3q36 0 52 12.5t20 30.5t4 34v562h75v-78q27 36 66 61t100 25q52 0 97.5 -24.5t74 -73t28.5 -119.5v-291h-75v289q0 68 -39 109.5t-101 41.5q-42 0 -76 -19t-54.5 -53.5t-20.5 -79.5v-350q0 -32 -10 -65.5t-41 -56
t-94 -22.5z" />
    <glyph glyph-name="uni0275" unicode="&#x275;" horiz-adv-x="564" 
d="M282 -8q-76 0 -132 34.5t-86 93.5t-30 130q0 72 30 130.5t86 93t132 34.5q77 0 132.5 -34.5t85.5 -93t30 -130.5q0 -71 -30 -130t-85.5 -93.5t-132.5 -34.5zM282 440q-74 0 -118 -45.5t-53 -111.5h342q-9 66 -53 111.5t-118 45.5zM282 60q74 0 118 46t53 112h-342
q9 -66 53 -112t118 -46z" />
    <glyph glyph-name="uni027D" unicode="&#x27d;" horiz-adv-x="345" 
d="M210 -206q-62 0 -93.5 22.5t-41.5 56t-10 65.5v562h75v-123q4 13 15.5 34.5t33.5 43.5t55.5 37.5t79.5 15.5h5v-75h-9q-56 0 -96.5 -30.5t-62 -79t-21.5 -103.5v-282q0 -16 4 -34t20 -30.5t52 -12.5q11 0 24 3v-68q-8 -1 -15 -1.5t-15 -0.5z" />
    <glyph glyph-name="uni027E" unicode="&#x27e;" horiz-adv-x="305" 
d="M65 0v310q0 66 33 110t83.5 66t102.5 22h5v-75h-9q-43 0 -74.5 -17.5t-48.5 -45.5t-17 -60v-310h-75z" />
    <glyph glyph-name="uni0283" unicode="&#x283;" horiz-adv-x="307" 
d="M284 708h6v-71h-10q-52 0 -79 -23.5t-27 -75.5v-572q0 -82 -49.5 -123t-135.5 -41h-6v71h10q53 0 79.5 23.5t26.5 75.5v572q0 82 49.5 123t135.5 41z" />
    <glyph glyph-name="uni0288" unicode="&#x288;" horiz-adv-x="326" 
d="M264 -206q-62 0 -93.5 22.5t-41.5 56t-10 65.5v496h-102v66h102v179h75v-179h115v-66h-115v-496q0 -16 4 -34t20 -30.5t52 -12.5q11 0 24 3v-68q-8 -1 -15 -1.5t-15 -0.5z" />
    <glyph glyph-name="uni0289" unicode="&#x289;" horiz-adv-x="566" 
d="M260 -8q-51 0 -97 24.5t-74.5 73t-28.5 119.5v73h-85v65h85v153h75v-153h291v153h75v-153h85v-65h-85v-282h-75v78q-27 -36 -66 -61t-100 -25zM135 211q0 -68 39.5 -109.5t100.5 -41.5q42 0 76 19.5t54.5 53.5t20.5 79v70h-291v-71z" />
    <glyph glyph-name="uni028A" unicode="&#x28a;" horiz-adv-x="560" 
d="M386 434q69 -21 101.5 -78t32.5 -125q0 -62 -25 -116.5t-78 -87.5t-137 -33q-83 0 -136 33t-78.5 87.5t-25.5 116.5q0 68 32.5 125t101.5 78h-111v64h174v-95q-38 -6 -65.5 -31t-42 -61t-14.5 -77q0 -45 17.5 -85t54 -65t93.5 -25t93.5 25t54 65t17.5 85
q0 62 -31.5 110.5t-90.5 58.5v95h174v-64h-111z" />
    <glyph glyph-name="uni028B" unicode="&#x28b;" horiz-adv-x="538" 
d="M318 503q14 2 27 3.5t25 1.5q67 0 100.5 -47t33.5 -133q0 -70 -20.5 -131.5t-57 -108t-84.5 -72.5t-104 -26q-88 0 -130.5 40.5t-42.5 122.5v347h75v-334q0 -60 23 -84t78 -24q48 0 83 25t58.5 65.5t35 86.5t11.5 88q0 59 -17 88t-57 29q-20 0 -37 -5v68z" />
    <glyph glyph-name="uni028C" unicode="&#x28c;" horiz-adv-x="489" 
d="M288 500l196 -500h-82l-158 420l-157 -420h-82l195 500h88z" />
    <glyph glyph-name="uni0292" unicode="&#x292;" horiz-adv-x="499" 
d="M163 167l1 61l144 206h-244v66h340v-61l-148 -207q58 -6 102 -34t68.5 -73.5t24.5 -104.5q0 -64 -27 -115.5t-75.5 -81t-113.5 -29.5q-47 0 -90.5 20t-75.5 56t-45 85h79q15 -41 52.5 -64.5t79.5 -23.5q66 0 103.5 43t37.5 110t-44.5 107t-113.5 40h-55z" />
    <glyph glyph-name="uni0294" unicode="&#x294;" horiz-adv-x="510" 
d="M260 708q72 0 117.5 -26.5t66.5 -68t21 -86.5q0 -44 -16.5 -73.5t-41 -52t-49.5 -44.5t-41.5 -49t-16.5 -67v-241h-73v241q0 46 17 78t42 56t49.5 45.5t41.5 47t17 59.5q0 25 -11.5 51t-39.5 43.5t-77 17.5t-82.5 -19t-52 -50t-21.5 -66h-71q3 55 30.5 101.5t76 74.5
t114.5 28z" />
    <glyph glyph-name="uni0295" unicode="&#x295;" horiz-adv-x="510" 
d="M250 708q-72 0 -117.5 -26.5t-66.5 -68t-21 -86.5q0 -44 16.5 -73.5t41 -52t49.5 -44.5t41.5 -49t16.5 -67v-241h73v241q0 46 -17 78t-42 56t-49.5 45.5t-41.5 47t-17 59.5q0 25 11.5 51t39.5 43.5t77 17.5t82.5 -19t52 -50t21.5 -66h71q-3 55 -30.5 101.5t-76 74.5
t-114.5 28z" />
    <glyph glyph-name="uni0298" unicode="&#x298;" horiz-adv-x="750" 
d="M326 282v102h97v-102h-97zM375 -8q-75 0 -137 26t-106.5 73t-68.5 108.5t-24 131.5q0 71 24 132t68.5 108t106.5 73t137 26t137 -26t106.5 -73t68.5 -108t24 -132q0 -70 -24 -131.5t-68.5 -108.5t-106.5 -73t-137 -26zM375 65q81 0 139.5 35.5t90 96t31.5 134.5
q0 75 -31.5 135t-90 95.5t-139.5 35.5q-80 0 -139 -35.5t-90.5 -95.5t-31.5 -135q0 -74 31.5 -134.5t90.5 -96t139 -35.5z" />
    <glyph glyph-name="uni029D" unicode="&#x29d;" horiz-adv-x="306" 
d="M244 682v-98h-81v98h81zM309 -86q-14 12 -31 22.5t-37 19.5q-1 -43 -16.5 -80t-48.5 -59.5t-87 -22.5q-55 0 -92 35.5t-37 93.5q0 50 36.5 85t106.5 35q22 -1 37.5 -2t25.5 -3v462h75v-480q38 -14 68 -39v-67zM35 -77q0 -22 15.5 -39t40.5 -17q33 0 49 16t21 39t5 44v11
q-27 6 -63 6q-31 0 -49.5 -17t-18.5 -43z" />
    <glyph glyph-name="uni02B0" unicode="&#x2b0;" horiz-adv-x="396" 
d="M45.501 290v455.018h52.501v-180.707q18.9004 23.4004 46.2002 39.6514q27.3008 16.251 70.002 16.251q36.4004 0 68.251 -15.9258t51.8008 -47.4521t19.9502 -77.6777v-189.157h-52.501v187.857q0 44.2012 -27.3008 71.1777q-27.2998 26.9756 -70.7012 26.9756
q-29.4004 0 -53.2002 -12.3506q-23.8008 -12.3506 -38.1514 -34.7764q-14.3496 -22.4258 -14.3496 -51.6768v-187.207h-52.501z" />
    <glyph glyph-name="uni02B7" unicode="&#x2b7;" horiz-adv-x="522" 
d="M113.402 290l-109.902 325.012h56.001l84.002 -264.56l88.9014 264.56h57.4004l88.9023 -264.56l84.001 264.56h56.001l-109.902 -325.012h-60.2002l-87.502 259.359l-87.501 -259.359h-60.2012z" />
    <glyph glyph-name="uni02B9" unicode="&#x2b9;" horiz-adv-x="262" 
d="M222 764l-114 -289h-68l84 289h98z" />
    <glyph glyph-name="uni02BA" unicode="&#x2ba;" horiz-adv-x="412" 
d="M222 764l-114 -289h-68l84 289h98zM372 764l-114 -289h-68l84 289h98z" />
    <glyph glyph-name="uni02BB" unicode="&#x2bb;" horiz-adv-x="218" 
d="M36 475l88 213h68l-58 -213h-98z" />
    <glyph glyph-name="uni02BC" unicode="&#x2bc;" horiz-adv-x="211" 
d="M196 688l-88 -213h-68l58 213h98z" />
    <glyph glyph-name="uni02BE" unicode="&#x2be;" horiz-adv-x="189" 
d="M44 544q42 0 71.5 29.5t29.5 71.5q0 43 -29.5 72.5t-71.5 29.5v-54q20 0 33 -13t13 -35q0 -20 -13 -33t-33 -13v-55z" />
    <glyph glyph-name="uni02BF" unicode="&#x2bf;" horiz-adv-x="189" 
d="M145 544q-42 0 -71.5 29.5t-29.5 71.5q0 43 29.5 72.5t71.5 29.5v-54q-20 0 -33 -13t-13 -35q0 -20 13 -33t33 -13v-55z" />
    <glyph glyph-name="uni02C0" unicode="&#x2c0;" horiz-adv-x="351" 
d="M149 405q0 37 16 60.5t37.5 41.5t37.5 37t16 47q0 21 -17.5 42t-59.5 21q-43 0 -66 -24t-23 -54h-55q0 36 17.5 66t49 48t73.5 18q47 0 77 -17t44.5 -44t14.5 -56q0 -28 -11 -47.5t-26.5 -34.5t-31.5 -29t-27 -31.5t-11 -43.5v-115h-55v115z" />
    <glyph glyph-name="circumflex" unicode="&#x2c6;" horiz-adv-x="384" 
d="M49 570l98 105h87l97 -105h-82l-59 54l-59 -54h-82z" />
    <glyph glyph-name="caron" unicode="&#x2c7;" horiz-adv-x="381" 
d="M147 570l-98 105h82l59 -54l59 54h82l-97 -105h-87z" />
    <glyph glyph-name="uni02C8" unicode="&#x2c8;" horiz-adv-x="156" 
d="M44 452v248h68v-248h-68z" />
    <glyph glyph-name="uni02C9" unicode="&#x2c9;" horiz-adv-x="382" 
d="M57 582v60h264v-60h-264z" />
    <glyph glyph-name="uni02CA" unicode="&#x2ca;" horiz-adv-x="349" 
d="M86 570l61 105h107l-107 -105h-61z" />
    <glyph glyph-name="uni02CB" unicode="&#x2cb;" horiz-adv-x="340" 
d="M200 570l-107 105h107l61 -105h-61z" />
    <glyph glyph-name="uni02CC" unicode="&#x2cc;" horiz-adv-x="156" 
d="M44 -198v248h68v-248h-68z" />
    <glyph glyph-name="uni02D7" unicode="&#x2d7;" horiz-adv-x="325" 
d="M50 138v65h225v-65h-225z" />
    <glyph glyph-name="breve" unicode="&#x2d8;" horiz-adv-x="465" 
d="M226 567q-49 0 -84 28t-35 67q0 8 2 15l4 14h18q3 -28 30 -46.5t65 -18.5q37 0 64 18.5t30 46.5h18q6 -13 6 -29q0 -39 -34.5 -67t-83.5 -28z" />
    <glyph glyph-name="dotaccent" unicode="&#x2d9;" horiz-adv-x="235" 
d="M74 579v83h89v-83h-89z" />
    <glyph glyph-name="ring" unicode="&#x2da;" horiz-adv-x="323" 
d="M163 556q-37 0 -63 26t-26 63q0 38 26 64t63 26q38 0 64.5 -26t26.5 -64q0 -37 -26.5 -63t-64.5 -26zM163 601q19 0 32 13t13 31q0 19 -13 32t-32 13q-17 0 -30 -13t-13 -32q0 -18 13 -31t30 -13z" />
    <glyph glyph-name="ogonek" unicode="&#x2db;" horiz-adv-x="309" 
d="M57 -121q0 34 19 57.5t46.5 39t50.5 26.5h56q-15 -9 -37.5 -24t-40 -35t-17.5 -45q0 -24 19 -37t41 -13q20 0 36 11v-39q-15 -12 -35 -18t-41 -6q-37 0 -67 21t-30 62z" />
    <glyph glyph-name="tilde" unicode="&#x2dc;" horiz-adv-x="463" 
d="M288 569q-33 0 -54.5 10t-40 20t-41.5 10t-34 -13t-16 -26h-31q5 37 26.5 67.5t70.5 30.5q32 0 53.5 -10t40 -20.5t41.5 -10.5q22 0 33.5 13.5t15.5 26.5h32q-5 -37 -26.5 -67.5t-69.5 -30.5z" />
    <glyph glyph-name="hungarumlaut" unicode="&#x2dd;" horiz-adv-x="523" 
d="M86 570l61 105h107l-107 -105h-61zM242 570l61 105h107l-107 -105h-61z" />
    <glyph glyph-name="uni02EE" unicode="&#x2ee;" horiz-adv-x="409" 
d="M394 688l-88 -213h-68l58 213h98zM196 688l-88 -213h-68l58 213h98z" />
    <glyph glyph-name="gravecomb" unicode="&#x300;" 
d="M107 570l-107 105h107l61 -105h-61z" />
    <glyph glyph-name="acutecomb" unicode="&#x301;" 
d="M0 570l61 105h107l-107 -105h-61z" />
    <glyph glyph-name="uni0302" unicode="&#x302;" 
d="M0 570l98 105h87l97 -105h-82l-59 54l-59 -54h-82z" />
    <glyph glyph-name="tildecomb" unicode="&#x303;" 
d="M217 569q-33 0 -54.5 10t-40 20t-41.5 10t-34 -13t-16 -26h-31q5 37 26.5 67.5t70.5 30.5q32 0 53.5 -10t40 -20.5t41.5 -10.5q22 0 33.5 13.5t15.5 26.5h32q-5 -37 -26.5 -67.5t-69.5 -30.5z" />
    <glyph glyph-name="uni0304" unicode="&#x304;" 
d="M0 584v60h264v-60h-264z" />
    <glyph glyph-name="uni0306" unicode="&#x306;" 
d="M119 567q-49 0 -84 28t-35 67q0 8 2 15l4 14h18q3 -28 30 -46.5t65 -18.5q37 0 64 18.5t30 46.5h18q6 -13 6 -29q0 -39 -34.5 -67t-83.5 -28z" />
    <glyph glyph-name="uni0307" unicode="&#x307;" 
d="M0 580v83h89v-83h-89z" />
    <glyph glyph-name="uni0308" unicode="&#x308;" 
d="M0 579v83h89v-83h-89zM157 579v83h89v-83h-89z" />
    <glyph glyph-name="hookabovecomb" unicode="&#x309;" 
d="M66 542l-25 35q26 13 41 25t15 32q0 14 -9.5 24.5t-27.5 10.5q-12 0 -25 -7t-22 -23l-41 29q12 28 36.5 42t57.5 14q39 0 62 -23.5t23 -56.5q0 -32 -20.5 -58.5t-64.5 -43.5z" />
    <glyph glyph-name="uni030A" unicode="&#x30a;" 
d="M89 556q-37 0 -63 26t-26 63q0 38 26 64t63 26q38 0 64.5 -26t26.5 -64q0 -37 -26.5 -63t-64.5 -26zM89 601q19 0 32 13t13 31q0 19 -13 32t-32 13q-17 0 -30 -13t-13 -32q0 -18 13 -31t30 -13z" />
    <glyph glyph-name="uni030B" unicode="&#x30b;" 
d="M0 570l61 105h107l-107 -105h-61zM156 570l61 105h107l-107 -105h-61z" />
    <glyph glyph-name="uni030C" unicode="&#x30c;" 
d="M98 570l-98 105h82l59 -54l59 54h82l-97 -105h-87z" />
    <glyph glyph-name="uni030D" unicode="&#x30d;" 
d="M44 750v198h68v-198h-68z" />
    <glyph glyph-name="uni030F" unicode="&#x30f;" 
d="M107 570l-107 105h107l61 -105h-61zM263 570l-107 105h107l61 -105h-61z" />
    <glyph glyph-name="uni0310" unicode="&#x310;" 
d="M119 567q-49 0 -84 28t-35 67q0 8 2 15l4 14h18q3 -28 30 -46.5t65 -18.5q37 0 64 18.5t30 46.5h18q6 -13 6 -29q0 -39 -34.5 -67t-83.5 -28zM74 715v83h89v-83h-89z" />
    <glyph glyph-name="uni0311" unicode="&#x311;" 
d="M119 678q-49 0 -84 -28t-35 -67q0 -8 2 -15l4 -14h18q3 28 30 46.5t65 18.5q37 0 64 -18.5t30 -46.5h18q6 13 6 29q0 39 -34.5 67t-83.5 28z" />
    <glyph glyph-name="uni0312" unicode="&#x312;" 
d="M0 720h51l66 -150h-73z" />
    <glyph glyph-name="uni0313" unicode="&#x313;" 
d="M117 729l-44 -150h-73l66 150h51z" />
    <glyph glyph-name="uni031B" unicode="&#x31b;" 
d="M54 653h70q0 -88 -43 -133.5t-111 -45.5h-20v70h20q38 0 61 26.5t23 82.5z" />
    <glyph glyph-name="dotbelowcomb" unicode="&#x323;" 
d="M0 -151v83h89v-83h-89z" />
    <glyph glyph-name="uni0324" unicode="&#x324;" 
d="M0 -151v83h89v-83h-89zM157 -151v83h89v-83h-89z" />
    <glyph glyph-name="uni0325" unicode="&#x325;" 
d="M89 -206q-37 0 -63 26t-26 63q0 38 26 64t63 26q38 0 64.5 -26t26.5 -64q0 -37 -26.5 -63t-64.5 -26zM89 -161q19 0 32 13t13 31q0 19 -13 32t-32 13q-17 0 -30 -13t-13 -32q0 -18 13 -31t30 -13z" />
    <glyph glyph-name="uni0326" unicode="&#x326;" 
d="M0 -198l44 150h73l-66 -150h-51z" />
    <glyph glyph-name="uni0327" unicode="&#x327;" 
d="M119 -206q-38 0 -68.5 12.5t-49.5 28.5l19 33q16 -11 37 -20.5t48 -9.5q23 0 39 8t16 28q0 15 -16 24t-37 9q-18 0 -35 -5l-21 17l69 108h43l-44 -77q12 2 22 2q38 0 65 -20.5t27 -56.5q0 -42 -34 -61.5t-80 -19.5z" />
    <glyph glyph-name="uni0328" unicode="&#x328;" 
d="M0 -121q0 34 19 57.5t46.5 39t50.5 26.5h56q-15 -9 -37.5 -24t-40 -35t-17.5 -45q0 -24 19 -37t41 -13q20 0 36 11v-39q-15 -12 -35 -18t-41 -6q-37 0 -67 21t-30 62z" />
    <glyph glyph-name="uni0329" unicode="&#x329;" 
d="M44 -249v198h68v-198h-68z" />
    <glyph glyph-name="uni032D" unicode="&#x32d;" 
d="M0 -173l98 105h87l97 -105h-82l-59 54l-59 -54h-82z" />
    <glyph glyph-name="uni032E" unicode="&#x32e;" 
d="M119 -161q-49 0 -84 28t-35 67q0 8 2 15l4 14h18q3 -28 30 -46.5t65 -18.5q37 0 64 18.5t30 46.5h18q6 -13 6 -29q0 -39 -34.5 -67t-83.5 -28z" />
    <glyph glyph-name="uni032F" unicode="&#x32f;" 
d="M119 -47q-49 0 -84 -28t-35 -67q0 -8 2 -15l4 -14h18q3 28 30 46.5t65 18.5q37 0 64 -18.5t30 -46.5h18q6 13 6 29q0 39 -34.5 67t-83.5 28z" />
    <glyph glyph-name="uni0330" unicode="&#x330;" 
d="M217 -161q-33 0 -54.5 10t-40 20t-41.5 10t-34 -13t-16 -26h-31q5 37 26.5 67.5t70.5 30.5q32 0 53.5 -10t40 -20.5t41.5 -10.5q22 0 33.5 13.5t15.5 26.5h32q-5 -37 -26.5 -67.5t-69.5 -30.5z" />
    <glyph glyph-name="uni0331" unicode="&#x331;" 
d="M0 -135v60h264v-60h-264z" />
    <glyph glyph-name="uni0332" unicode="&#x332;" 
d="M50 -128v55h500v-55h-500z" />
    <glyph glyph-name="uni0334" unicode="&#x334;" 
d="M268 323q-42 0 -70 11t-51.5 22t-53.5 11q-26 0 -38.5 -15t-17.5 -28h-37q4 26 16.5 50.5t35.5 40t60 15.5q42 0 69.5 -11t51.5 -22t53 -11q25 0 38.5 15t16.5 28h38q-4 -26 -16 -50.5t-35 -40t-60 -15.5z" />
    <glyph glyph-name="uni0335" unicode="&#x335;" 
d="M0 273v65h543v-65h-543z" />
    <glyph glyph-name="uni0358" unicode="&#x358;" 
d="M0 580v83h89v-83h-89z" />
    <glyph glyph-name="uni03A9" unicode="&#x3a9;" horiz-adv-x="678" 
d="M54 0v59h143q-39 29 -73.5 71.5t-56.5 98.5t-22 124q0 64 21 121.5t60 101.5t93 69t120 25t120 -25t93 -69t60 -101.5t21 -121.5q0 -68 -22 -124t-56.5 -98.5t-74.5 -71.5h144v-59h-226v59q48 29 85 67.5t58.5 91.5t21.5 125q0 48 -14.5 93.5t-43.5 82.5t-70.5 58.5
t-95.5 21.5t-95.5 -21.5t-70.5 -58.5t-43.5 -82.5t-14.5 -93.5q0 -72 21.5 -125t59 -91.5t84.5 -67.5v-59h-226z" />
    <glyph glyph-name="pi" unicode="&#x3c0;" horiz-adv-x="578" 
d="M535 -7q-41 0 -74.5 10.5t-53.5 40t-20 85.5v295h-197v-424h-74v424h-97v66h538v-66h-97v-305q0 -38 20.5 -55t54.5 -17v-54z" />
    <glyph glyph-name="uni1D7D" unicode="&#x1d7d;" horiz-adv-x="595" 
d="M65 -198v416h-65v65h65v217h75v-80q28 41 72.5 64.5t106.5 23.5q67 0 119 -29.5t83 -80.5t38 -115h53v-65h-53q-6 -64 -37.5 -115t-83.5 -81t-119 -30q-62 0 -106.5 24.5t-72.5 64.5v-279h-75zM309 440q-74 0 -118 -45.5t-53 -111.5h346q-10 66 -55.5 111.5t-119.5 45.5z
M309 60q74 0 120 46t55 112h-346q9 -66 53 -112t118 -46z" />
    <glyph glyph-name="uni1DBB" unicode="&#x1dbb;" horiz-adv-x="321" 
d="M21.7002 290v46.1514l209.304 234.009h-206.504v44.8516h273.005v-45.501l-210.003 -234.009h210.003v-45.502h-275.805z" />
    <glyph glyph-name="uni1DC4" unicode="&#x1dc4;" 
d="M-92 671h143l122 84l35 -49l-139 -95h-161v60z" />
    <glyph glyph-name="uni1DC5" unicode="&#x1dc5;" 
d="M208 671h-143l-122 84l-35 -49l139 -95h161v60z" />
    <glyph glyph-name="uni1DC6" unicode="&#x1dc6;" 
d="M-92 695h143l122 -84l35 49l-139 95h-161v-60z" />
    <glyph glyph-name="uni1DC7" unicode="&#x1dc7;" 
d="M208 695h-143l-122 -84l-35 49l139 95h161v-60z" />
    <glyph glyph-name="uni1DCA" unicode="&#x1dca;" 
d="M-279.499 -439v325.012h52.501v-79.9521q2.7998 8.4502 10.8496 22.4258q8.05078 13.9756 23.4512 28.2754q15.3994 14.3008 38.8506 24.376q23.4502 10.0762 55.6504 10.0762h3.5v-48.752h-6.2998q-39.2012 0 -67.5508 -19.8262q-28.3506 -19.8262 -43.4014 -51.3516
q-15.0498 -31.5264 -15.0498 -67.2773v-143.006h-52.501z" />
    <glyph glyph-name="uni1E00" unicode="&#x1e00;" horiz-adv-x="662" 
d="M3 0l281 662h94l281 -662h-83l-81 192h-328l-81 -192h-83zM196 261h270l-135 323zM330 -206q-37 0 -63 26t-26 63q0 38 26 64t63 26q38 0 64.5 -26t26.5 -64q0 -37 -26.5 -63t-64.5 -26zM330 -161q19 0 32 13t13 31q0 19 -13 32t-32 13q-17 0 -30 -13t-13 -32
q0 -18 13 -31t30 -13z" />
    <glyph glyph-name="uni1E01" unicode="&#x1e01;" horiz-adv-x="595" 
d="M276 -8q-73 0 -127.5 34.5t-84.5 93.5t-30 130q0 72 30 130.5t84.5 93t127.5 34.5q62 0 106.5 -24t72.5 -65v81h75v-500h-75v80q-28 -40 -72.5 -64t-106.5 -24zM286 60q56 0 94.5 26t58.5 69.5t20 94.5q0 52 -20 95t-58.5 69t-94.5 26q-55 0 -95 -26t-61 -69t-21 -95
q0 -51 21 -94.5t61 -69.5t95 -26zM297 -206q-37 0 -63 26t-26 63q0 38 26 64t63 26q38 0 64.5 -26t26.5 -64q0 -37 -26.5 -63t-64.5 -26zM297 -161q19 0 32 13t13 31q0 19 -13 32t-32 13q-17 0 -30 -13t-13 -32q0 -18 13 -31t30 -13z" />
    <glyph glyph-name="uni1E02" unicode="&#x1e02;" horiz-adv-x="662" 
d="M81 0v662h297q78 0 123.5 -27t65.5 -67.5t20 -80.5q0 -64 -27 -98.5t-62 -50.5q28 -9 56.5 -28.5t47.5 -52.5t19 -83q0 -74 -56.5 -124t-169.5 -50h-314zM156 366h222q35 0 65.5 12t49.5 37.5t19 65.5q0 28 -12.5 53t-40 41t-73.5 16h-230v-225zM156 71h247
q68 0 105.5 28.5t37.5 80.5q0 47 -36 82.5t-115 35.5h-239v-227zM287 732v83h89v-83h-89z" />
    <glyph glyph-name="uni1E03" unicode="&#x1e03;" horiz-adv-x="595" 
d="M319 -8q-62 0 -106.5 24t-72.5 64v-80h-75v700h75v-281q28 41 72.5 65t106.5 24q73 0 127.5 -34.5t84.5 -93t30 -130.5q0 -71 -30 -130t-84.5 -93.5t-127.5 -34.5zM309 60q56 0 95.5 26t60.5 69.5t21 94.5q0 52 -21 95t-60.5 69t-95.5 26q-55 0 -94 -26t-59 -69t-20 -95
q0 -51 20 -94.5t59 -69.5t94 -26zM268 580v83h89v-83h-89z" />
    <glyph glyph-name="uni1E04" unicode="&#x1e04;" horiz-adv-x="662" 
d="M81 0v662h297q78 0 123.5 -27t65.5 -67.5t20 -80.5q0 -64 -27 -98.5t-62 -50.5q28 -9 56.5 -28.5t47.5 -52.5t19 -83q0 -74 -56.5 -124t-169.5 -50h-314zM156 366h222q35 0 65.5 12t49.5 37.5t19 65.5q0 28 -12.5 53t-40 41t-73.5 16h-230v-225zM156 71h247
q68 0 105.5 28.5t37.5 80.5q0 47 -36 82.5t-115 35.5h-239v-227zM287 -151v83h89v-83h-89z" />
    <glyph glyph-name="uni1E05" unicode="&#x1e05;" horiz-adv-x="595" 
d="M319 -8q-62 0 -106.5 24t-72.5 64v-80h-75v700h75v-281q28 41 72.5 65t106.5 24q73 0 127.5 -34.5t84.5 -93t30 -130.5q0 -71 -30 -130t-84.5 -93.5t-127.5 -34.5zM309 60q56 0 95.5 26t60.5 69.5t21 94.5q0 52 -21 95t-60.5 69t-95.5 26q-55 0 -94 -26t-59 -69t-20 -95
q0 -51 20 -94.5t59 -69.5t94 -26zM253 -151v83h89v-83h-89z" />
    <glyph glyph-name="uni1E06" unicode="&#x1e06;" horiz-adv-x="662" 
d="M81 0v662h297q78 0 123.5 -27t65.5 -67.5t20 -80.5q0 -64 -27 -98.5t-62 -50.5q28 -9 56.5 -28.5t47.5 -52.5t19 -83q0 -74 -56.5 -124t-169.5 -50h-314zM156 366h222q35 0 65.5 12t49.5 37.5t19 65.5q0 28 -12.5 53t-40 41t-73.5 16h-230v-225zM156 71h247
q68 0 105.5 28.5t37.5 80.5q0 47 -36 82.5t-115 35.5h-239v-227zM199 -135v60h264v-60h-264z" />
    <glyph glyph-name="uni1E07" unicode="&#x1e07;" horiz-adv-x="595" 
d="M319 -8q-62 0 -106.5 24t-72.5 64v-80h-75v700h75v-281q28 41 72.5 65t106.5 24q73 0 127.5 -34.5t84.5 -93t30 -130.5q0 -71 -30 -130t-84.5 -93.5t-127.5 -34.5zM309 60q56 0 95.5 26t60.5 69.5t21 94.5q0 52 -21 95t-60.5 69t-95.5 26q-55 0 -94 -26t-59 -69t-20 -95
q0 -51 20 -94.5t59 -69.5t94 -26zM165 -135v60h264v-60h-264z" />
    <glyph glyph-name="uni1E08" unicode="&#x1e08;" horiz-adv-x="690" 
d="M365 65q82 0 136 36t79 97h79q-31 -88 -105.5 -145t-181.5 -61l-24 -42q12 2 22 2q38 0 65 -20.5t27 -56.5q0 -42 -34 -61.5t-80 -19.5q-38 0 -68.5 12.5t-49.5 28.5l19 33q16 -11 37 -20.5t48 -9.5q23 0 39 8t16 28q0 15 -16 24t-37 9q-18 0 -35 -5l-21 17l47 74
q-90 8 -154.5 54.5t-99 120.5t-34.5 163q0 94 38.5 171t110.5 122.5t171 45.5q75 0 135 -26.5t102 -72.5t63 -107h-79q-25 61 -79 97t-136 36q-80 0 -136.5 -35.5t-85.5 -95.5t-29 -135q0 -74 29 -134.5t85.5 -96t136.5 -35.5zM311 725l61 105h107l-107 -105h-61z" />
    <glyph glyph-name="uni1E09" unicode="&#x1e09;" horiz-adv-x="544" 
d="M290 60q53 0 90.5 27t54.5 70h81q-20 -69 -77.5 -114t-139.5 -50l-24 -43q12 2 22 2q38 0 65 -20.5t27 -56.5q0 -42 -34 -61.5t-80 -19.5q-38 0 -68.5 12.5t-49.5 28.5l19 33q16 -11 37 -20.5t48 -9.5q23 0 39 8t16 28q0 15 -16 24t-37 9q-18 0 -35 -5l-21 17l47 74
q-67 6 -116.5 41.5t-76.5 92t-27 123.5q0 72 30.5 130.5t85.5 93t130 34.5q89 0 151.5 -46t84.5 -119h-81q-17 43 -54.5 70t-90.5 27q-55 0 -96 -26t-63 -69t-22 -95q0 -51 22 -94.5t63 -69.5t96 -26zM218 570l61 105h107l-107 -105h-61z" />
    <glyph glyph-name="uni1E0A" unicode="&#x1e0a;" horiz-adv-x="703" 
d="M81 0v662h279q59 0 113.5 -22.5t97.5 -65.5t68 -104t25 -139t-25 -139t-68 -104t-97.5 -65.5t-113.5 -22.5h-279zM156 71h201q71 0 123 36t80.5 95t28.5 129q0 71 -28.5 130t-80.5 94.5t-123 35.5h-201v-520zM308 732v83h89v-83h-89z" />
    <glyph glyph-name="uni1E0B" unicode="&#x1e0b;" horiz-adv-x="595" 
d="M276 -8q-73 0 -127.5 34.5t-84.5 93.5t-30 130q0 72 30 130.5t84.5 93t127.5 34.5q62 0 106.5 -24t72.5 -65v281h75v-700h-75v80q-28 -40 -72.5 -64t-106.5 -24zM286 60q56 0 94.5 26t58.5 69.5t20 94.5q0 52 -20 95t-58.5 69t-94.5 26q-55 0 -95 -26t-61 -69t-21 -95
q0 -51 21 -94.5t61 -69.5t95 -26zM238 570v83h89v-83h-89z" />
    <glyph glyph-name="uni1E0C" unicode="&#x1e0c;" horiz-adv-x="703" 
d="M81 0v662h279q59 0 113.5 -22.5t97.5 -65.5t68 -104t25 -139t-25 -139t-68 -104t-97.5 -65.5t-113.5 -22.5h-279zM156 71h201q71 0 123 36t80.5 95t28.5 129q0 71 -28.5 130t-80.5 94.5t-123 35.5h-201v-520zM296 -151v83h89v-83h-89z" />
    <glyph glyph-name="uni1E0D" unicode="&#x1e0d;" horiz-adv-x="595" 
d="M276 -8q-73 0 -127.5 34.5t-84.5 93.5t-30 130q0 72 30 130.5t84.5 93t127.5 34.5q62 0 106.5 -24t72.5 -65v281h75v-700h-75v80q-28 -40 -72.5 -64t-106.5 -24zM286 60q56 0 94.5 26t58.5 69.5t20 94.5q0 52 -20 95t-58.5 69t-94.5 26q-55 0 -95 -26t-61 -69t-21 -95
q0 -51 21 -94.5t61 -69.5t95 -26zM254 -151v83h89v-83h-89z" />
    <glyph glyph-name="uni1E0E" unicode="&#x1e0e;" horiz-adv-x="703" 
d="M81 0v662h279q59 0 113.5 -22.5t97.5 -65.5t68 -104t25 -139t-25 -139t-68 -104t-97.5 -65.5t-113.5 -22.5h-279zM156 71h201q71 0 123 36t80.5 95t28.5 129q0 71 -28.5 130t-80.5 94.5t-123 35.5h-201v-520zM208 -135v60h264v-60h-264z" />
    <glyph glyph-name="uni1E0F" unicode="&#x1e0f;" horiz-adv-x="595" 
d="M276 -8q-73 0 -127.5 34.5t-84.5 93.5t-30 130q0 72 30 130.5t84.5 93t127.5 34.5q62 0 106.5 -24t72.5 -65v281h75v-700h-75v80q-28 -40 -72.5 -64t-106.5 -24zM286 60q56 0 94.5 26t58.5 69.5t20 94.5q0 52 -20 95t-58.5 69t-94.5 26q-55 0 -95 -26t-61 -69t-21 -95
q0 -51 21 -94.5t61 -69.5t95 -26zM158 -134v60h264v-60h-264z" />
    <glyph glyph-name="uni1E10" unicode="&#x1e10;" horiz-adv-x="703" 
d="M81 0v662h279q59 0 113.5 -22.5t97.5 -65.5t68 -104t25 -139t-25 -139t-68 -104t-97.5 -65.5t-113.5 -22.5h-279zM156 71h201q71 0 123 36t80.5 95t28.5 129q0 71 -28.5 130t-80.5 94.5t-123 35.5h-201v-520zM282 -198l44 150h73l-66 -150h-51z" />
    <glyph glyph-name="uni1E11" unicode="&#x1e11;" horiz-adv-x="595" 
d="M276 -8q-73 0 -127.5 34.5t-84.5 93.5t-30 130q0 72 30 130.5t84.5 93t127.5 34.5q62 0 106.5 -24t72.5 -65v281h75v-700h-75v80q-28 -40 -72.5 -64t-106.5 -24zM286 60q56 0 94.5 26t58.5 69.5t20 94.5q0 52 -20 95t-58.5 69t-94.5 26q-55 0 -95 -26t-61 -69t-21 -95
q0 -51 21 -94.5t61 -69.5t95 -26zM217 -198l44 150h73l-66 -150h-51z" />
    <glyph glyph-name="uni1E12" unicode="&#x1e12;" horiz-adv-x="703" 
d="M81 0v662h279q59 0 113.5 -22.5t97.5 -65.5t68 -104t25 -139t-25 -139t-68 -104t-97.5 -65.5t-113.5 -22.5h-279zM156 71h201q71 0 123 36t80.5 95t28.5 129q0 71 -28.5 130t-80.5 94.5t-123 35.5h-201v-520zM199 -173l98 105h87l97 -105h-82l-59 54l-59 -54h-82z" />
    <glyph glyph-name="uni1E13" unicode="&#x1e13;" horiz-adv-x="595" 
d="M276 -8q-73 0 -127.5 34.5t-84.5 93.5t-30 130q0 72 30 130.5t84.5 93t127.5 34.5q62 0 106.5 -24t72.5 -65v281h75v-700h-75v80q-28 -40 -72.5 -64t-106.5 -24zM286 60q56 0 94.5 26t58.5 69.5t20 94.5q0 52 -20 95t-58.5 69t-94.5 26q-55 0 -95 -26t-61 -69t-21 -95
q0 -51 21 -94.5t61 -69.5t95 -26zM157 -173l98 105h87l97 -105h-82l-59 54l-59 -54h-82z" />
    <glyph glyph-name="uni1E14" unicode="&#x1e14;" horiz-adv-x="608" 
d="M81 0v662h487v-72h-412v-222h368v-73h-368v-223h412v-72h-487zM202 736v60h264v-60h-264zM307 847l-107 105h107l61 -105h-61z" />
    <glyph glyph-name="uni1E15" unicode="&#x1e15;" horiz-adv-x="557" 
d="M287 -8q-76 0 -133 34.5t-88.5 93.5t-31.5 130q0 72 30 130.5t86 93t132 34.5q77 0 132.5 -34.5t85.5 -93t30 -130.5v-30h-419q6 -44 28.5 -80.5t60.5 -58t88 -21.5q53 0 89 23.5t56 60.5h82q-26 -67 -82.5 -109.5t-145.5 -42.5zM112 290h340q-10 64 -54 107t-116 43
t-115.5 -43t-54.5 -107zM147 584v60h264v-60h-264zM302 712l-107 105h107l61 -105h-61z" />
    <glyph glyph-name="uni1E16" unicode="&#x1e16;" horiz-adv-x="608" 
d="M81 0v662h487v-72h-412v-222h368v-73h-368v-223h412v-72h-487zM202 736v60h264v-60h-264zM300 847l61 105h107l-107 -105h-61z" />
    <glyph glyph-name="uni1E17" unicode="&#x1e17;" horiz-adv-x="557" 
d="M287 -8q-76 0 -133 34.5t-88.5 93.5t-31.5 130q0 72 30 130.5t86 93t132 34.5q77 0 132.5 -34.5t85.5 -93t30 -130.5v-30h-419q6 -44 28.5 -80.5t60.5 -58t88 -21.5q53 0 89 23.5t56 60.5h82q-26 -67 -82.5 -109.5t-145.5 -42.5zM112 290h340q-10 64 -54 107t-116 43
t-115.5 -43t-54.5 -107zM147 584v60h264v-60h-264zM225 712l61 105h107l-107 -105h-61z" />
    <glyph glyph-name="uni1E18" unicode="&#x1e18;" horiz-adv-x="608" 
d="M81 0v662h487v-72h-412v-222h368v-73h-368v-223h412v-72h-487zM203 -173l98 105h87l97 -105h-82l-59 54l-59 -54h-82z" />
    <glyph glyph-name="uni1E19" unicode="&#x1e19;" horiz-adv-x="557" 
d="M287 -8q-76 0 -133 34.5t-88.5 93.5t-31.5 130q0 72 30 130.5t86 93t132 34.5q77 0 132.5 -34.5t85.5 -93t30 -130.5v-30h-419q6 -44 28.5 -80.5t60.5 -58t88 -21.5q53 0 89 23.5t56 60.5h82q-26 -67 -82.5 -109.5t-145.5 -42.5zM112 290h340q-10 64 -54 107t-116 43
t-115.5 -43t-54.5 -107zM138 -173l98 105h87l97 -105h-82l-59 54l-59 -54h-82z" />
    <glyph glyph-name="uni1E1A" unicode="&#x1e1a;" horiz-adv-x="608" 
d="M81 0v662h487v-72h-412v-222h368v-73h-368v-223h412v-72h-487zM405 -161q-33 0 -54.5 10t-40 20t-41.5 10t-34 -13t-16 -26h-31q5 37 26.5 67.5t70.5 30.5q32 0 53.5 -10t40 -20.5t41.5 -10.5q22 0 33.5 13.5t15.5 26.5h32q-5 -37 -26.5 -67.5t-69.5 -30.5z" />
    <glyph glyph-name="uni1E1B" unicode="&#x1e1b;" horiz-adv-x="557" 
d="M287 -8q-76 0 -133 34.5t-88.5 93.5t-31.5 130q0 72 30 130.5t86 93t132 34.5q77 0 132.5 -34.5t85.5 -93t30 -130.5v-30h-419q6 -44 28.5 -80.5t60.5 -58t88 -21.5q53 0 89 23.5t56 60.5h82q-26 -67 -82.5 -109.5t-145.5 -42.5zM112 290h340q-10 64 -54 107t-116 43
t-115.5 -43t-54.5 -107zM340 -161q-33 0 -54.5 10t-40 20t-41.5 10t-34 -13t-16 -26h-31q5 37 26.5 67.5t70.5 30.5q32 0 53.5 -10t40 -20.5t41.5 -10.5q22 0 33.5 13.5t15.5 26.5h32q-5 -37 -26.5 -67.5t-69.5 -30.5z" />
    <glyph glyph-name="uni1E1C" unicode="&#x1e1c;" horiz-adv-x="608" 
d="M335 717q-49 0 -84 28t-35 67q0 8 2 15l4 14h18q3 -28 30 -46.5t65 -18.5q37 0 64 18.5t30 46.5h18q6 -13 6 -29q0 -39 -34.5 -67t-83.5 -28zM568 590h-412v-222h368v-73h-368v-223h412v-72h-204l-29 -51q12 2 22 2q38 0 65 -20.5t27 -56.5q0 -42 -34 -61.5t-80 -19.5
q-38 0 -68.5 12.5t-49.5 28.5l19 33q16 -11 37 -20.5t48 -9.5q23 0 39 8t16 28q0 15 -16 24t-37 9q-18 0 -35 -5l-21 17l52 82h-238v662h487v-72z" />
    <glyph glyph-name="uni1E1D" unicode="&#x1e1d;" horiz-adv-x="557" 
d="M530 250v-30h-419q6 -44 28.5 -80.5t60.5 -58t88 -21.5q53 0 89 23.5t56 60.5h82q-25 -64 -76.5 -105t-132.5 -46l-24 -43q12 2 22 2q38 0 65 -20.5t27 -56.5q0 -42 -34 -61.5t-80 -19.5q-38 0 -68.5 12.5t-49.5 28.5l19 33q16 -11 37 -20.5t48 -9.5q23 0 39 8t16 28
q0 15 -16 24t-37 9q-18 0 -35 -5l-21 17l47 74q-69 6 -120 41.5t-79 92t-28 123.5q0 72 30 130.5t86 93t132 34.5q77 0 132.5 -34.5t85.5 -93t30 -130.5zM112 290h340q-10 64 -54 107t-116 43t-115.5 -43t-54.5 -107zM280 567q-49 0 -84 28t-35 67q0 8 2 15l4 14h18
q3 -28 30 -46.5t65 -18.5q37 0 64 18.5t30 46.5h18q6 -13 6 -29q0 -39 -34.5 -67t-83.5 -28z" />
    <glyph glyph-name="uni1E1E" unicode="&#x1e1e;" horiz-adv-x="583" 
d="M81 0v662h478v-72h-403v-230h359v-73h-359v-287h-75zM248 732v83h89v-83h-89z" />
    <glyph glyph-name="uni1E1F" unicode="&#x1e1f;" horiz-adv-x="307" 
d="M99 0v434h-86v66h86v44q0 82 49.5 123t135.5 41h6v-71h-10q-52 0 -79 -23.5t-27 -75.5v-38h116v-66h-116v-434h-75zM110 780v83h89v-83h-89z" />
    <glyph glyph-name="uni1E20" unicode="&#x1e20;" horiz-adv-x="723" 
d="M363 -8q-101 0 -173.5 45.5t-111.5 122.5t-39 171t40 171t113.5 122.5t172.5 45.5q107 0 185.5 -52.5t115.5 -135.5h-82q-30 53 -83.5 84t-129.5 31q-80 0 -138 -35.5t-88.5 -95.5t-30.5 -135q0 -74 30 -134.5t87.5 -96t137.5 -35.5q60 0 113.5 26t87 75t33.5 118h-242
v68h311v-352h-69v117q-21 -32 -54 -60.5t-79.5 -46.5t-106.5 -18zM230 736v60h264v-60h-264z" />
    <glyph glyph-name="uni1E21" unicode="&#x1e21;" horiz-adv-x="595" 
d="M294 -206q-94 0 -153 40.5t-80 105.5h83q15 -37 52 -57.5t94 -20.5q86 0 125.5 40.5t39.5 117.5v69q-28 -40 -72.5 -64.5t-106.5 -24.5q-73 0 -127.5 33.5t-84.5 91.5t-30 129q0 72 30 129.5t84.5 91t127.5 33.5q62 0 106.5 -23.5t72.5 -64.5v80h75v-485
q0 -107 -61.5 -164t-174.5 -57zM286 68q55 0 93.5 25t59 67.5t20.5 93.5q0 52 -20.5 94t-59 67t-93.5 25t-95 -25t-61 -67t-21 -94q0 -51 21 -93.5t61 -67.5t95 -25zM166 584v60h264v-60h-264z" />
    <glyph glyph-name="uni1E22" unicode="&#x1e22;" horiz-adv-x="697" 
d="M81 0v662h75v-294h385v294h75v-662h-75v295h-385v-295h-75zM305 732v83h89v-83h-89z" />
    <glyph glyph-name="uni1E23" unicode="&#x1e23;" horiz-adv-x="566" 
d="M65 0v700h75v-278q27 36 66 61t100 25q52 0 97.5 -24.5t74 -73t28.5 -119.5v-291h-75v289q0 68 -39 109.5t-101 41.5q-42 0 -76 -19t-54.5 -53.5t-20.5 -79.5v-288h-75zM58 770v83h89v-83h-89z" />
    <glyph glyph-name="uni1E24" unicode="&#x1e24;" horiz-adv-x="697" 
d="M81 0v662h75v-294h385v294h75v-662h-75v295h-385v-295h-75zM305 -151v83h89v-83h-89z" />
    <glyph glyph-name="uni1E25" unicode="&#x1e25;" horiz-adv-x="566" 
d="M65 0v700h75v-278q27 36 66 61t100 25q52 0 97.5 -24.5t74 -73t28.5 -119.5v-291h-75v289q0 68 -39 109.5t-101 41.5q-42 0 -76 -19t-54.5 -53.5t-20.5 -79.5v-288h-75zM239 -151v83h89v-83h-89z" />
    <glyph glyph-name="uni1E26" unicode="&#x1e26;" horiz-adv-x="697" 
d="M81 0v662h75v-294h385v294h75v-662h-75v295h-385v-295h-75zM226 730v83h89v-83h-89zM383 730v83h89v-83h-89z" />
    <glyph glyph-name="uni1E27" unicode="&#x1e27;" horiz-adv-x="566" 
d="M65 0v700h75v-278q27 36 66 61t100 25q52 0 97.5 -24.5t74 -73t28.5 -119.5v-291h-75v289q0 68 -39 109.5t-101 41.5q-42 0 -76 -19t-54.5 -53.5t-20.5 -79.5v-288h-75zM-21 768v83h89v-83h-89zM136 768v83h89v-83h-89z" />
    <glyph glyph-name="uni1E28" unicode="&#x1e28;" horiz-adv-x="697" 
d="M81 0v662h75v-294h385v294h75v-662h-75v295h-385v-295h-75zM111 -206q-38 0 -68.5 12.5t-49.5 28.5l19 33q16 -11 37 -20.5t48 -9.5q23 0 39 8t16 28q0 15 -16 24t-37 9q-18 0 -35 -5l-21 17l69 108h43l-44 -77q12 2 22 2q38 0 65 -20.5t27 -56.5q0 -42 -34 -61.5
t-80 -19.5z" />
    <glyph glyph-name="uni1E29" unicode="&#x1e29;" horiz-adv-x="566" 
d="M65 0v700h75v-278q27 36 66 61t100 25q52 0 97.5 -24.5t74 -73t28.5 -119.5v-291h-75v289q0 68 -39 109.5t-101 41.5q-42 0 -76 -19t-54.5 -53.5t-20.5 -79.5v-288h-75zM89 -206q-38 0 -68.5 12.5t-49.5 28.5l19 33q16 -11 37 -20.5t48 -9.5q23 0 39 8t16 28q0 15 -16 24
t-37 9q-18 0 -35 -5l-21 17l69 108h43l-44 -77q12 2 22 2q38 0 65 -20.5t27 -56.5q0 -42 -34 -61.5t-80 -19.5z" />
    <glyph glyph-name="uni1E2A" unicode="&#x1e2a;" horiz-adv-x="697" 
d="M81 0v662h75v-294h385v294h75v-662h-75v295h-385v-295h-75zM350 -161q-49 0 -84 28t-35 67q0 8 2 15l4 14h18q3 -28 30 -46.5t65 -18.5q37 0 64 18.5t30 46.5h18q6 -13 6 -29q0 -39 -34.5 -67t-83.5 -28z" />
    <glyph glyph-name="uni1E2B" unicode="&#x1e2b;" horiz-adv-x="566" 
d="M65 0v700h75v-278q27 36 66 61t100 25q52 0 97.5 -24.5t74 -73t28.5 -119.5v-291h-75v289q0 68 -39 109.5t-101 41.5q-42 0 -76 -19t-54.5 -53.5t-20.5 -79.5v-288h-75zM284 -161q-49 0 -84 28t-35 67q0 8 2 15l4 14h18q3 -28 30 -46.5t65 -18.5q37 0 64 18.5t30 46.5h18
q6 -13 6 -29q0 -39 -34.5 -67t-83.5 -28z" />
    <glyph glyph-name="uni1E2C" unicode="&#x1e2c;" horiz-adv-x="237" 
d="M81 0v662h75v-662h-75zM179 -161q-33 0 -54.5 10t-40 20t-41.5 10t-34 -13t-16 -26h-31q5 37 26.5 67.5t70.5 30.5q32 0 53.5 -10t40 -20.5t41.5 -10.5q22 0 33.5 13.5t15.5 26.5h32q-5 -37 -26.5 -67.5t-69.5 -30.5z" />
    <glyph glyph-name="uni1E2D" unicode="&#x1e2d;" horiz-adv-x="205" 
d="M62 584v98h81v-98h-81zM65 0v500h75v-500h-75zM163 -161q-33 0 -54.5 10t-40 20t-41.5 10t-34 -13t-16 -26h-31q5 37 26.5 67.5t70.5 30.5q32 0 53.5 -10t40 -20.5t41.5 -10.5q22 0 33.5 13.5t15.5 26.5h32q-5 -37 -26.5 -67.5t-69.5 -30.5z" />
    <glyph glyph-name="uni1E2E" unicode="&#x1e2e;" horiz-adv-x="237" 
d="M81 0v662h75v-662h-75zM-4 730v83h89v-83h-89zM153 730v83h89v-83h-89zM85 847l61 105h107l-107 -105h-61z" />
    <glyph glyph-name="uni1E2F" unicode="&#x1e2f;" horiz-adv-x="205" 
d="M65 0v500h75v-500h-75zM-19 579v83h89v-83h-89zM138 579v83h89v-83h-89zM52 698l61 105h107l-107 -105h-61z" />
    <glyph glyph-name="uni1E30" unicode="&#x1e30;" horiz-adv-x="641" 
d="M81 0v662h75v-345l368 345h106l-282 -266l298 -396h-94l-259 345l-137 -128v-217h-75zM287 725l61 105h107l-107 -105h-61z" />
    <glyph glyph-name="uni1E31" unicode="&#x1e31;" horiz-adv-x="502" 
d="M65 0v700h75v-448l241 248h105l-201 -197l216 -303h-92l-175 251l-94 -93v-158h-75zM71 763l61 105h107l-107 -105h-61z" />
    <glyph glyph-name="uni1E32" unicode="&#x1e32;" horiz-adv-x="641" 
d="M81 0v662h75v-345l368 345h106l-282 -266l298 -396h-94l-259 345l-137 -128v-217h-75zM277 -151v83h89v-83h-89z" />
    <glyph glyph-name="uni1E33" unicode="&#x1e33;" horiz-adv-x="502" 
d="M65 0v700h75v-448l241 248h105l-201 -197l216 -303h-92l-175 251l-94 -93v-158h-75zM207 -151v83h89v-83h-89z" />
    <glyph glyph-name="uni1E34" unicode="&#x1e34;" horiz-adv-x="641" 
d="M81 0v662h75v-345l368 345h106l-282 -266l298 -396h-94l-259 345l-137 -128v-217h-75zM189 -135v60h264v-60h-264z" />
    <glyph glyph-name="uni1E35" unicode="&#x1e35;" horiz-adv-x="502" 
d="M65 0v700h75v-448l241 248h105l-201 -197l216 -303h-92l-175 251l-94 -93v-158h-75zM119 -135v60h264v-60h-264z" />
    <glyph glyph-name="uni1E36" unicode="&#x1e36;" horiz-adv-x="533" 
d="M81 0v662h75v-590h361v-72h-436zM243 -151v83h89v-83h-89z" />
    <glyph glyph-name="uni1E37" unicode="&#x1e37;" horiz-adv-x="205" 
d="M65 0v700h75v-700h-75zM59 -151v83h89v-83h-89z" />
    <glyph glyph-name="uni1E38" unicode="&#x1e38;" horiz-adv-x="533" 
d="M81 0v662h75v-590h361v-72h-436zM243 -151v83h89v-83h-89zM76 736v60h264v-60h-264z" />
    <glyph glyph-name="uni1E39" unicode="&#x1e39;" horiz-adv-x="205" 
d="M65 0v700h75v-700h-75zM59 -151v83h89v-83h-89zM-29 774v60h264v-60h-264z" />
    <glyph glyph-name="uni1E3A" unicode="&#x1e3a;" horiz-adv-x="533" 
d="M81 0v662h75v-590h361v-72h-436zM155 -135v60h264v-60h-264z" />
    <glyph glyph-name="uni1E3B" unicode="&#x1e3b;" horiz-adv-x="205" 
d="M65 0v700h75v-700h-75zM-5 -108v60h215v-60h-215z" />
    <glyph glyph-name="uni1E3C" unicode="&#x1e3c;" horiz-adv-x="533" 
d="M81 0v662h75v-590h361v-72h-436zM146 -173l98 105h87l97 -105h-82l-59 54l-59 -54h-82z" />
    <glyph glyph-name="uni1E3D" unicode="&#x1e3d;" horiz-adv-x="205" 
d="M65 0v700h75v-700h-75zM-38 -173l98 105h87l97 -105h-82l-59 54l-59 -54h-82z" />
    <glyph glyph-name="uni1E3E" unicode="&#x1e3e;" horiz-adv-x="806" 
d="M81 0v662h87l237 -314l233 314h87v-662h-75v548l-245 -315l-249 315v-548h-75zM369 725l61 105h107l-107 -105h-61z" />
    <glyph glyph-name="uni1E3F" unicode="&#x1e3f;" horiz-adv-x="868" 
d="M65 0v500h75v-76q17 30 54 57t98 27q50 0 92.5 -26.5t66.5 -74.5q10 17 31.5 41t56.5 42t84 18q48 0 90 -25t68.5 -71.5t26.5 -109.5v-302h-75v300q0 63 -35.5 101.5t-88.5 38.5q-55 0 -95 -37t-40 -104v-299h-75v300q0 63 -35.5 101.5t-88.5 38.5q-55 0 -95 -37
t-40 -104v-299h-75zM380 570l61 105h107l-107 -105h-61z" />
    <glyph glyph-name="uni1E40" unicode="&#x1e40;" horiz-adv-x="806" 
d="M81 0v662h87l237 -314l233 314h87v-662h-75v548l-245 -315l-249 315v-548h-75zM359 732v83h89v-83h-89z" />
    <glyph glyph-name="uni1E41" unicode="&#x1e41;" horiz-adv-x="868" 
d="M65 0v500h75v-76q17 30 54 57t98 27q50 0 92.5 -26.5t66.5 -74.5q10 17 31.5 41t56.5 42t84 18q48 0 90 -25t68.5 -71.5t26.5 -109.5v-302h-75v300q0 63 -35.5 101.5t-88.5 38.5q-55 0 -95 -37t-40 -104v-299h-75v300q0 63 -35.5 101.5t-88.5 38.5q-55 0 -95 -37
t-40 -104v-299h-75zM390 580v83h89v-83h-89z" />
    <glyph glyph-name="uni1E42" unicode="&#x1e42;" horiz-adv-x="806" 
d="M81 0v662h87l237 -314l233 314h87v-662h-75v548l-245 -315l-249 315v-548h-75zM359 -151v83h89v-83h-89z" />
    <glyph glyph-name="uni1E43" unicode="&#x1e43;" horiz-adv-x="868" 
d="M65 0v500h75v-76q17 30 54 57t98 27q50 0 92.5 -26.5t66.5 -74.5q10 17 31.5 41t56.5 42t84 18q48 0 90 -25t68.5 -71.5t26.5 -109.5v-302h-75v300q0 63 -35.5 101.5t-88.5 38.5q-55 0 -95 -37t-40 -104v-299h-75v300q0 63 -35.5 101.5t-88.5 38.5q-55 0 -95 -37
t-40 -104v-299h-75zM390 -151v83h89v-83h-89z" />
    <glyph glyph-name="uni1E44" unicode="&#x1e44;" horiz-adv-x="733" 
d="M81 0v662h87l409 -557v557h75v-662h-87l-409 559v-559h-75zM323 732v83h89v-83h-89z" />
    <glyph glyph-name="uni1E45" unicode="&#x1e45;" horiz-adv-x="566" 
d="M65 0v500h75v-78q27 36 66 61t100 25q52 0 97.5 -24.5t74 -73t28.5 -119.5v-291h-75v289q0 68 -39 109.5t-101 41.5q-42 0 -76 -19t-54.5 -53.5t-20.5 -79.5v-288h-75zM239 580v83h89v-83h-89z" />
    <glyph glyph-name="uni1E46" unicode="&#x1e46;" horiz-adv-x="733" 
d="M81 0v662h87l409 -557v557h75v-662h-87l-409 559v-559h-75zM323 -151v83h89v-83h-89z" />
    <glyph glyph-name="uni1E47" unicode="&#x1e47;" horiz-adv-x="566" 
d="M65 0v500h75v-78q27 36 66 61t100 25q52 0 97.5 -24.5t74 -73t28.5 -119.5v-291h-75v289q0 68 -39 109.5t-101 41.5q-42 0 -76 -19t-54.5 -53.5t-20.5 -79.5v-288h-75zM239 -151v83h89v-83h-89z" />
    <glyph glyph-name="uni1E48" unicode="&#x1e48;" horiz-adv-x="733" 
d="M81 0v662h87l409 -557v557h75v-662h-87l-409 559v-559h-75zM235 -135v60h264v-60h-264z" />
    <glyph glyph-name="uni1E49" unicode="&#x1e49;" horiz-adv-x="566" 
d="M65 0v500h75v-78q27 36 66 61t100 25q52 0 97.5 -24.5t74 -73t28.5 -119.5v-291h-75v289q0 68 -39 109.5t-101 41.5q-42 0 -76 -19t-54.5 -53.5t-20.5 -79.5v-288h-75zM151 -135v60h264v-60h-264z" />
    <glyph glyph-name="uni1E4A" unicode="&#x1e4a;" horiz-adv-x="733" 
d="M81 0v662h87l409 -557v557h75v-662h-87l-409 559v-559h-75zM226 -173l98 105h87l97 -105h-82l-59 54l-59 -54h-82z" />
    <glyph glyph-name="uni1E4B" unicode="&#x1e4b;" horiz-adv-x="566" 
d="M65 0v500h75v-78q27 36 66 61t100 25q52 0 97.5 -24.5t74 -73t28.5 -119.5v-291h-75v289q0 68 -39 109.5t-101 41.5q-42 0 -76 -19t-54.5 -53.5t-20.5 -79.5v-288h-75zM142 -173l98 105h87l97 -105h-82l-59 54l-59 -54h-82z" />
    <glyph glyph-name="uni1E4C" unicode="&#x1e4c;" horiz-adv-x="750" 
d="M375 -8q-75 0 -137 26t-106.5 73t-68.5 108.5t-24 131.5q0 71 24 132t68.5 108t106.5 73t137 26t137 -26t106.5 -73t68.5 -108t24 -132q0 -70 -24 -131.5t-68.5 -108.5t-106.5 -73t-137 -26zM375 65q81 0 139.5 35.5t90 96t31.5 134.5q0 75 -31.5 135t-90 95.5
t-139.5 35.5q-80 0 -139 -35.5t-90.5 -95.5t-31.5 -135q0 -74 31.5 -134.5t90.5 -96t139 -35.5zM445 723q-33 0 -54.5 10t-40 20t-41.5 10t-34 -13t-16 -26h-31q5 37 26.5 67.5t70.5 30.5q32 0 53.5 -10t40 -20.5t41.5 -10.5q22 0 33.5 13.5t15.5 26.5h32
q-5 -37 -26.5 -67.5t-69.5 -30.5zM351 847l61 105h107l-107 -105h-61z" />
    <glyph glyph-name="uni1E4D" unicode="&#x1e4d;" horiz-adv-x="564" 
d="M282 -8q-76 0 -132 34.5t-86 93.5t-30 130q0 72 30 130.5t86 93t132 34.5q77 0 132.5 -34.5t85.5 -93t30 -130.5q0 -71 -30 -130t-85.5 -93.5t-132.5 -34.5zM282 60q56 0 94.5 26t58.5 69.5t20 94.5q0 52 -20 95t-58.5 69t-94.5 26q-55 0 -94 -26t-59 -69t-20 -95
q0 -51 20 -94.5t59 -69.5t94 -26zM343 569q-33 0 -54.5 10t-40 20t-41.5 10t-34 -13t-16 -26h-31q5 37 26.5 67.5t70.5 30.5q32 0 53.5 -10t40 -20.5t41.5 -10.5q22 0 33.5 13.5t15.5 26.5h32q-5 -37 -26.5 -67.5t-69.5 -30.5zM229 713l61 105h107l-107 -105h-61z" />
    <glyph glyph-name="uni1E4E" unicode="&#x1e4e;" horiz-adv-x="750" 
d="M375 -8q-75 0 -137 26t-106.5 73t-68.5 108.5t-24 131.5q0 71 24 132t68.5 108t106.5 73t137 26t137 -26t106.5 -73t68.5 -108t24 -132q0 -70 -24 -131.5t-68.5 -108.5t-106.5 -73t-137 -26zM375 65q81 0 139.5 35.5t90 96t31.5 134.5q0 75 -31.5 135t-90 95.5
t-139.5 35.5q-80 0 -139 -35.5t-90.5 -95.5t-31.5 -135q0 -74 31.5 -134.5t90.5 -96t139 -35.5zM445 723q-33 0 -54.5 10t-40 20t-41.5 10t-34 -13t-16 -26h-31q5 37 26.5 67.5t70.5 30.5q32 0 53.5 -10t40 -20.5t41.5 -10.5q22 0 33.5 13.5t15.5 26.5h32
q-5 -37 -26.5 -67.5t-69.5 -30.5zM262 852v83h89v-83h-89zM419 852v83h89v-83h-89z" />
    <glyph glyph-name="uni1E4F" unicode="&#x1e4f;" horiz-adv-x="564" 
d="M282 -8q-76 0 -132 34.5t-86 93.5t-30 130q0 72 30 130.5t86 93t132 34.5q77 0 132.5 -34.5t85.5 -93t30 -130.5q0 -71 -30 -130t-85.5 -93.5t-132.5 -34.5zM282 60q56 0 94.5 26t58.5 69.5t20 94.5q0 52 -20 95t-58.5 69t-94.5 26q-55 0 -94 -26t-59 -69t-20 -95
q0 -51 20 -94.5t59 -69.5t94 -26zM343 569q-33 0 -54.5 10t-40 20t-41.5 10t-34 -13t-16 -26h-31q5 37 26.5 67.5t70.5 30.5q32 0 53.5 -10t40 -20.5t41.5 -10.5q22 0 33.5 13.5t15.5 26.5h32q-5 -37 -26.5 -67.5t-69.5 -30.5zM161 722v83h89v-83h-89zM318 722v83h89v-83
h-89z" />
    <glyph glyph-name="uni1E50" unicode="&#x1e50;" horiz-adv-x="750" 
d="M375 -8q-75 0 -137 26t-106.5 73t-68.5 108.5t-24 131.5q0 71 24 132t68.5 108t106.5 73t137 26t137 -26t106.5 -73t68.5 -108t24 -132q0 -70 -24 -131.5t-68.5 -108.5t-106.5 -73t-137 -26zM375 65q81 0 139.5 35.5t90 96t31.5 134.5q0 75 -31.5 135t-90 95.5
t-139.5 35.5q-80 0 -139 -35.5t-90.5 -95.5t-31.5 -135q0 -74 31.5 -134.5t90.5 -96t139 -35.5zM243 736v60h264v-60h-264zM348 847l-107 105h107l61 -105h-61z" />
    <glyph glyph-name="uni1E51" unicode="&#x1e51;" horiz-adv-x="564" 
d="M282 -8q-76 0 -132 34.5t-86 93.5t-30 130q0 72 30 130.5t86 93t132 34.5q77 0 132.5 -34.5t85.5 -93t30 -130.5q0 -71 -30 -130t-85.5 -93.5t-132.5 -34.5zM282 60q56 0 94.5 26t58.5 69.5t20 94.5q0 52 -20 95t-58.5 69t-94.5 26q-55 0 -94 -26t-59 -69t-20 -95
q0 -51 20 -94.5t59 -69.5t94 -26zM150 584v60h264v-60h-264zM305 712l-107 105h107l61 -105h-61z" />
    <glyph glyph-name="uni1E52" unicode="&#x1e52;" horiz-adv-x="750" 
d="M375 -8q-75 0 -137 26t-106.5 73t-68.5 108.5t-24 131.5q0 71 24 132t68.5 108t106.5 73t137 26t137 -26t106.5 -73t68.5 -108t24 -132q0 -70 -24 -131.5t-68.5 -108.5t-106.5 -73t-137 -26zM375 65q81 0 139.5 35.5t90 96t31.5 134.5q0 75 -31.5 135t-90 95.5
t-139.5 35.5q-80 0 -139 -35.5t-90.5 -95.5t-31.5 -135q0 -74 31.5 -134.5t90.5 -96t139 -35.5zM243 736v60h264v-60h-264zM341 847l61 105h107l-107 -105h-61z" />
    <glyph glyph-name="uni1E53" unicode="&#x1e53;" horiz-adv-x="564" 
d="M282 -8q-76 0 -132 34.5t-86 93.5t-30 130q0 72 30 130.5t86 93t132 34.5q77 0 132.5 -34.5t85.5 -93t30 -130.5q0 -71 -30 -130t-85.5 -93.5t-132.5 -34.5zM282 60q56 0 94.5 26t58.5 69.5t20 94.5q0 52 -20 95t-58.5 69t-94.5 26q-55 0 -94 -26t-59 -69t-20 -95
q0 -51 20 -94.5t59 -69.5t94 -26zM150 584v60h264v-60h-264zM228 712l61 105h107l-107 -105h-61z" />
    <glyph glyph-name="uni1E54" unicode="&#x1e54;" horiz-adv-x="628" 
d="M81 0v662h298q106 0 167 -57.5t61 -155.5t-61 -155.5t-167 -57.5h-223v-236h-75zM156 306h218q78 0 118 38t40 105q0 66 -40 104t-118 38h-218v-285zM280 725l61 105h107l-107 -105h-61z" />
    <glyph glyph-name="uni1E55" unicode="&#x1e55;" horiz-adv-x="595" 
d="M65 -198v698h75v-80q28 41 72.5 64.5t106.5 23.5q73 0 127.5 -34.5t84.5 -93t30 -130.5q0 -71 -30 -130t-84.5 -93.5t-127.5 -34.5q-62 0 -106.5 24.5t-72.5 64.5v-279h-75zM309 60q56 0 95.5 26t60.5 69.5t21 94.5q0 52 -21 95t-60.5 69t-95.5 26q-55 0 -94 -26t-59 -69
t-20 -95q0 -51 20 -94.5t59 -69.5t94 -26zM243 570l61 105h107l-107 -105h-61z" />
    <glyph glyph-name="uni1E56" unicode="&#x1e56;" horiz-adv-x="628" 
d="M81 0v662h298q106 0 167 -57.5t61 -155.5t-61 -155.5t-167 -57.5h-223v-236h-75zM156 306h218q78 0 118 38t40 105q0 66 -40 104t-118 38h-218v-285zM270 732v83h89v-83h-89z" />
    <glyph glyph-name="uni1E57" unicode="&#x1e57;" horiz-adv-x="595" 
d="M65 -198v698h75v-80q28 41 72.5 64.5t106.5 23.5q73 0 127.5 -34.5t84.5 -93t30 -130.5q0 -71 -30 -130t-84.5 -93.5t-127.5 -34.5q-62 0 -106.5 24.5t-72.5 64.5v-279h-75zM309 60q56 0 95.5 26t60.5 69.5t21 94.5q0 52 -21 95t-60.5 69t-95.5 26q-55 0 -94 -26t-59 -69
t-20 -95q0 -51 20 -94.5t59 -69.5t94 -26zM253 580v83h89v-83h-89z" />
    <glyph glyph-name="uni1E58" unicode="&#x1e58;" horiz-adv-x="669" 
d="M81 0v662h317q102 0 162.5 -56t60.5 -151q0 -64 -24.5 -102t-61.5 -57.5t-74 -28.5l174 -267h-89l-160 254h-230v-254h-75zM156 325h229q36 0 73 11t62.5 39.5t25.5 79.5q0 63 -43 99.5t-114 36.5h-233v-266zM291 732v83h89v-83h-89z" />
    <glyph glyph-name="uni1E59" unicode="&#x1e59;" horiz-adv-x="345" 
d="M65 0v500h75v-123q4 13 15.5 34.5t33.5 43.5t55.5 37.5t79.5 15.5h5v-75h-9q-56 0 -96.5 -30.5t-62 -79t-21.5 -103.5v-220h-75zM129 580v83h89v-83h-89z" />
    <glyph glyph-name="uni1E5A" unicode="&#x1e5a;" horiz-adv-x="669" 
d="M81 0v662h317q102 0 162.5 -56t60.5 -151q0 -64 -24.5 -102t-61.5 -57.5t-74 -28.5l174 -267h-89l-160 254h-230v-254h-75zM156 325h229q36 0 73 11t62.5 39.5t25.5 79.5q0 63 -43 99.5t-114 36.5h-233v-266zM291 -151v83h89v-83h-89z" />
    <glyph glyph-name="uni1E5B" unicode="&#x1e5b;" horiz-adv-x="345" 
d="M65 0v500h75v-123q4 13 15.5 34.5t33.5 43.5t55.5 37.5t79.5 15.5h5v-75h-9q-56 0 -96.5 -30.5t-62 -79t-21.5 -103.5v-220h-75zM59 -151v83h89v-83h-89z" />
    <glyph glyph-name="uni1E5C" unicode="&#x1e5c;" horiz-adv-x="669" 
d="M81 0v662h317q102 0 162.5 -56t60.5 -151q0 -64 -24.5 -102t-61.5 -57.5t-74 -28.5l174 -267h-89l-160 254h-230v-254h-75zM156 325h229q36 0 73 11t62.5 39.5t25.5 79.5q0 63 -43 99.5t-114 36.5h-233v-266zM291 -151v83h89v-83h-89zM203 736v60h264v-60h-264z" />
    <glyph glyph-name="uni1E5D" unicode="&#x1e5d;" horiz-adv-x="345" 
d="M65 0v500h75v-123q4 13 15.5 34.5t33.5 43.5t55.5 37.5t79.5 15.5h5v-75h-9q-56 0 -96.5 -30.5t-62 -79t-21.5 -103.5v-220h-75zM59 -151v83h89v-83h-89zM41 584v60h264v-60h-264z" />
    <glyph glyph-name="uni1E5E" unicode="&#x1e5e;" horiz-adv-x="669" 
d="M81 0v662h317q102 0 162.5 -56t60.5 -151q0 -64 -24.5 -102t-61.5 -57.5t-74 -28.5l174 -267h-89l-160 254h-230v-254h-75zM156 325h229q36 0 73 11t62.5 39.5t25.5 79.5q0 63 -43 99.5t-114 36.5h-233v-266zM203 -135v60h264v-60h-264z" />
    <glyph glyph-name="uni1E5F" unicode="&#x1e5f;" horiz-adv-x="345" 
d="M65 0v500h75v-123q4 13 15.5 34.5t33.5 43.5t55.5 37.5t79.5 15.5h5v-75h-9q-56 0 -96.5 -30.5t-62 -79t-21.5 -103.5v-220h-75zM-29 -135v60h264v-60h-264z" />
    <glyph glyph-name="uni1E60" unicode="&#x1e60;" horiz-adv-x="615" 
d="M318 -8q-98 0 -159 26.5t-91.5 73.5t-35.5 106h78q3 -48 32 -77.5t76.5 -43.5t104.5 -14q84 0 133 29.5t49 87.5q0 35 -24.5 56.5t-65 35.5t-88.5 25.5t-96.5 24.5t-89 33t-65 51.5t-24.5 80.5q0 81 62.5 132t186.5 51q88 0 145 -26.5t85.5 -69.5t31.5 -93h-77
q-6 50 -50 84.5t-135 34.5q-56 0 -91 -11t-53.5 -28.5t-25 -36.5t-6.5 -36q0 -33 24.5 -53.5t65 -34t89.5 -24.5t97.5 -24.5t89 -34t65 -52.5t24.5 -82q0 -92 -70 -141.5t-192 -49.5zM264 732v83h89v-83h-89z" />
    </font>
</defs>
</svg>
